<?xml version="1.0" standalone="no"?>
<!DOCTYPE svg PUBLIC "-//W3C//DTD SVG 1.1//EN" "http://www.w3.org/Graphics/SVG/1.1/DTD/svg11.dtd" >
<svg xmlns="http://www.w3.org/2000/svg" xmlns:xlink="http://www.w3.org/1999/xlink" version="1.1">
<metadata>
Created by FontForge 20190801 at Mon Jan 13 22:35:28 2020
 By Jimmy Wärting
Generated in 2020 by FontLab Studio. Copyright info pending.
</metadata>
<defs>
<font id="Caliber" horiz-adv-x="381" >
  <font-face 
    font-family="Caliber"
    font-weight="400"
    font-stretch="normal"
    units-per-em="1000"
    panose-1="2 0 0 0 0 0 0 0 0 0"
    ascent="780"
    descent="-220"
    x-height="500"
    cap-height="700"
    bbox="-122 -222 1009 925"
    underline-thickness="50"
    underline-position="-100"
    stemh="71"
    stemv="78"
    unicode-range="U+000D-FB04"
  />
<missing-glyph horiz-adv-x="917" 
d="M456 750c238 0 431 -193 431 -431s-193 -432 -431 -432s-432 194 -432 432s194 431 432 431zM793 319c0 79 -28 153 -75 212v-1l-32 -23c20 -57 26 -121 17 -172c-6 -38 -21 -74 -34 -101c-13 -20 -22 -37 -31 -49l9 -9c36 29 68 64 91 99l51 2c2 14 4 28 4 42zM364 104
l9 21c53 -19 117 -24 181 -2c27 9 53 24 79 43l-18 17c34 42 59 104 59 170c0 28 -7 58 -17 88l-20 -11c-32 44 -82 89 -147 107c-25 8 -56 13 -86 13l4 -24c-53 -15 -109 -50 -148 -105c-16 -23 -29 -51 -38 -80l23 -4c-2 -53 13 -118 55 -171c16 -23 39 -44 64 -62z
M455 656c-40 0 -81 -8 -117 -22l11 -37c61 2 123 -13 168 -36c35 -17 64 -42 84 -65c18 -18 31 -33 40 -44l11 5c-15 44 -40 86 -66 117l14 49c-44 22 -93 33 -145 33zM211 551c-57 -60 -93 -142 -93 -232v-14l42 -1c16 58 50 114 86 149c28 29 61 47 88 61
c22 11 39 18 53 23l-2 12c-45 -2 -92 -12 -130 -26zM159 159c43 -79 116 -141 206 -165l13 39c-48 35 -92 83 -114 129c-17 34 -26 72 -30 102c-4 24 -5 44 -5 58l-12 2c-13 -44 -18 -92 -16 -132zM517 -12c92 17 171 71 221 145l-34 26c-48 -38 -107 -63 -157 -70
c-39 -6 -77 -2 -106 3c-24 4 -44 9 -58 13l-6 -11c39 -26 82 -47 122 -57z" />
    <glyph glyph-name="f_f" unicode="ff" horiz-adv-x="640" 
d="M95 0v434h-62v66h62v73c0 166 118 181 175 181c12 0 23 0 35 -3v-69c-6 1 -18 3 -27 3c-37 0 -107 -6 -107 -112v-73h241v73c0 166 118 181 175 181c12 0 23 0 35 -3v-69c-6 1 -18 3 -27 3c-37 0 -107 -6 -107 -112v-73h126v-66h-126v-434h-76v434h-241v-434h-76z" />
    <glyph glyph-name="fi" unicode="fi" horiz-adv-x="543" 
d="M95 0v434h-62v66h62v73c0 166 118 181 175 181c13 0 23 -1 35 -3v-69c-6 1 -18 3 -27 3c-37 0 -107 -6 -107 -112v-73h295v-500h-77v434h-218v-434h-76z" />
    <glyph glyph-name="fl" unicode="fl" horiz-adv-x="555" 
d="M95 0v433h-62v66h62v74c0 166 118 181 175 181c13 0 23 -1 35 -3v-69c-6 1 -18 3 -27 3c-37 0 -107 -6 -107 -112v-74h126v-66h-126v-433h-76zM384 122v628h77v-610c0 -63 28 -74 55 -74c4 0 10 0 16 1v-69c-6 -1 -17 -3 -29 -3c-43 0 -119 14 -119 127z" />
    <glyph glyph-name="f_f_i" unicode="ffi" horiz-adv-x="860" 
d="M95 0v434h-62v66h62v73c0 166 118 181 175 181c13 0 23 -1 35 -3v-69c-6 1 -18 3 -27 3c-37 0 -107 -6 -107 -112v-73h242v73c0 166 118 181 176 181c12 0 23 -1 35 -3v-69c-7 1 -19 3 -28 3c-37 0 -106 -6 -106 -112v-73h293v-500h-77v434h-216v-434h-77v434h-242v-434
h-76z" />
    <glyph glyph-name="f_f_l" unicode="ffl" horiz-adv-x="872" 
d="M95 0v434h-62v66h62v73c0 166 118 181 175 181c13 0 23 -1 35 -3v-69c-6 1 -18 3 -27 3c-37 0 -107 -6 -107 -112v-73h241v73c0 166 118 181 175 181c13 0 23 -1 35 -3v-69c-6 1 -18 3 -27 3c-37 0 -107 -6 -107 -112v-73h126v-66h-126v-434h-76v434h-241v-434h-76z
M701 122v603h77v-585c0 -63 28 -74 55 -74c4 0 10 0 16 1v-69c-6 -1 -17 -3 -29 -3c-43 0 -119 14 -119 127z" />
    <glyph glyph-name="f_j" unicode="fj" horiz-adv-x="543" 
d="M95 0v434h-62v66h62v74c0 166 118 180 175 180c13 0 23 -1 35 -3v-69c-6 1 -18 3 -27 3c-37 0 -107 -5 -107 -111v-74h294v-545c0 -148 -95 -159 -149 -159c-12 0 -24 2 -33 3v69c5 -1 13 -2 20 -2c36 0 86 8 86 100v468h-218v-434h-76z" />
    <glyph glyph-name=".notdef" horiz-adv-x="917" 
d="M456 750c238 0 431 -193 431 -431s-193 -432 -431 -432s-432 194 -432 432s194 431 432 431zM793 319c0 79 -28 153 -75 212v-1l-32 -23c20 -57 26 -121 17 -172c-6 -38 -21 -74 -34 -101c-13 -20 -22 -37 -31 -49l9 -9c36 29 68 64 91 99l51 2c2 14 4 28 4 42zM364 104
l9 21c53 -19 117 -24 181 -2c27 9 53 24 79 43l-18 17c34 42 59 104 59 170c0 28 -7 58 -17 88l-20 -11c-32 44 -82 89 -147 107c-25 8 -56 13 -86 13l4 -24c-53 -15 -109 -50 -148 -105c-16 -23 -29 -51 -38 -80l23 -4c-2 -53 13 -118 55 -171c16 -23 39 -44 64 -62z
M455 656c-40 0 -81 -8 -117 -22l11 -37c61 2 123 -13 168 -36c35 -17 64 -42 84 -65c18 -18 31 -33 40 -44l11 5c-15 44 -40 86 -66 117l14 49c-44 22 -93 33 -145 33zM211 551c-57 -60 -93 -142 -93 -232v-14l42 -1c16 58 50 114 86 149c28 29 61 47 88 61
c22 11 39 18 53 23l-2 12c-45 -2 -92 -12 -130 -26zM159 159c43 -79 116 -141 206 -165l13 39c-48 35 -92 83 -114 129c-17 34 -26 72 -30 102c-4 24 -5 44 -5 58l-12 2c-13 -44 -18 -92 -16 -132zM517 -12c92 17 171 71 221 145l-34 26c-48 -38 -107 -63 -157 -70
c-39 -6 -77 -2 -106 3c-24 4 -44 9 -58 13l-6 -11c39 -26 82 -47 122 -57z" />
    <glyph glyph-name="space" unicode=" " horiz-adv-x="250" 
 />
    <glyph glyph-name="exclam" unicode="!" horiz-adv-x="262" 
d="M93 182l-5 518h84l-6 -518h-73zM87 0v87h87v-87h-87z" />
    <glyph glyph-name="quotedbl" unicode="&#x22;" horiz-adv-x="339" 
d="M195 499v201h67v-201h-67zM74 499v201h68v-201h-68z" />
    <glyph glyph-name="numbersign" unicode="#" horiz-adv-x="726" 
d="M149 0l34 192h-140l11 65h140l32 181h-139l11 64h139l35 198h70l-35 -198h161l35 198h70l-35 -198h139l-11 -64h-138l-32 -181h137l-11 -65h-137l-34 -192h-71l34 192h-161l-33 -192h-71zM264 257h161l32 181h-161z" />
    <glyph glyph-name="dollar" unicode="$" horiz-adv-x="568" 
d="M74 44v93c29 -27 133 -74 211 -74c82 0 141 47 141 116c0 171 -353 138 -353 352c0 97 73 168 182 181v93h64v-91c63 -6 130 -32 150 -45v-89c-19 17 -101 63 -176 63c-79 0 -137 -46 -137 -110c0 -153 353 -127 353 -351c0 -97 -73 -178 -190 -192v-92h-64v91
c-63 5 -139 28 -181 55z" />
    <glyph glyph-name="percent" unicode="%" horiz-adv-x="729" 
d="M195 427c-80 0 -143 64 -143 142s63 142 143 142c79 0 144 -64 144 -142s-65 -142 -144 -142zM54 0l533 700h83l-533 -700h-83zM195 492c43 0 76 34 76 77s-33 78 -76 78s-75 -35 -75 -78s32 -77 75 -77zM387 129c0 78 63 142 143 142c79 0 144 -64 144 -142
s-65 -141 -144 -141c-80 0 -143 63 -143 141zM455 129c0 -42 32 -76 75 -76s75 34 75 76c0 43 -32 78 -75 78s-75 -35 -75 -78z" />
    <glyph glyph-name="ampersand" unicode="&#x26;" horiz-adv-x="745" 
d="M253 551c0 -43 14 -74 45 -122c52 24 153 71 153 138c0 47 -42 82 -91 82c-68 0 -107 -53 -107 -98zM143 194c0 -93 91 -134 162 -134c65 0 118 25 147 49v3c-66 59 -143 167 -186 226c-36 -17 -123 -62 -123 -144zM364 716c111 0 164 -67 164 -140
c0 -96 -126 -165 -196 -201c33 -48 97 -144 178 -215c40 52 75 162 78 213h82c-6 -62 -44 -178 -102 -253c33 -25 89 -39 105 -41v-87c-28 0 -113 27 -162 68c-40 -32 -103 -74 -206 -74c-133 0 -249 71 -249 199c0 113 89 170 168 209v4c-29 45 -53 90 -53 152
c0 89 78 166 193 166z" />
    <glyph glyph-name="quotesingle" unicode="'" horiz-adv-x="217" 
d="M74 501v248h67v-248h-67z" />
    <glyph glyph-name="parenleft" unicode="(" horiz-adv-x="278" 
d="M168 -94c-74 121 -115 276 -115 435c0 145 41 278 114 396h74c-74 -125 -115 -257 -115 -397c0 -147 39 -296 116 -434h-74z" />
    <glyph glyph-name="parenright" unicode=")" horiz-adv-x="278" 
d="M41 -94c70 140 110 287 110 434c0 140 -41 272 -115 397h74c73 -118 114 -251 114 -396c0 -159 -42 -315 -113 -435h-70z" />
    <glyph glyph-name="asterisk" unicode="*" horiz-adv-x="495" 
d="M285 700l-7 -147l2 -3c46 17 95 35 139 51l24 -70l-141 -42c0 -1 -1 -3 -1 -4l90 -114l-61 -44l-81 119h-5l-81 -119l-62 44l90 115c0 2 -1 3 -1 4c-46 13 -96 27 -140 40l23 72l139 -51s1 1 2 1c-2 49 -5 100 -7 148h78z" />
    <glyph glyph-name="plus" unicode="+" horiz-adv-x="568" 
d="M20 251v67h228v251h70v-251h227v-67h-227v-251h-70v251h-228z" />
    <glyph glyph-name="comma" unicode="," horiz-adv-x="262" 
d="M37 -96l60 186h88l-80 -186h-68z" />
    <glyph glyph-name="hyphen" unicode="-" horiz-adv-x="432" 
d="M70 249v71h289v-71h-289z" />
    <glyph glyph-name="period" unicode="." horiz-adv-x="230" 
d="M69 0v91h90v-91h-90z" />
    <glyph glyph-name="slash" unicode="/" horiz-adv-x="402" 
d="M36 -42l253 786h74l-253 -786h-74z" />
    <glyph glyph-name="zero" unicode="0" horiz-adv-x="652" 
d="M324 -12c-183 0 -243 160 -243 362c0 201 60 361 243 361c184 0 243 -160 243 -361c0 -202 -59 -362 -243 -362zM324 62c127 0 163 125 163 288c0 161 -36 287 -163 287c-126 0 -162 -126 -162 -287c0 -163 36 -288 162 -288z" />
    <glyph glyph-name="one" unicode="1" horiz-adv-x="486" 
d="M84 0v70h135v461c1 39 3 75 3 75l-2 1s-12 -13 -50 -46l-89 -79v95l144 122h70v-629h132v-70h-343z" />
    <glyph glyph-name="two" unicode="2" horiz-adv-x="599" 
d="M519 0h-449v62c182 192 356 337 356 456c0 70 -57 121 -141 121s-165 -58 -187 -79v89c25 18 97 66 194 66c134 0 215 -81 215 -193c0 -115 -109 -230 -259 -381c-21 -21 -51 -47 -74 -70l1 -3l97 2h247v-70z" />
    <glyph glyph-name="three" unicode="3" horiz-adv-x="597" 
d="M94 700h413v-52l-151 -175l-54 -56v-2c90 0 221 -51 221 -201c0 -130 -116 -226 -250 -226c-92 0 -166 30 -193 46v90c23 -17 95 -61 194 -61c79 0 166 57 166 144c0 97 -84 142 -171 142h-50l-19 46l160 187c25 25 49 47 49 47l-1 3s-24 -2 -67 -3h-247v71z" />
    <glyph glyph-name="four" unicode="4" horiz-adv-x="636" 
d="M395 700h81v-440h98v-69h-98v-191h-77v191h-345v50zM399 260v266c1 34 3 76 3 76h-2s-23 -35 -46 -68l-148 -197l-62 -78v-2l87 3h168z" />
    <glyph glyph-name="five" unicode="5" horiz-adv-x="591" 
d="M135 700h343v-71h-275c-4 -35 -10 -91 -16 -146c-3 -30 -7 -54 -7 -58h1c23 12 61 23 98 23c146 0 245 -100 245 -226c0 -131 -112 -234 -252 -234c-85 0 -161 29 -186 45v90c25 -18 91 -60 186 -60c92 0 170 66 170 158s-75 156 -171 156c-43 0 -90 -15 -125 -38l-49 17
z" />
    <glyph glyph-name="six" unicode="6" horiz-adv-x="625" 
d="M323 -12c-157 0 -249 130 -249 318c0 175 68 405 300 405c39 0 77 -7 116 -24v-83c-14 7 -61 33 -120 33c-140 0 -206 -135 -213 -264h2c37 43 111 78 175 78c129 0 220 -89 220 -225c0 -143 -107 -238 -231 -238zM474 225c0 96 -59 155 -150 155
c-85 0 -150 -59 -166 -89c-1 -11 0 -21 0 -32c6 -103 58 -198 167 -198c86 0 149 72 149 164z" />
    <glyph glyph-name="seven" unicode="7" horiz-adv-x="562" 
d="M115 0l275 552c22 40 44 75 44 75v4s-29 -2 -79 -3h-295v72h458v-53l-319 -647h-84z" />
    <glyph glyph-name="eight" unicode="8" horiz-adv-x="631" 
d="M77 186c0 119 136 182 151 190v3c-27 16 -121 67 -121 161c0 97 74 174 215 174c132 0 208 -73 208 -172s-113 -159 -130 -169v-3c30 -17 150 -72 150 -183s-97 -200 -235 -200c-132 0 -238 71 -238 199zM320 641c-85 0 -130 -43 -130 -100c0 -60 61 -99 141 -139
c13 9 121 54 121 132c0 68 -50 107 -132 107zM313 61c80 0 154 46 154 124c0 86 -113 129 -167 156c-40 -18 -143 -67 -143 -148c0 -89 77 -132 156 -132z" />
    <glyph glyph-name="nine" unicode="9" horiz-adv-x="625" 
d="M297 711c157 0 249 -130 249 -318c0 -175 -57 -405 -300 -405c-39 0 -87 7 -126 24v83c14 -7 69 -33 130 -33c146 0 206 135 213 264h-2c-37 -43 -111 -78 -175 -78c-129 0 -220 89 -220 225c0 143 107 238 231 238zM146 474c0 -96 59 -156 150 -156c85 0 150 60 166 90
c1 12 0 24 -1 37c-6 102 -59 193 -166 193c-86 0 -149 -72 -149 -164z" />
    <glyph glyph-name="colon" unicode=":" horiz-adv-x="227" 
d="M69 412v88h87v-88h-87zM69 0v88h87v-88h-87z" />
    <glyph glyph-name="semicolon" unicode=";" horiz-adv-x="281" 
d="M110 412v88h86v-88h-86zM60 -96l50 186h84l-68 -186h-66z" />
    <glyph glyph-name="less" unicode="&#x3c;" horiz-adv-x="568" 
d="M42 257v56l455 203v-76l-353 -152v-4l353 -154v-77z" />
    <glyph glyph-name="equal" unicode="=" horiz-adv-x="568" 
d="M48 337v67h469v-67h-469zM48 165v67h469v-67h-469z" />
    <glyph glyph-name="greater" unicode="&#x3e;" horiz-adv-x="568" 
d="M67 53v77l354 154v3l-354 153v76l455 -203v-56z" />
    <glyph glyph-name="question" unicode="?" horiz-adv-x="450" 
d="M151 182v49c0 157 172 186 172 304c0 61 -54 104 -131 104c-65 0 -132 -36 -150 -48v83c18 9 82 39 158 39c122 0 205 -70 205 -171c0 -148 -178 -179 -178 -314v-46h-76zM146 0v87h87v-87h-87z" />
    <glyph glyph-name="at" unicode="@" horiz-adv-x="924" 
d="M463 658c225 0 405 -151 405 -383c0 -179 -82 -260 -168 -260c-48 0 -88 25 -101 72l-5 1c-18 -26 -71 -72 -150 -72c-126 0 -212 100 -212 231c0 142 92 230 212 230c76 0 127 -46 145 -66h3c0 19 1 37 1 56h71v-323c0 -40 17 -62 46 -62c45 0 90 51 90 187
c0 177 -131 320 -337 320c-183 0 -333 -155 -333 -341c1 -188 127 -339 326 -339c96 0 170 32 189 39v-75c-22 -8 -87 -36 -193 -36c-237 0 -397 173 -397 411c0 220 175 410 408 410zM309 246c0 -89 55 -164 145 -164c88 0 135 78 138 82v165c-7 10 -49 83 -138 83
c-87 0 -145 -72 -145 -166z" />
    <glyph glyph-name="A" unicode="A" horiz-adv-x="695" 
d="M576 0l-84 221h-292l-84 -221h-81l272 700h80l272 -700h-83zM319 536l-94 -246h240l-93 246l-26 85h-2z" />
    <glyph glyph-name="B" unicode="B" horiz-adv-x="672" 
d="M113 700h265c112 0 193 -66 193 -178c0 -67 -37 -120 -87 -147v-3c70 -23 115 -92 115 -173c0 -127 -94 -199 -213 -199h-273v700zM192 402h186c67 0 112 46 112 115s-44 112 -115 112h-183v-227zM192 70h194c82 0 132 51 132 132c0 79 -54 131 -132 131h-194v-263z" />
    <glyph glyph-name="C" unicode="C" horiz-adv-x="729" 
d="M649 653v-88c-28 25 -117 74 -215 74c-171 0 -284 -123 -284 -287c0 -162 116 -292 286 -292c92 0 188 48 219 74v-86c-53 -36 -134 -61 -221 -61c-214 0 -366 160 -366 365c0 207 158 360 364 360c72 0 155 -18 217 -59z" />
    <glyph glyph-name="D" unicode="D" horiz-adv-x="763" 
d="M114 0v700h225c211 0 353 -126 353 -348c0 -224 -142 -352 -353 -352h-225zM192 70h140c168 0 279 99 279 282c0 181 -112 277 -279 277h-140v-559z" />
    <glyph glyph-name="E" unicode="E" horiz-adv-x="597" 
d="M113 0v700h410v-71h-331v-231h279v-71h-279v-257h342v-70h-421z" />
    <glyph glyph-name="F" unicode="F" horiz-adv-x="551" 
d="M113 0v700h385v-71h-306v-239h264v-71h-264v-319h-79z" />
    <glyph glyph-name="G" unicode="G" horiz-adv-x="777" 
d="M694 363v-289c-28 -23 -124 -86 -265 -86c-214 0 -361 161 -361 367c0 207 157 358 363 358c73 0 160 -18 223 -59v-90c-29 26 -119 75 -220 75c-166 0 -285 -121 -285 -284c0 -162 113 -293 281 -293c94 0 160 31 188 53v177h-153v71h229z" />
    <glyph glyph-name="H" unicode="H" horiz-adv-x="778" 
d="M114 0v700h78v-309h392v309h78v-700h-78v320h-392v-320h-78z" />
    <glyph glyph-name="I" unicode="I" horiz-adv-x="306" 
d="M112 0v700h79v-700h-79z" />
    <glyph glyph-name="J" unicode="J" horiz-adv-x="499" 
d="M309 700h79v-469c0 -158 -87 -243 -217 -243c-36 0 -82 10 -119 32v87c16 -5 73 -41 112 -41c103 0 145 59 145 178v456z" />
    <glyph glyph-name="K" unicode="K" horiz-adv-x="641" 
d="M192 700v-302h4l299 302h96l-331 -328l346 -372h-100l-310 334h-4v-334h-79v700h79z" />
    <glyph glyph-name="L" unicode="L" horiz-adv-x="552" 
d="M113 0v700h79v-630h321v-70h-400z" />
    <glyph glyph-name="M" unicode="M" horiz-adv-x="893" 
d="M114 0v700h90l201 -371l43 -89h3l43 90l201 370h85v-700h-80v474l3 99h-3l-44 -91l-191 -351h-41l-193 355l-41 82h-3l5 -103v-465h-78z" />
    <glyph glyph-name="N" unicode="N" horiz-adv-x="790" 
d="M114 0v700h74l347 -479l64 -99h4c-1 21 -4 61 -5 97v481h78v-700h-74l-344 472l-68 105h-3l5 -103v-474h-78z" />
    <glyph glyph-name="O" unicode="O" horiz-adv-x="854" 
d="M68 354c0 202 153 359 358 359c206 0 359 -157 359 -359c0 -207 -153 -366 -359 -366c-205 0 -358 159 -358 366zM149 354c0 -167 118 -293 277 -293c160 0 278 126 278 293c0 161 -118 286 -278 286c-159 0 -277 -125 -277 -286z" />
    <glyph glyph-name="P" unicode="P" horiz-adv-x="632" 
d="M113 0v700h246c126 0 219 -80 219 -211c0 -132 -93 -217 -219 -217h-167v-272h-79zM192 343h158c89 0 148 55 148 146c0 90 -58 140 -147 140h-159v-286z" />
    <glyph glyph-name="Q" unicode="Q" horiz-adv-x="860" 
d="M69 354c0 203 153 358 357 358c208 0 359 -155 359 -358c0 -91 -31 -175 -84 -237l85 -85l-48 -50l-85 86c-60 -50 -140 -80 -227 -80c-206 0 -357 162 -357 366zM150 354c0 -165 120 -293 276 -293c62 0 126 22 172 61l-85 85l48 51l84 -87c37 50 59 114 59 183
c0 163 -120 285 -278 285c-156 0 -276 -122 -276 -285z" />
    <glyph glyph-name="R" unicode="R" horiz-adv-x="663" 
d="M113 0v700h241c127 0 224 -73 224 -201c0 -111 -74 -182 -173 -200c61 -89 141 -205 207 -299h-98l-194 293h-128v-293h-79zM192 363h154c89 0 152 46 152 135c0 88 -63 131 -152 131h-154v-266z" />
    <glyph glyph-name="S" unicode="S" horiz-adv-x="599" 
d="M159 537c0 -151 375 -137 375 -355c0 -112 -98 -194 -247 -194c-76 0 -165 28 -215 59v93c32 -28 136 -77 220 -77c90 0 160 44 160 113c0 172 -376 147 -376 358c0 122 104 181 237 181c73 0 157 -32 181 -46v-88c-23 17 -112 62 -190 62c-75 0 -145 -33 -145 -106z" />
    <glyph glyph-name="T" unicode="T" horiz-adv-x="630" 
d="M275 0v629h-242v71h563v-71h-243v-629h-78z" />
    <glyph glyph-name="U" unicode="U" horiz-adv-x="753" 
d="M106 246v454h78v-449c0 -116 75 -189 191 -189s193 73 193 191v447h78v-454c0 -156 -111 -258 -271 -258s-269 102 -269 258z" />
    <glyph glyph-name="V" unicode="V" horiz-adv-x="679" 
d="M300 0l-267 700h85l188 -491l38 -120h3l35 119l179 492h83l-262 -700h-82z" />
    <glyph glyph-name="W" unicode="W" horiz-adv-x="951" 
d="M222 0l-180 700h83l121 -477l25 -126h3l29 128l134 475h73l132 -476l28 -127h4c6 25 14 77 27 126l127 477h81l-190 -700h-89l-124 445l-31 138h-4c-8 -31 -18 -87 -32 -138l-125 -445h-92z" />
    <glyph glyph-name="X" unicode="X" horiz-adv-x="632" 
d="M30 0l234 364l-214 336h93l122 -193l52 -90h3l49 88l122 195h90l-217 -336l236 -364h-92l-138 212l-58 96h-3l-60 -105l-128 -203h-91z" />
    <glyph glyph-name="Y" unicode="Y" horiz-adv-x="618" 
d="M270 0v298l-243 402h93l143 -238l48 -93h3l49 93l142 238h86l-243 -402v-298h-78z" />
    <glyph glyph-name="Z" unicode="Z" horiz-adv-x="620" 
d="M49 0v54l356 505l57 71l-1 3l-81 -4h-312v71h488v-54l-354 -503l-59 -73l2 -3l79 3h335v-70h-510z" />
    <glyph glyph-name="bracketleft" unicode="[" horiz-adv-x="283" 
d="M87 -99v836h144v-65h-72v-706h72v-65h-144z" />
    <glyph glyph-name="backslash" unicode="\" horiz-adv-x="402" 
d="M289 -42l-253 786h74l253 -786h-74z" />
    <glyph glyph-name="bracketright" unicode="]" horiz-adv-x="283" 
d="M50 -34h72v706h-72v65h143v-836h-143v65z" />
    <glyph glyph-name="asciicircum" unicode="^" horiz-adv-x="606" 
d="M67 246l200 454h52l200 -454h-75l-151 356l-150 -356h-76z" />
    <glyph glyph-name="underscore" unicode="_" horiz-adv-x="589" 
d="M33 0h519v-67h-519v67z" />
    <glyph glyph-name="grave" unicode="`" horiz-adv-x="504" 
d="M260 750l-92 126h89l74 -126h-71z" />
    <glyph glyph-name="a" unicode="a" horiz-adv-x="532" 
d="M90 397v80c33 17 99 35 163 35c131 0 204 -70 204 -196v-316h-73v71l-3 1c-6 -6 -65 -84 -175 -84c-89 0 -166 58 -166 154c0 115 94 169 225 169c51 0 96 -8 115 -10v17c-1 91 -53 122 -131 122c-66 0 -127 -22 -159 -43zM120 147c0 -47 33 -93 102 -93
c100 0 158 96 158 96v90c-17 3 -56 10 -102 10c-95 0 -158 -32 -158 -103z" />
    <glyph glyph-name="b" unicode="b" horiz-adv-x="599" 
d="M550 251c0 -147 -92 -263 -229 -263c-98 0 -157 67 -168 83h-1v-71h-74v750h77v-246l-3 -71h2c14 17 74 80 167 80c130 0 229 -101 229 -262zM310 59c99 0 160 88 160 191c0 111 -64 193 -160 193c-104 0 -152 -90 -156 -97v-190c2 -4 51 -97 156 -97z" />
    <glyph glyph-name="c" unicode="c" horiz-adv-x="528" 
d="M311 443c-106 0 -190 -77 -190 -191c0 -116 86 -192 192 -192c73 0 143 39 163 61v-82c-22 -19 -91 -50 -165 -50c-150 0 -268 105 -268 261s121 262 268 262c64 0 130 -24 151 -39v-84c-18 18 -78 54 -151 54z" />
    <glyph glyph-name="d" unicode="d" horiz-adv-x="599" 
d="M46 251c0 161 99 262 229 262c93 0 153 -63 167 -81h2l-3 70v248h77v-750h-74v71h-2c-10 -16 -70 -83 -167 -83c-137 0 -229 116 -229 263zM286 59c105 0 154 93 156 97v190c-4 7 -52 97 -156 97c-96 0 -160 -82 -160 -193c0 -103 61 -191 160 -191z" />
    <glyph glyph-name="e" unicode="e" horiz-adv-x="558" 
d="M509 237h-383c3 -126 95 -177 183 -177c71 0 149 35 173 54v-81c-26 -16 -102 -45 -174 -45c-138 0 -264 86 -264 261c0 164 113 263 249 263c141 0 218 -107 218 -242c0 -10 -1 -22 -2 -33zM291 447c-74 0 -147 -45 -163 -148h305c-6 98 -65 148 -142 148z" />
    <glyph glyph-name="f" unicode="f" horiz-adv-x="323" 
d="M95 0v433h-62v66h62v75c0 166 118 180 175 180c13 0 23 -1 35 -3v-69c-6 1 -18 3 -27 3c-37 0 -107 -5 -107 -111v-75h126v-66h-126v-433h-76z" />
    <glyph glyph-name="g" unicode="g" horiz-adv-x="601" 
d="M445 500h74v-486c0 -159 -124 -227 -247 -227c-71 0 -142 25 -163 34v82c19 -9 95 -46 161 -46c93 0 173 51 173 157l1 55l-2 1c-14 -18 -73 -78 -166 -78c-130 0 -229 98 -229 259c0 147 92 261 229 261c97 0 156 -67 167 -83l2 1v70zM287 63c104 0 152 88 156 95v186
c-2 4 -51 97 -156 97c-99 0 -160 -86 -160 -189c0 -111 64 -189 160 -189z" />
    <glyph glyph-name="h" unicode="h" horiz-adv-x="594" 
d="M517 320v-320h-76v301c0 79 -25 139 -116 139c-102 0 -169 -98 -169 -98v-342h-77v749h75v-240l-2 -87h2c4 4 80 90 186 90c121 0 177 -64 177 -192z" />
    <glyph glyph-name="i" unicode="i" horiz-adv-x="231" 
d="M73 607v93h82v-93h-82zM76 0v500h77v-500h-77z" />
    <glyph glyph-name="j" unicode="j" horiz-adv-x="231" 
d="M73 607v93h82v-93h-82zM76 -35v535h76v-546c0 -149 -95 -158 -149 -158c-12 0 -24 2 -33 3v69c5 -1 13 -2 20 -2c36 0 86 6 86 99z" />
    <glyph glyph-name="k" unicode="k" horiz-adv-x="502" 
d="M154 750v-452h4l219 202h93l-249 -226l266 -274h-94l-235 244h-4v-244h-76v750h76z" />
    <glyph glyph-name="l" unicode="l" horiz-adv-x="247" 
d="M76 122v628h77v-610c0 -63 28 -74 55 -74c4 0 10 0 16 1v-69c-6 -1 -17 -3 -29 -3c-43 0 -119 14 -119 127z" />
    <glyph glyph-name="m" unicode="m" horiz-adv-x="909" 
d="M834 316v-316h-76v297c0 84 -18 142 -106 142s-145 -86 -156 -104v-335h-77v294c0 84 -22 145 -105 145c-102 0 -158 -103 -158 -103v-336h-77v500h76v-81l2 -1c4 6 63 93 172 93c84 0 130 -39 153 -103h2c9 10 75 103 184 103c118 0 166 -69 166 -195z" />
    <glyph glyph-name="n" unicode="n" horiz-adv-x="594" 
d="M518 321v-321h-77v302c0 84 -30 137 -118 137c-100 0 -167 -103 -167 -103v-336h-77v500h76v-82h2c4 4 70 93 180 93c118 0 181 -64 181 -190z" />
    <glyph glyph-name="o" unicode="o" horiz-adv-x="624" 
d="M46 252c0 149 119 260 266 260c146 0 265 -111 265 -260c0 -152 -119 -264 -265 -264c-147 0 -266 112 -266 264zM125 253c0 -118 84 -196 187 -196s187 80 187 196c0 115 -84 191 -187 191s-187 -81 -187 -191z" />
    <glyph glyph-name="p" unicode="p" horiz-adv-x="602" 
d="M551 252c0 -161 -99 -265 -230 -265c-92 0 -152 61 -166 79h-2l2 -73v-190h-77v697h74v-70l2 -1c11 16 71 83 167 83c137 0 230 -113 230 -260zM310 441c-104 0 -153 -93 -156 -97v-190c4 -7 53 -97 156 -97c97 0 161 85 161 196c0 103 -61 188 -161 188z" />
    <glyph glyph-name="q" unicode="q" horiz-adv-x="604" 
d="M47 249c0 147 92 263 229 263c97 0 158 -68 168 -84l1 1v71h74v-697h-77v201l3 64h-2c-13 -18 -74 -81 -167 -81c-130 0 -229 101 -229 262zM287 441c-99 0 -160 -88 -160 -191c0 -111 64 -193 160 -193c104 0 152 90 156 97v190c-2 4 -51 97 -156 97z" />
    <glyph glyph-name="r" unicode="r" horiz-adv-x="358" 
d="M335 507v-82c-8 3 -18 3 -27 3c-76 0 -133 -82 -154 -112v-316h-77v500h76v-94l2 -1c19 30 71 104 155 104c7 0 17 -1 25 -2z" />
    <glyph glyph-name="s" unicode="s" horiz-adv-x="459" 
d="M238 514c85 0 152 -33 152 -33v-80s-75 45 -160 45c-55 0 -100 -17 -100 -67c0 -114 292 -65 292 -247c0 -88 -86 -144 -196 -144c-100 0 -173 43 -173 43v83s83 -57 182 -57c57 0 107 25 107 73c0 124 -289 75 -289 245c0 95 83 139 185 139z" />
    <glyph glyph-name="t" unicode="t" horiz-adv-x="326" 
d="M94 163v270h-65v66h66v140h76v-140h124v-66h-124v-266c0 -96 54 -103 92 -103c18 0 34 4 38 5v-70c-2 -1 -26 -7 -50 -7c-59 0 -157 2 -157 171z" />
    <glyph glyph-name="u" unicode="u" horiz-adv-x="588" 
d="M75 182v318h77v-299c0 -84 31 -140 118 -140c100 0 165 103 165 103v336h77v-500h-76v81h-3c-5 -6 -68 -93 -177 -93c-118 0 -181 68 -181 194z" />
    <glyph glyph-name="v" unicode="v" horiz-adv-x="526" 
d="M221 0l-198 500h84l131 -336c13 -39 27 -87 27 -87h2s14 48 27 87l128 336h79l-200 -500h-80z" />
    <glyph glyph-name="w" unicode="w" horiz-adv-x="830" 
d="M201 0l-172 500h82l109 -332c11 -40 24 -90 24 -90h2s13 50 24 90l108 331h74l110 -335c11 -38 23 -85 23 -85h2s12 45 23 85l109 336h81l-171 -500h-82l-110 319c-10 36 -22 81 -22 81h-2s-12 -45 -22 -81l-109 -319h-81z" />
    <glyph glyph-name="x" unicode="x" horiz-adv-x="501" 
d="M15 0l186 260l-172 240h90l93 -133l37 -60h2l39 63l90 130h90l-172 -240l187 -260h-90l-98 140l-46 71h-3l-47 -76l-96 -135h-90z" />
    <glyph glyph-name="y" unicode="y" horiz-adv-x="526" 
d="M424 500h80c-43 -103 -171 -420 -243 -596c-34 -84 -89 -110 -144 -110c-17 0 -33 5 -38 6v72c5 -1 18 -4 32 -4c44 0 73 27 94 82c8 22 16 44 22 58l-207 492h85l127 -312c19 -50 35 -98 35 -98h2s15 49 33 100z" />
    <glyph glyph-name="z" unicode="z" horiz-adv-x="499" 
d="M36 0v50l260 323c26 29 55 59 55 59l-1 2s-27 -1 -76 -3h-226v69h403v-51l-256 -317c-27 -32 -59 -66 -59 -66l1 -1s29 2 79 3h245v-68h-425z" />
    <glyph glyph-name="braceleft" unicode="{" horiz-adv-x="340" 
d="M124 80v99c0 55 -28 98 -84 109v70c53 11 84 51 84 110v87c0 166 110 181 151 181c9 0 19 -1 20 -1v-64h-13c-23 0 -86 -9 -86 -118v-103c0 -54 -27 -102 -74 -127c43 -21 74 -63 74 -126v-115c0 -110 63 -118 86 -118h13v-64s-10 -2 -20 -2c-41 0 -151 15 -151 182z" />
    <glyph glyph-name="bar" unicode="|" horiz-adv-x="244" 
d="M85 -155v942h72v-942h-72z" />
    <glyph glyph-name="braceright" unicode="}" horiz-adv-x="340" 
d="M42 -36h15c22 0 85 8 85 118v115c0 58 26 104 74 128c-41 19 -74 65 -74 125v103c0 109 -63 118 -85 118h-15v64c2 0 12 1 21 1c40 0 151 -15 151 -181v-87c0 -55 28 -100 84 -110v-70c-55 -9 -84 -54 -84 -109v-99c0 -167 -111 -182 -151 -182c-10 0 -21 2 -21 2v64z
" />
    <glyph glyph-name="asciitilde" unicode="~" horiz-adv-x="602" 
d="M70 206c0 111 48 163 126 163c94 0 132 -98 202 -98c56 0 64 56 64 94h67c0 -115 -51 -163 -124 -163c-98 0 -122 97 -203 97c-54 0 -64 -56 -64 -93h-68z" />
    <glyph glyph-name="exclamdown" unicode="&#xa1;" horiz-adv-x="240" 
d="M155 318l8 -521h-89l9 521h72zM162 500v-88h-87v88h87z" />
    <glyph glyph-name="cent" unicode="&#xa2;" horiz-adv-x="568" 
d="M331 701v-93c58 -4 114 -24 133 -37v-82c-18 18 -78 53 -151 53c-105 0 -189 -75 -189 -187c0 -113 85 -188 191 -188c73 0 143 39 163 61v-80c-20 -17 -80 -44 -147 -49v-100h-65v104c-126 18 -220 114 -220 250s96 232 220 251v97h65z" />
    <glyph glyph-name="sterling" unicode="&#xa3;" horiz-adv-x="568" 
d="M46 0v70h62v252h-44v63h44v133c0 112 94 197 215 197c60 0 119 -18 156 -40v-86c-30 24 -85 51 -153 51c-83 0 -139 -57 -139 -126v-129h189v-63h-189v-252h334v-70h-475z" />
    <glyph glyph-name="yen" unicode="&#xa5;" horiz-adv-x="568" 
d="M83 208v60h161v33l-26 44h-135v59h103l-173 296h89l135 -238c20 -40 46 -91 46 -91h2s24 51 46 91l134 238h90l-173 -296h100v-59h-134l-25 -44v-33h159v-60h-159v-208h-79v208h-161z" />
    <glyph glyph-name="section" unicode="&#xa7;" horiz-adv-x="455" 
d="M417 326c0 -71 -73 -118 -106 -129c54 -24 98 -56 98 -122c0 -95 -84 -139 -186 -139c-85 0 -152 33 -152 33v80s75 -45 160 -45c55 0 98 19 98 69c0 114 -289 84 -289 250c0 71 74 116 107 128c-53 24 -96 57 -96 123c0 95 82 139 184 139c85 0 150 -33 150 -33v-80
s-73 45 -158 45c-55 0 -97 -19 -97 -69c0 -109 287 -86 287 -250zM342 324c0 55 -65 77 -119 97c-33 -5 -108 -41 -108 -96c0 -54 64 -75 124 -97c52 13 103 47 103 96z" />
    <glyph glyph-name="dieresis" unicode="&#xa8;" horiz-adv-x="504" 
d="M290 750v94h71v-94h-71zM140 750v94h71v-94h-71z" />
    <glyph glyph-name="copyright" unicode="&#xa9;" horiz-adv-x="829" 
d="M57 350c0 202 158 362 353 362c199 0 358 -160 358 -362c0 -203 -159 -362 -358 -362c-195 0 -353 159 -353 362zM124 350c0 -170 125 -300 286 -300c165 0 291 130 291 300c0 169 -126 299 -291 299c-161 0 -286 -130 -286 -299zM280 349c0 -78 54 -141 136 -141
c54 0 100 31 114 83h70c-15 -89 -100 -148 -185 -148c-119 0 -204 93 -204 206s85 208 204 208c103 0 169 -71 184 -148h-70c-14 50 -56 83 -113 83c-81 0 -136 -64 -136 -143z" />
    <glyph glyph-name="ordfeminine" unicode="&#xaa;" horiz-adv-x="423" 
d="M100 627v60c23 11 67 22 108 22c85 0 132 -43 132 -125v-203h-55v44c-9 -9 -47 -51 -106 -51c-58 0 -109 38 -109 101c0 68 52 105 126 109c13 1 26 1 39 0c20 -1 37 -4 48 -5c0 60 -27 76 -78 76c-41 0 -84 -14 -105 -28zM130 477c0 -28 19 -51 61 -51c57 0 92 55 92 55
v51c-9 1 -24 4 -39 5h-34c-48 -4 -80 -21 -80 -60zM74 260v55h269v-55h-269z" />
    <glyph glyph-name="guillemotleft" unicode="&#xab;" horiz-adv-x="527" 
d="M224 286l165 208h85l-165 -208c53 -67 113 -141 165 -207h-85zM210 79l-165 207l165 208h86l-165 -208c53 -67 112 -141 165 -207h-86z" />
    <glyph glyph-name="logicalnot" unicode="&#xac;" horiz-adv-x="627" 
d="M77 337v67h470v-249h-70v182h-400z" />
    <glyph glyph-name="registered" unicode="&#xae;" horiz-adv-x="829" 
d="M57 350c0 202 158 362 353 362c199 0 358 -160 358 -362c0 -203 -159 -362 -358 -362c-195 0 -353 159 -353 362zM124 350c0 -170 125 -300 286 -300c165 0 291 130 291 300c0 169 -126 299 -291 299c-161 0 -286 -130 -286 -299zM287 162v386h144c71 0 122 -47 122 -119
c0 -57 -39 -94 -74 -107l91 -160h-75l-74 148h-69v-148h-65zM352 363h70c38 0 65 25 65 66c0 40 -27 64 -65 64h-70v-130z" />
    <glyph glyph-name="macron" unicode="&#xaf;" horiz-adv-x="504" 
d="M124 750v63h252v-63h-252z" />
    <glyph glyph-name="degree" unicode="&#xb0;" horiz-adv-x="398" 
d="M197 430c-79 0 -143 63 -143 141s64 143 143 143c80 0 145 -65 145 -143s-65 -141 -145 -141zM197 494c44 0 77 34 77 77s-33 78 -77 78c-42 0 -74 -35 -74 -78s32 -77 74 -77z" />
    <glyph glyph-name="plusminus" unicode="&#xb1;" horiz-adv-x="568" 
d="M20 251v67h228v251h70v-251h227v-67h-227v-251h-70v251h-228zM38 -94h489v-67h-489v67z" />
    <glyph glyph-name="twosuperior" unicode="&#xb2;" 
d="M60 742c15 10 62 44 125 44c84 0 135 -47 135 -120c0 -70 -73 -155 -160 -241l-35 -30l1 -3l46 2h156v-56h-285v48c77 75 215 207 215 273c0 39 -30 68 -78 68c-47 0 -104 -42 -120 -57v72z" />
    <glyph glyph-name="threesuperior" unicode="&#xb3;" 
d="M60 721v57h266v-42l-92 -104l-27 -27v-2c58 -3 129 -43 129 -127c0 -83 -74 -147 -160 -147c-53 0 -106 21 -123 31v74c15 -13 65 -45 124 -45c44 0 94 33 94 82c0 53 -49 79 -97 79h-35l-15 37l93 110c11 12 24 23 24 23v3c-5 0 -18 -2 -32 -2h-149z" />
    <glyph glyph-name="acute" unicode="&#xb4;" horiz-adv-x="504" 
d="M169 749l73 126h91l-93 -126h-71z" />
    <glyph glyph-name="mu" unicode="&#xb5;" horiz-adv-x="589" 
d="M519 500v-500h-76v81h-2c-4 -4 -65 -93 -172 -93c-47 0 -88 17 -111 41c-1 0 -1 -1 -2 -1l3 -78v-147h-76v697h76v-274c0 -101 20 -165 119 -165c100 0 164 103 164 103v336h77z" />
    <glyph glyph-name="mu" unicode="&#x3bc;" horiz-adv-x="589" 
d="M519 500v-500h-76v81h-2c-4 -4 -65 -93 -172 -93c-47 0 -88 17 -111 41c-1 0 -1 -1 -2 -1l3 -78v-147h-76v697h76v-274c0 -101 20 -165 119 -165c100 0 164 103 164 103v336h77z" />
    <glyph glyph-name="paragraph" unicode="&#xb6;" horiz-adv-x="586" 
d="M407 -170v824h-66v-824h-69v430c-129 1 -235 103 -235 233s109 232 239 232h287v-71h-89v-824h-67z" />
    <glyph glyph-name="periodcentered" unicode="&#xb7;" horiz-adv-x="229" 
d="M69 243v92h89v-92h-89z" />
    <glyph glyph-name="cedilla" unicode="&#xb8;" horiz-adv-x="504" 
d="M174 -207v56c13 -5 30 -8 47 -8c27 0 46 12 46 35c0 18 -18 34 -52 34h-22l28 120l49 -10l-17 -67c44 -6 74 -38 74 -78c0 -61 -47 -88 -98 -88c-16 0 -37 2 -55 6z" />
    <glyph glyph-name="onesuperior" unicode="&#xb9;" 
d="M82 630v76l91 75h54v-388h92v-56h-248v56h95v268c1 20 2 41 2 41l-2 1s-6 -4 -36 -32z" />
    <glyph glyph-name="ordmasculine" unicode="&#xba;" horiz-adv-x="485" 
d="M240 375c-93 0 -169 73 -169 170c0 94 76 166 169 166c94 0 169 -72 169 -166c0 -97 -75 -170 -169 -170zM240 434c59 0 106 46 106 111c0 62 -47 107 -106 107s-106 -45 -106 -107c0 -65 47 -111 106 -111zM88 260v55h308v-55h-308z" />
    <glyph glyph-name="guillemotright" unicode="&#xbb;" horiz-adv-x="527" 
d="M227 79l165 207l-165 208h86l165 -208l-165 -207h-86zM49 79l165 207l-165 208h86l165 -208l-165 -207h-86z" />
    <glyph glyph-name="onequarter" unicode="&#xbc;" horiz-adv-x="932" 
d="M327 0h-67l336 703h66zM63 258v57h94v259c1 27 3 54 3 54h-1s-6 -3 -37 -29l-53 -43v70l94 74h57v-385h91v-57h-248zM550 114v41l213 286h59v-270h63v-57h-63v-114h-62v114h-210zM693 171h67v124c2 26 5 61 5 61h-2s-15 -25 -29 -46l-77 -102l-33 -39v-1z" />
    <glyph glyph-name="onehalf" unicode="&#xbd;" horiz-adv-x="921" 
d="M327 0h-67l336 703h66zM63 258v58h94v258c1 27 3 54 3 54l-2 1l-35 -28l-55 -44v70l95 73h57v-384h91v-58h-248zM599 404c15 10 62 44 125 44c84 0 135 -46 135 -119c0 -71 -73 -155 -160 -241l-35 -30l1 -3l46 1h156v-56h-285v48c77 75 213 207 213 274
c0 38 -28 67 -76 67c-47 0 -104 -42 -120 -56v71z" />
    <glyph glyph-name="threequarters" unicode="&#xbe;" horiz-adv-x="952" 
d="M73 355c15 -13 65 -45 124 -45c44 0 94 33 94 82c0 53 -49 79 -97 79h-35l-15 37l93 110c11 12 24 23 24 23v3c-5 0 -18 -2 -32 -2h-149v57h266v-42l-83 -94l-37 -35l1 -4c58 -3 129 -43 129 -127c0 -83 -74 -147 -160 -147c-53 0 -106 21 -123 31v74zM348 0h-66l335 703
h66zM572 114v41l212 286h60v-270h63v-57h-63v-114h-62v114h-210zM718 171h64v124c1 26 4 61 4 61h-1s-15 -25 -30 -46l-73 -98l-37 -43l1 -1z" />
    <glyph glyph-name="questiondown" unicode="&#xbf;" horiz-adv-x="441" 
d="M402 -174c-18 -9 -82 -39 -158 -39c-122 0 -205 70 -205 171c0 148 178 179 178 314v46h76v-49c0 -157 -172 -186 -172 -304c0 -61 54 -104 131 -104c65 0 132 36 150 48v-83zM298 500v-87h-87v87h87z" />
    <glyph glyph-name="Agrave" unicode="&#xc0;" horiz-adv-x="695" 
d="M312 749l-92 126h89l74 -126h-71zM576 0l-84 221h-292l-84 -221h-81l272 700h80l272 -700h-83zM319 536l-94 -246h240l-93 246l-26 85h-2z" />
    <glyph glyph-name="Aacute" unicode="&#xc1;" horiz-adv-x="695" 
d="M293 749l74 126h90l-93 -126h-71zM576 0l-84 221h-292l-84 -221h-81l272 700h80l272 -700h-83zM319 536l-94 -246h240l-93 246l-26 85h-2z" />
    <glyph glyph-name="Acircumflex" unicode="&#xc2;" horiz-adv-x="695" 
d="M216 750l89 126h79l90 -126h-76l-54 80l-51 -80h-77zM576 0l-84 221h-292l-84 -221h-81l272 700h80l272 -700h-83zM319 536l-94 -246h240l-93 246l-26 85h-2z" />
    <glyph glyph-name="Atilde" unicode="&#xc3;" horiz-adv-x="695" 
d="M253 751h-63c0 80 27 125 91 125s81 -65 129 -65c29 0 35 36 35 62h62c0 -82 -29 -125 -90 -125c-65 0 -82 65 -130 65c-28 0 -34 -36 -34 -62zM576 0l-84 221h-292l-84 -221h-81l272 700h80l272 -700h-83zM319 536l-94 -246h240l-93 246l-26 85h-2z" />
    <glyph glyph-name="Adieresis" unicode="&#xc4;" horiz-adv-x="695" 
d="M576 0l-84 221h-292l-84 -221h-81l272 700h80l272 -700h-83zM319 536l-94 -246h240l-93 246l-26 85h-2zM384 750v94h71v-94h-71zM234 750v94h71v-94h-71z" />
    <glyph glyph-name="Aring" unicode="&#xc5;" horiz-adv-x="695" 
d="M576 0l-84 221h-292l-84 -221h-81l272 700h80l272 -700h-83zM319 536l-94 -246h240l-93 246l-26 85h-2zM345 737c-43 0 -79 30 -79 74c0 45 36 74 79 74s79 -29 79 -74c0 -44 -36 -74 -79 -74zM345 778c20 0 33 14 33 33c0 21 -13 35 -33 35s-33 -14 -33 -35
c0 -19 13 -33 33 -33z" />
    <glyph glyph-name="AE" unicode="&#xc6;" horiz-adv-x="886" 
d="M29 0l289 700h484v-71h-322v-242h263v-71h-263v-246h339v-70h-417v316h-162l-129 -316h-82zM268 385h134v244h-34z" />
    <glyph glyph-name="Ccedilla" unicode="&#xc7;" horiz-adv-x="729" 
d="M354 -216v56c13 -4 30 -7 47 -7c27 0 46 11 46 34c0 19 -18 35 -52 35c-11 0 -22 -1 -22 -1l20 88c-192 18 -325 171 -325 363c0 207 158 360 364 360c72 0 155 -18 217 -59v-88c-28 25 -117 74 -215 74c-171 0 -284 -123 -284 -287c0 -162 116 -292 286 -292
c92 0 188 48 219 74v-86c-52 -35 -128 -60 -212 -61l-10 -42c44 -7 74 -39 74 -78c0 -61 -47 -89 -98 -89c-16 0 -37 2 -55 6z" />
    <glyph glyph-name="Egrave" unicode="&#xc8;" horiz-adv-x="597" 
d="M298 749l-92 126h90l74 -126h-72zM113 0v700h410v-71h-331v-231h279v-71h-279v-257h342v-70h-421z" />
    <glyph glyph-name="Eacute" unicode="&#xc9;" horiz-adv-x="597" 
d="M284 749l73 126h91l-93 -126h-71zM113 0v700h410v-71h-331v-231h279v-71h-279v-257h342v-70h-421z" />
    <glyph glyph-name="Ecircumflex" unicode="&#xca;" horiz-adv-x="597" 
d="M192 750l89 126h79l89 -126h-76l-53 80l-52 -80h-76zM113 0v700h410v-71h-331v-231h279v-71h-279v-257h342v-70h-421z" />
    <glyph glyph-name="Edieresis" unicode="&#xcb;" horiz-adv-x="597" 
d="M363 750v94h71v-94h-71zM213 750v94h71v-94h-71zM113 0v700h410v-71h-331v-231h279v-71h-279v-257h342v-70h-421z" />
    <glyph glyph-name="Igrave" unicode="&#xcc;" horiz-adv-x="306" 
d="M112 0v700h78v-700h-78zM120 750l-92 126h89l74 -126h-71z" />
    <glyph glyph-name="Iacute" unicode="&#xcd;" horiz-adv-x="306" 
d="M112 0v700h79v-700h-79zM113 749l73 126h91l-93 -126h-71z" />
    <glyph glyph-name="Icircumflex" unicode="&#xce;" horiz-adv-x="306" 
d="M112 0v700h79v-700h-79zM22 750l89 126h79l90 -126h-76l-54 80l-51 -80h-77z" />
    <glyph glyph-name="Idieresis" unicode="&#xcf;" horiz-adv-x="306" 
d="M112 0v700h79v-700h-79zM193 750v94h70v-94h-70zM43 750v94h70v-94h-70z" />
    <glyph glyph-name="Eth" unicode="&#xd0;" horiz-adv-x="777" 
d="M122 0v318h-62v69h62v313h225c211 0 353 -126 353 -348c0 -224 -142 -352 -353 -352h-225zM200 70h140c168 0 279 99 279 282c0 181 -112 277 -279 277h-140v-242h161v-69h-161v-248z" />
    <glyph glyph-name="Ntilde" unicode="&#xd1;" horiz-adv-x="792" 
d="M114 0v700h74l347 -479l64 -99h4c-1 21 -4 61 -5 97v481h78v-700h-74l-344 472l-68 105h-3l5 -103v-474h-78zM238 751c0 80 27 125 91 125s81 -65 129 -65c29 0 35 36 35 62h62c0 -82 -29 -125 -90 -125c-65 0 -82 65 -130 65c-28 0 -34 -36 -34 -62h-63z" />
    <glyph glyph-name="Ograve" unicode="&#xd2;" horiz-adv-x="859" 
d="M71 354c0 202 153 359 358 359s358 -157 358 -359c0 -207 -153 -366 -358 -366s-358 159 -358 366zM152 354c0 -167 118 -293 277 -293c160 0 277 126 277 293c0 161 -117 286 -277 286c-159 0 -277 -125 -277 -286zM394 749l-92 126h89l74 -126h-71z" />
    <glyph glyph-name="Oacute" unicode="&#xd3;" horiz-adv-x="859" 
d="M71 354c0 202 153 359 358 359s358 -157 358 -359c0 -207 -153 -366 -358 -366s-358 159 -358 366zM152 354c0 -167 118 -293 277 -293c160 0 277 126 277 293c0 161 -117 286 -277 286c-159 0 -277 -125 -277 -286zM386 749l74 126h90l-93 -126h-71z" />
    <glyph glyph-name="Ocircumflex" unicode="&#xd4;" horiz-adv-x="859" 
d="M71 354c0 202 153 359 358 359s358 -157 358 -359c0 -207 -153 -366 -358 -366s-358 159 -358 366zM152 354c0 -167 118 -293 277 -293c160 0 277 126 277 293c0 161 -117 286 -277 286c-159 0 -277 -125 -277 -286zM298 750l89 126h79l89 -126h-76l-53 80l-52 -80h-76z
" />
    <glyph glyph-name="Otilde" unicode="&#xd5;" horiz-adv-x="859" 
d="M71 354c0 202 153 359 358 359s358 -157 358 -359c0 -207 -153 -366 -358 -366s-358 159 -358 366zM152 354c0 -167 118 -293 277 -293c160 0 277 126 277 293c0 161 -117 286 -277 286c-159 0 -277 -125 -277 -286zM270 751c0 80 27 125 91 125s82 -65 129 -65
c29 0 35 36 35 62h63c0 -82 -29 -125 -91 -125c-64 0 -82 65 -129 65c-29 0 -35 -36 -35 -62h-63z" />
    <glyph glyph-name="Odieresis" unicode="&#xd6;" horiz-adv-x="859" 
d="M71 354c0 202 153 359 358 359s358 -157 358 -359c0 -207 -153 -366 -358 -366s-358 159 -358 366zM152 354c0 -167 118 -293 277 -293c160 0 277 126 277 293c0 161 -117 286 -277 286c-159 0 -277 -125 -277 -286zM467 759v95h70v-95h-70zM316 759v95h71v-95h-71z" />
    <glyph glyph-name="multiply" unicode="&#xd7;" horiz-adv-x="568" 
d="M25 45l213 240c-71 79 -142 161 -213 239l49 47l210 -236l210 236l49 -47l-213 -239c70 -79 142 -161 213 -240l-49 -47l-210 236l-210 -236z" />
    <glyph glyph-name="Oslash" unicode="&#xd8;" horiz-adv-x="859" 
d="M71 354c0 202 153 359 358 359c69 0 132 -18 185 -49l47 65l48 -34l-46 -65c77 -65 125 -164 125 -276c0 -207 -153 -366 -359 -366c-71 0 -135 18 -189 52l-47 -65l-49 33l48 67c-75 66 -121 165 -121 279zM707 354c0 86 -34 161 -90 213l-333 -466
c41 -26 91 -40 145 -40c160 0 278 126 278 293zM152 354c0 -87 32 -163 86 -216l332 464c-41 24 -88 38 -141 38c-159 0 -277 -125 -277 -286z" />
    <glyph glyph-name="Ugrave" unicode="&#xd9;" horiz-adv-x="753" 
d="M106 246v454h78v-449c0 -116 75 -189 191 -189s193 73 193 191v447h78v-454c0 -156 -111 -258 -271 -258s-269 102 -269 258zM344 750l-93 126h90l74 -126h-71z" />
    <glyph glyph-name="Uacute" unicode="&#xda;" horiz-adv-x="753" 
d="M106 246v454h78v-449c0 -116 75 -189 191 -189s193 73 193 191v447h78v-454c0 -156 -111 -258 -271 -258s-269 102 -269 258zM336 749l73 126h91l-94 -126h-70z" />
    <glyph glyph-name="Ucircumflex" unicode="&#xdb;" horiz-adv-x="753" 
d="M106 246v454h78v-449c0 -116 75 -189 191 -189s193 73 193 191v447h78v-454c0 -156 -111 -258 -271 -258s-269 102 -269 258zM247 750l89 126h79l89 -126h-76l-53 80l-52 -80h-76z" />
    <glyph glyph-name="Udieresis" unicode="&#xdc;" horiz-adv-x="753" 
d="M106 246v454h78v-449c0 -116 75 -189 191 -189s193 73 193 191v447h78v-454c0 -156 -111 -258 -271 -258s-269 102 -269 258zM416 749v95h70v-95h-70zM266 749v95h70v-95h-70z" />
    <glyph glyph-name="Yacute" unicode="&#xdd;" horiz-adv-x="627" 
d="M264 749l74 126h90l-93 -126h-71zM274 0v298l-243 402h93l143 -238l48 -93h3l49 93l142 238h86l-243 -402v-298h-78z" />
    <glyph glyph-name="Thorn" unicode="&#xde;" horiz-adv-x="635" 
d="M113 0v700h79v-121h167c126 0 219 -83 219 -214s-93 -217 -221 -217h-165v-148h-79zM192 219h158c89 0 148 55 148 146s-58 143 -147 143h-159v-289z" />
    <glyph glyph-name="germandbls" unicode="&#xdf;" horiz-adv-x="575" 
d="M78 0v526c0 121 101 185 202 185c108 0 177 -71 177 -151c0 -95 -109 -135 -109 -190c0 -67 192 -112 192 -232c0 -98 -79 -145 -164 -145c-49 0 -103 8 -150 33v74c43 -24 99 -37 145 -37c47 0 91 23 91 77c0 94 -192 123 -192 225c0 84 109 115 109 194
c0 39 -34 82 -101 82c-62 0 -124 -41 -124 -120v-521h-76z" />
    <glyph glyph-name="agrave" unicode="&#xe0;" horiz-adv-x="532" 
d="M244 574l-92 126h89l74 -126h-71zM90 399v78c37 17 99 35 163 35c131 0 204 -70 204 -196v-316h-73v71l-3 1c-6 -6 -65 -84 -175 -84c-89 0 -166 58 -166 154c0 115 94 169 225 169c51 0 96 -8 115 -10v20c-2 89 -55 119 -131 119c-66 0 -127 -22 -159 -41zM120 147
c0 -47 33 -93 102 -93c100 0 158 96 158 96v90c-17 3 -56 10 -102 10c-95 0 -158 -32 -158 -103z" />
    <glyph glyph-name="aacute" unicode="&#xe1;" horiz-adv-x="532" 
d="M202 574l73 126h91l-93 -126h-71zM90 399v79c37 16 99 34 163 34c131 0 204 -70 204 -196v-316h-73v71l-3 1c-6 -6 -65 -84 -175 -84c-89 0 -166 58 -166 154c0 115 94 169 225 169c51 0 96 -8 115 -10c0 7 1 15 0 22c-3 87 -55 117 -131 117c-66 0 -127 -22 -159 -41z
M120 147c0 -47 33 -93 102 -93c100 0 158 96 158 96v90c-17 3 -56 10 -102 10c-95 0 -158 -32 -158 -103z" />
    <glyph glyph-name="acircumflex" unicode="&#xe2;" horiz-adv-x="532" 
d="M129 574l89 126h79l89 -126h-76l-53 80l-52 -80h-76zM90 399v79c37 16 99 34 163 34c131 0 204 -70 204 -196v-316h-73v71l-3 1c-6 -6 -65 -84 -175 -84c-89 0 -166 58 -166 154c0 115 94 169 225 169c51 0 96 -8 115 -10c0 8 1 15 0 22c-3 87 -56 117 -131 117
c-66 0 -127 -22 -159 -41zM120 147c0 -47 33 -93 102 -93c100 0 158 96 158 96v90c-17 3 -56 10 -102 10c-95 0 -158 -32 -158 -103z" />
    <glyph glyph-name="atilde" unicode="&#xe3;" horiz-adv-x="532" 
d="M96 577c0 79 27 124 91 124s81 -65 129 -65c29 0 35 37 35 62h62c0 -81 -29 -124 -90 -124c-65 0 -82 65 -130 65c-28 0 -34 -36 -34 -62h-63zM90 399v79c37 16 99 34 163 34c131 0 204 -70 204 -196v-316h-73v71l-3 1c-6 -6 -65 -84 -175 -84c-89 0 -166 58 -166 154
c0 115 94 169 225 169c51 0 96 -8 115 -10c0 7 1 14 0 21c-3 88 -55 118 -131 118c-66 0 -127 -22 -159 -41zM120 147c0 -47 33 -93 102 -93c100 0 158 96 158 96v90c-17 3 -56 10 -102 10c-95 0 -158 -32 -158 -103z" />
    <glyph glyph-name="adieresis" unicode="&#xe4;" horiz-adv-x="532" 
d="M298 605v95h70v-95h-70zM147 605v95h71v-95h-71zM90 399v79c37 16 99 34 163 34c131 0 204 -70 204 -196v-316h-73v71l-3 1c-6 -6 -65 -84 -175 -84c-89 0 -166 58 -166 154c0 115 94 169 225 169c51 0 96 -8 115 -10c0 7 1 15 0 22c-3 87 -55 117 -131 117
c-66 0 -127 -22 -159 -41zM120 147c0 -47 33 -93 102 -93c100 0 158 96 158 96v90c-17 3 -56 10 -102 10c-95 0 -158 -32 -158 -103z" />
    <glyph glyph-name="aring" unicode="&#xe5;" horiz-adv-x="532" 
d="M250 565c-43 0 -79 30 -79 74c0 45 36 74 79 74s79 -29 79 -74c0 -44 -36 -74 -79 -74zM250 606c20 0 33 14 33 33c0 21 -13 35 -33 35s-33 -14 -33 -35c0 -19 13 -33 33 -33zM90 399v79c37 16 99 34 163 34c131 0 204 -70 204 -196v-316h-73v71l-3 1
c-6 -6 -65 -84 -175 -84c-89 0 -166 58 -166 154c0 115 94 169 225 169c51 0 96 -8 115 -10c0 6 1 13 1 19c-2 90 -55 120 -132 120c-66 0 -127 -22 -159 -41zM120 147c0 -47 33 -93 102 -93c100 0 158 96 158 96v90c-17 3 -56 10 -102 10c-95 0 -158 -32 -158 -103z" />
    <glyph glyph-name="ae" unicode="&#xe6;" horiz-adv-x="886" 
d="M90 399v79c37 16 99 34 163 34c87 0 147 -33 177 -94h3c43 60 110 94 188 94c141 0 217 -107 217 -242c0 -10 -1 -22 -2 -33h-377c3 -126 89 -177 177 -177c72 0 149 35 173 54v-81c-26 -16 -102 -45 -173 -45c-91 0 -172 37 -216 110h-5c-29 -40 -99 -110 -209 -110
c-89 0 -166 58 -166 154c0 115 94 169 225 169c51 0 96 -8 115 -10c0 7 1 14 1 21c-3 88 -56 118 -132 118c-66 0 -127 -22 -159 -41zM120 147c0 -47 33 -91 102 -91c100 0 158 97 158 97v87c-17 3 -56 10 -102 10c-95 0 -158 -32 -158 -103zM460 299h300
c-5 98 -65 148 -141 148c-74 0 -142 -45 -159 -148z" />
    <glyph glyph-name="ccedilla" unicode="&#xe7;" horiz-adv-x="529" 
d="M476 39c-21 -18 -86 -47 -157 -50l-8 -37c43 -7 73 -39 73 -78c0 -61 -47 -89 -97 -89c-17 0 -37 2 -56 6v56c13 -4 30 -7 47 -7c27 0 47 11 47 34c0 19 -18 35 -52 35c-11 0 -23 -1 -23 -1l20 84c-130 17 -227 116 -227 258c0 156 121 262 268 262c64 0 131 -24 152 -39
v-85c-18 18 -79 55 -152 55c-106 0 -190 -77 -190 -191c0 -116 86 -192 192 -192c73 0 143 39 163 61v-82z" />
    <glyph glyph-name="egrave" unicode="&#xe8;" horiz-adv-x="558" 
d="M265 574l-92 126h89l74 -126h-71zM482 114v-81c-26 -16 -102 -45 -174 -45c-138 0 -264 86 -264 261c0 164 113 263 249 263c141 0 218 -107 218 -242c0 -10 -1 -22 -2 -33h-383c3 -126 95 -177 183 -177c71 0 149 35 173 54zM128 299h305c-6 98 -65 148 -142 148
c-74 0 -147 -45 -163 -148z" />
    <glyph glyph-name="eacute" unicode="&#xe9;" horiz-adv-x="558" 
d="M239 574l73 126h91l-93 -126h-71zM482 33c-26 -16 -102 -45 -174 -45c-138 0 -264 86 -264 261c0 164 113 263 249 263c141 0 218 -107 218 -242c0 -10 -1 -22 -2 -33h-383c3 -126 95 -177 183 -177c71 0 149 35 173 54v-81zM128 299h305c-6 98 -65 148 -142 148
c-74 0 -147 -45 -163 -148z" />
    <glyph glyph-name="ecircumflex" unicode="&#xea;" horiz-adv-x="558" 
d="M163 574l89 126h79l89 -126h-76l-53 80l-52 -80h-76zM482 33c-26 -16 -102 -45 -174 -45c-138 0 -264 86 -264 261c0 164 113 263 249 263c141 0 218 -107 218 -242c0 -10 -1 -22 -2 -33h-383c3 -126 95 -177 183 -177c71 0 149 35 173 54v-81zM128 299h305
c-6 98 -65 148 -142 148c-74 0 -147 -45 -163 -148z" />
    <glyph glyph-name="edieresis" unicode="&#xeb;" horiz-adv-x="558" 
d="M332 605v95h71v-95h-71zM182 605v95h71v-95h-71zM482 33c-26 -16 -102 -45 -174 -45c-138 0 -264 86 -264 261c0 164 113 263 249 263c141 0 218 -107 218 -242c0 -10 -1 -22 -2 -33h-383c3 -126 95 -177 183 -177c71 0 149 35 173 54v-81zM128 299h305
c-6 98 -65 148 -142 148c-74 0 -147 -45 -163 -148z" />
    <glyph glyph-name="igrave" unicode="&#xec;" horiz-adv-x="231" 
d="M76 0v500h76v-500h-76zM84 574l-92 126h89l73 -126h-70z" />
    <glyph glyph-name="iacute" unicode="&#xed;" horiz-adv-x="231" 
d="M76 574l73 126h90l-93 -126h-70zM77 0v500h76v-500h-76z" />
    <glyph glyph-name="icircumflex" unicode="&#xee;" horiz-adv-x="231" 
d="M76 0v500h77v-500h-77zM-14 574l89 126h79l89 -126h-76l-53 80l-52 -80h-76z" />
    <glyph glyph-name="idieresis" unicode="&#xef;" horiz-adv-x="231" 
d="M76 0v500h77v-500h-77zM156 606v94h70v-94h-70zM6 606v94h71v-94h-71z" />
    <glyph glyph-name="eth" unicode="&#xf0;" horiz-adv-x="579" 
d="M46 227c0 119 72 235 229 235c109 0 161 -69 161 -69l2 2c-7 50 -56 156 -136 196l-162 -79l-25 51l130 63c-40 20 -84 28 -134 40v73c81 -15 153 -42 214 -79c43 19 91 40 134 58l24 -50l-107 -44c90 -74 149 -204 149 -352c0 -134 -73 -284 -248 -284
c-147 0 -231 115 -231 239zM125 224c0 -88 57 -167 155 -167c116 0 168 98 168 223c-13 35 -70 117 -164 117c-114 0 -159 -89 -159 -173z" />
    <glyph glyph-name="ntilde" unicode="&#xf1;" horiz-adv-x="594" 
d="M145 577c0 79 27 124 91 124s81 -65 129 -65c29 0 35 37 35 62h62c0 -81 -29 -124 -90 -124c-65 0 -82 65 -130 65c-28 0 -34 -36 -34 -62h-63zM518 321v-321h-77v302c0 84 -30 137 -118 137c-100 0 -167 -103 -167 -103v-336h-77v500h76v-82h2c4 4 70 93 180 93
c118 0 181 -64 181 -190z" />
    <glyph glyph-name="ograve" unicode="&#xf2;" horiz-adv-x="624" 
d="M46 252c0 149 119 260 266 260c146 0 265 -111 265 -260c0 -152 -119 -264 -265 -264c-147 0 -266 112 -266 264zM125 253c0 -118 84 -196 187 -196s187 80 187 196c0 115 -84 191 -187 191s-187 -81 -187 -191zM277 574l-91 126h88l74 -126h-71z" />
    <glyph glyph-name="oacute" unicode="&#xf3;" horiz-adv-x="624" 
d="M46 252c0 149 119 260 266 260c146 0 265 -111 265 -260c0 -152 -119 -264 -265 -264c-147 0 -266 112 -266 264zM125 253c0 -118 84 -196 187 -196s187 80 187 196c0 115 -84 191 -187 191s-187 -81 -187 -191zM270 574l73 126h89l-92 -126h-70z" />
    <glyph glyph-name="ocircumflex" unicode="&#xf4;" horiz-adv-x="624" 
d="M46 252c0 149 119 260 266 260c146 0 265 -111 265 -260c0 -152 -119 -264 -265 -264c-147 0 -266 112 -266 264zM125 253c0 -118 84 -196 187 -196s187 80 187 196c0 115 -84 191 -187 191s-187 -81 -187 -191zM183 574l89 126h79l89 -126h-76l-53 80l-52 -80h-76z" />
    <glyph glyph-name="otilde" unicode="&#xf5;" horiz-adv-x="624" 
d="M46 252c0 149 119 260 266 260c146 0 265 -111 265 -260c0 -152 -119 -264 -265 -264c-147 0 -266 112 -266 264zM125 253c0 -118 84 -196 187 -196s187 80 187 196c0 115 -84 191 -187 191s-187 -81 -187 -191zM155 577c0 79 27 124 91 124s81 -65 129 -65
c29 0 35 37 35 62h62c0 -81 -29 -124 -90 -124c-65 0 -82 65 -130 65c-28 0 -34 -36 -34 -62h-63z" />
    <glyph glyph-name="odieresis" unicode="&#xf6;" horiz-adv-x="624" 
d="M46 252c0 149 119 260 266 260c146 0 265 -111 265 -260c0 -152 -119 -264 -265 -264c-147 0 -266 112 -266 264zM125 253c0 -118 84 -196 187 -196s187 80 187 196c0 115 -84 191 -187 191s-187 -81 -187 -191zM349 606v94h70v-94h-70zM200 606v94h70v-94h-70z" />
    <glyph glyph-name="divide" unicode="&#xf7;" horiz-adv-x="568" 
d="M240 427v83h83v-83h-83zM36 251v67h493v-67h-493zM240 59v83h83v-83h-83z" />
    <glyph glyph-name="oslash" unicode="&#xf8;" horiz-adv-x="625" 
d="M102 0l37 51c-55 48 -92 120 -92 202c0 149 119 261 266 261c47 0 94 -12 133 -34l38 54l46 -35l-37 -52c52 -47 85 -116 85 -194c0 -151 -119 -265 -265 -265c-46 0 -89 10 -126 30l-38 -53zM182 112l221 309c-26 14 -57 24 -90 24c-103 0 -188 -82 -188 -192
c0 -58 22 -106 57 -141zM229 78c25 -13 53 -20 84 -20c103 0 187 83 187 195c0 52 -20 99 -52 131z" />
    <glyph glyph-name="ugrave" unicode="&#xf9;" horiz-adv-x="588" 
d="M267 574l-91 126h89l73 -126h-71zM512 500v-500h-76v81h-3c-5 -6 -68 -93 -177 -93c-118 0 -181 68 -181 194v318h77v-299c0 -84 31 -140 118 -140c100 0 165 103 165 103v336h77z" />
    <glyph glyph-name="uacute" unicode="&#xfa;" horiz-adv-x="588" 
d="M249 574l73 126h90l-93 -126h-70zM512 500v-500h-76v81h-3c-5 -6 -68 -93 -177 -93c-118 0 -181 68 -181 194v318h77v-299c0 -84 31 -140 118 -140c100 0 165 103 165 103v336h77z" />
    <glyph glyph-name="ucircumflex" unicode="&#xfb;" horiz-adv-x="588" 
d="M163 574l89 126h79l89 -126h-76l-53 80l-52 -80h-76zM512 500v-500h-76v81h-3c-5 -6 -68 -93 -177 -93c-118 0 -181 68 -181 194v318h77v-299c0 -84 31 -140 118 -140c100 0 165 103 165 103v336h77z" />
    <glyph glyph-name="udieresis" unicode="&#xfc;" horiz-adv-x="588" 
d="M329 606v94h69v-94h-69zM179 606v94h70v-94h-70zM512 500v-500h-76v81h-3c-5 -6 -68 -93 -177 -93c-118 0 -181 68 -181 194v318h77v-299c0 -84 31 -140 118 -140c100 0 165 103 165 103v336h77z" />
    <glyph glyph-name="yacute" unicode="&#xfd;" horiz-adv-x="526" 
d="M221 574l73 126h90l-92 -126h-71zM20 500h85l127 -312c19 -50 35 -98 35 -98h2s15 49 33 100l122 310h80c-43 -103 -171 -420 -243 -596c-34 -84 -89 -110 -144 -110c-17 0 -33 5 -38 6v72c5 -1 18 -4 32 -4c44 0 73 27 94 82c8 22 16 44 22 58z" />
    <glyph glyph-name="thorn" unicode="&#xfe;" horiz-adv-x="598" 
d="M154 -197h-77v947h74v-320l2 -1c11 16 71 83 167 83c137 0 230 -113 230 -260c0 -161 -99 -265 -230 -265c-92 0 -152 61 -166 79h-2l2 -73v-190zM309 441c-104 0 -153 -93 -156 -97v-190c4 -7 53 -97 156 -97c97 0 161 85 161 196c0 103 -61 188 -161 188z" />
    <glyph glyph-name="ydieresis" unicode="&#xff;" horiz-adv-x="526" 
d="M306 606v94h70v-94h-70zM157 606v94h70v-94h-70zM20 500h85l127 -312c19 -50 35 -98 35 -98h2s15 49 33 100l122 310h80c-43 -103 -171 -420 -243 -596c-34 -84 -89 -110 -144 -110c-17 0 -33 5 -38 6v72c5 -1 18 -4 32 -4c44 0 73 27 94 82c8 22 16 44 22 58z" />
    <glyph glyph-name="Amacron" unicode="&#x100;" horiz-adv-x="695" 
d="M219 823h252v-64h-252v64zM576 0l-84 221h-292l-84 -221h-81l272 700h80l272 -700h-83zM319 536l-94 -246h240l-93 246l-26 85h-2z" />
    <glyph glyph-name="amacron" unicode="&#x101;" horiz-adv-x="532" 
d="M133 635v64h252v-64h-252zM90 399v79c37 16 99 34 163 34c131 0 204 -70 204 -196v-316h-73v71l-3 1c-6 -6 -65 -84 -175 -84c-89 0 -166 58 -166 154c0 115 94 169 225 169c51 0 96 -8 115 -10v20c-2 89 -55 119 -131 119c-66 0 -127 -22 -159 -41zM120 147
c0 -47 33 -93 102 -93c100 0 158 96 158 96v90c-17 3 -56 10 -102 10c-95 0 -158 -32 -158 -103z" />
    <glyph glyph-name="Abreve" unicode="&#x102;" horiz-adv-x="695" 
d="M345 743c-65 0 -127 37 -127 113v20h67v-18c0 -41 29 -59 60 -59s61 18 61 60v17h66v-20c0 -76 -61 -113 -127 -113zM576 0l-84 221h-292l-84 -221h-81l272 700h80l272 -700h-83zM319 536l-94 -246h240l-93 246l-26 85h-2z" />
    <glyph glyph-name="abreve" unicode="&#x103;" horiz-adv-x="532" 
d="M259 572c-65 0 -127 37 -127 113v15h67v-13c0 -41 29 -59 60 -59s61 18 61 60v12h66v-15c0 -76 -61 -113 -127 -113zM90 399v78c37 17 99 35 163 35c131 0 204 -70 204 -196v-316h-73v71l-3 1c-6 -6 -65 -84 -175 -84c-89 0 -166 58 -166 154c0 115 94 169 225 169
c51 0 96 -8 115 -10v20c-3 89 -55 119 -131 119c-66 0 -127 -22 -159 -41zM120 147c0 -47 33 -93 102 -93c100 0 158 96 158 96v90c-17 3 -56 10 -102 10c-95 0 -158 -32 -158 -103z" />
    <glyph glyph-name="Aogonek" unicode="&#x104;" horiz-adv-x="695" 
d="M505 -112c0 52 41 93 69 116l-82 217h-292l-84 -221h-81l272 700h80l272 -700c-11 -9 -82 -56 -82 -99c0 -49 66 -43 66 -43v-67s-138 -7 -138 97zM319 536l-94 -246h240l-93 246l-26 85h-2z" />
    <glyph glyph-name="aogonek" unicode="&#x105;" horiz-adv-x="532" 
d="M90 399v79c37 16 99 34 163 34c131 0 204 -70 204 -196v-316c-12 -9 -78 -56 -78 -99c0 -50 66 -44 66 -44v-66s-138 -8 -138 97c0 52 46 93 77 116l1 69l-4 1c-5 -6 -65 -86 -175 -86c-89 0 -166 58 -166 154c0 115 94 169 225 169c51 0 96 -8 115 -10v19
c-2 89 -54 120 -131 120c-66 0 -127 -22 -159 -41zM120 147c0 -47 33 -93 102 -93c100 0 158 96 158 96v90c-17 3 -56 10 -102 10c-95 0 -158 -32 -158 -103z" />
    <glyph glyph-name="Cacute" unicode="&#x106;" horiz-adv-x="729" 
d="M649 565c-28 25 -117 74 -215 74c-171 0 -284 -123 -284 -287c0 -162 116 -292 286 -292c92 0 188 48 219 74v-86c-53 -36 -134 -61 -221 -61c-214 0 -366 160 -366 365c0 207 158 360 364 360c72 0 155 -18 217 -59v-88zM338 749l74 126h90l-93 -126h-71z" />
    <glyph glyph-name="cacute" unicode="&#x107;" horiz-adv-x="528" 
d="M234 574l73 126h91l-93 -126h-71zM463 388c-18 18 -79 55 -152 55c-106 0 -190 -77 -190 -191c0 -116 86 -192 192 -192c73 0 143 39 163 61v-82c-22 -19 -91 -50 -165 -50c-150 0 -268 105 -268 261s121 262 268 262c64 0 131 -24 152 -39v-85z" />
    <glyph glyph-name="Ccircumflex" unicode="&#x108;" horiz-adv-x="729" 
d="M649 653v-88c-28 25 -117 74 -215 74c-171 0 -284 -123 -284 -287c0 -162 116 -292 286 -292c92 0 188 48 219 74v-86c-53 -36 -134 -61 -221 -61c-214 0 -366 160 -366 365c0 207 158 360 364 360c72 0 155 -18 217 -59zM286 750l89 126h79l90 -126h-76l-54 80l-51 -80
h-77z" />
    <glyph glyph-name="ccircumflex" unicode="&#x109;" horiz-adv-x="528" 
d="M160 574l89 126h79l90 -126h-76l-54 80l-51 -80h-77zM463 388c-18 18 -79 55 -152 55c-106 0 -190 -77 -190 -191c0 -116 86 -192 192 -192c73 0 143 39 163 61v-82c-22 -19 -91 -50 -165 -50c-150 0 -268 105 -268 261s121 262 268 262c64 0 131 -24 152 -39v-85z" />
    <glyph glyph-name="Cdotaccent" unicode="&#x10a;" horiz-adv-x="729" 
d="M379 769v93h74v-93h-74zM649 653v-88c-28 25 -117 74 -215 74c-171 0 -284 -123 -284 -287c0 -162 116 -292 286 -292c92 0 188 48 219 74v-86c-53 -36 -134 -61 -221 -61c-214 0 -366 160 -366 365c0 207 158 360 364 360c72 0 155 -18 217 -59z" />
    <glyph glyph-name="cdotaccent" unicode="&#x10b;" horiz-adv-x="528" 
d="M253 607v93h74v-93h-74zM463 388c-18 18 -79 55 -152 55c-106 0 -190 -77 -190 -191c0 -116 86 -192 192 -192c73 0 143 39 163 61v-82c-22 -19 -91 -50 -165 -50c-150 0 -268 105 -268 261s121 262 268 262c64 0 131 -24 152 -39v-85z" />
    <glyph glyph-name="Ccaron" unicode="&#x10c;" horiz-adv-x="729" 
d="M371 749l-89 126h76l53 -81l52 81h77l-90 -126h-79zM649 653v-88c-28 25 -117 74 -215 74c-171 0 -284 -123 -284 -287c0 -162 116 -292 286 -292c92 0 188 48 219 74v-86c-53 -36 -134 -61 -221 -61c-214 0 -366 160 -366 365c0 207 158 360 364 360
c72 0 155 -18 217 -59z" />
    <glyph glyph-name="ccaron" unicode="&#x10d;" horiz-adv-x="528" 
d="M245 574l-89 126h76l53 -81l52 81h77l-90 -126h-79zM463 388c-18 18 -79 55 -152 55c-106 0 -190 -77 -190 -191c0 -116 86 -192 192 -192c73 0 143 39 163 61v-82c-22 -19 -91 -50 -165 -50c-150 0 -268 105 -268 261s121 262 268 262c64 0 131 -24 152 -39v-85z" />
    <glyph glyph-name="Dcaron" unicode="&#x10e;" horiz-adv-x="769" 
d="M311 749l-89 126h76l53 -81l52 81h76l-89 -126h-79zM114 0v700h225c211 0 353 -126 353 -348c0 -224 -142 -352 -353 -352h-225zM192 70h140c168 0 279 99 279 282c0 181 -112 277 -279 277h-140v-559z" />
    <glyph glyph-name="dcaron" unicode="&#x10f;" horiz-adv-x="604" 
d="M569 700h75c5 -20 7 -37 7 -53c0 -31 -9 -59 -24 -93h-64c12 32 19 58 19 84c0 17 -3 37 -13 62zM441 750h77v-750h-74v71h-2c-10 -16 -70 -83 -167 -83c-137 0 -229 116 -229 263c0 161 99 262 229 262c93 0 153 -63 167 -81h2l-3 70v248zM286 59c105 0 154 93 156 97
v190c-4 7 -52 97 -156 97c-96 0 -160 -82 -160 -193c0 -103 61 -191 160 -191z" />
    <glyph glyph-name="Dcroat" unicode="&#x110;" horiz-adv-x="777" 
d="M122 0v318h-62v69h62v313h225c211 0 353 -126 353 -348c0 -224 -142 -352 -353 -352h-225zM200 70h140c168 0 279 99 279 282c0 181 -112 277 -279 277h-140v-242h161v-69h-161v-248z" />
    <glyph glyph-name="dcroat" unicode="&#x111;" horiz-adv-x="589" 
d="M441 750h77v-120h66v-59h-66v-571h-74v71h-2c-10 -16 -70 -83 -167 -83c-137 0 -229 116 -229 263c0 161 99 262 229 262c93 0 153 -63 167 -81h2l-3 70v69h-140v59h140v120zM286 59c105 0 154 93 156 97v190c-4 7 -52 97 -156 97c-96 0 -160 -82 -160 -193
c0 -103 61 -191 160 -191z" />
    <glyph glyph-name="Emacron" unicode="&#x112;" horiz-adv-x="597" 
d="M196 821h252v-63h-252v63zM113 0v700h410v-71h-331v-231h279v-71h-279v-257h342v-70h-421z" />
    <glyph glyph-name="emacron" unicode="&#x113;" horiz-adv-x="558" 
d="M157 637v63h252v-63h-252zM482 33c-26 -16 -102 -45 -174 -45c-138 0 -264 86 -264 261c0 164 113 263 249 263c141 0 218 -107 218 -242c0 -10 -1 -22 -2 -33h-383c3 -126 95 -177 183 -177c71 0 149 35 173 54v-81zM128 299h305c-6 98 -65 148 -142 148
c-74 0 -147 -45 -163 -148z" />
    <glyph glyph-name="Ebreve" unicode="&#x114;" horiz-adv-x="597" 
d="M326 743c-66 0 -127 37 -127 113v20h67v-18c0 -41 28 -59 60 -59c31 0 61 18 61 60v17h66v-20c0 -76 -61 -113 -127 -113zM113 0v700h410v-71h-331v-231h279v-71h-279v-257h342v-70h-421z" />
    <glyph glyph-name="ebreve" unicode="&#x115;" horiz-adv-x="558" 
d="M286 572c-65 0 -127 37 -127 113v15h67v-13c0 -41 29 -59 60 -59s61 18 61 60v12h66v-15c0 -76 -61 -113 -127 -113zM509 237h-383c3 -126 95 -177 183 -177c71 0 149 35 173 54v-81c-26 -16 -102 -45 -174 -45c-138 0 -264 86 -264 261c0 164 113 263 249 263
c141 0 218 -107 218 -242c0 -10 -1 -22 -2 -33zM128 299h305c-6 98 -65 148 -142 148c-74 0 -147 -45 -163 -148z" />
    <glyph glyph-name="Edotaccent" unicode="&#x116;" horiz-adv-x="597" 
d="M289 750v93h74v-93h-74zM113 0v700h410v-71h-331v-231h279v-71h-279v-257h342v-70h-421z" />
    <glyph glyph-name="edotaccent" unicode="&#x117;" horiz-adv-x="558" 
d="M256 607v93h73v-93h-73zM509 237h-383c3 -126 95 -177 183 -177c71 0 149 35 173 54v-81c-26 -16 -102 -45 -174 -45c-138 0 -264 86 -264 261c0 164 113 263 249 263c141 0 218 -107 218 -242c0 -10 -1 -22 -2 -33zM128 299h305c-6 98 -65 148 -142 148
c-74 0 -147 -45 -163 -148z" />
    <glyph glyph-name="Eogonek" unicode="&#x118;" horiz-adv-x="597" 
d="M113 0v700h410v-71h-331v-231h279v-71h-279v-257h342v-70c-11 -9 -78 -56 -78 -99c0 -51 68 -44 68 -44v-66s-140 -17 -140 92c0 50 47 95 75 117h-346z" />
    <glyph glyph-name="eogonek" unicode="&#x119;" horiz-adv-x="559" 
d="M309 60c71 0 149 35 173 54v-81c-29 -14 -124 -68 -124 -132c0 -54 71 -45 71 -45v-65s-143 -11 -143 97c0 42 30 79 60 103c-13 -2 -26 -3 -38 -3c-138 0 -264 86 -264 261c0 164 113 263 249 263c141 0 218 -107 218 -242c0 -10 -1 -22 -2 -33h-383
c3 -126 95 -177 183 -177zM128 299h305c-6 98 -65 148 -142 148c-74 0 -147 -45 -163 -148z" />
    <glyph glyph-name="Ecaron" unicode="&#x11a;" horiz-adv-x="597" 
d="M286 749l-89 126h76l53 -81l52 81h77l-90 -126h-79zM113 0v700h410v-71h-331v-231h279v-71h-279v-257h342v-70h-421z" />
    <glyph glyph-name="ecaron" unicode="&#x11b;" horiz-adv-x="558" 
d="M252 574l-89 126h76l53 -81l52 81h77l-90 -126h-79zM309 60c71 0 149 35 173 54v-81c-26 -16 -102 -45 -174 -45c-138 0 -264 86 -264 261c0 164 113 263 249 263c141 0 218 -107 218 -242c0 -10 -1 -22 -2 -33h-383c3 -126 95 -177 183 -177zM128 299h305
c-6 98 -65 148 -142 148c-74 0 -147 -45 -163 -148z" />
    <glyph glyph-name="Gcircumflex" unicode="&#x11c;" horiz-adv-x="777" 
d="M279 750l89 126h79l90 -126h-76l-54 80l-51 -80h-77zM694 363v-289c-28 -23 -124 -86 -265 -86c-214 0 -361 161 -361 367c0 207 157 358 363 358c73 0 160 -18 223 -59v-90c-29 26 -119 75 -220 75c-166 0 -285 -121 -285 -284c0 -162 113 -293 281 -293
c94 0 160 31 188 53v177h-153v71h229z" />
    <glyph glyph-name="gcircumflex" unicode="&#x11d;" horiz-adv-x="601" 
d="M164 574l89 126h79l90 -126h-76l-54 80l-51 -80h-77zM445 500h74v-486c0 -159 -124 -227 -247 -227c-71 0 -142 25 -163 34v82c19 -9 95 -46 161 -46c93 0 173 51 173 157l1 55l-2 1c-14 -18 -73 -78 -166 -78c-130 0 -229 98 -229 259c0 147 92 261 229 261
c97 0 156 -67 167 -83l2 1v70zM287 441c-99 0 -160 -86 -160 -189c0 -111 64 -189 160 -189c104 0 152 88 156 95v186c-2 4 -51 97 -156 97z" />
    <glyph glyph-name="Gbreve" unicode="&#x11e;" horiz-adv-x="777" 
d="M404 743c-65 0 -127 37 -127 113v20h67v-18c0 -41 29 -59 60 -59s61 18 61 60v17h66v-20c0 -76 -61 -113 -127 -113zM694 363v-289c-28 -23 -124 -86 -265 -86c-214 0 -361 161 -361 367c0 207 157 358 363 358c73 0 160 -18 223 -59v-90c-29 26 -119 75 -220 75
c-166 0 -285 -121 -285 -284c0 -162 113 -293 281 -293c94 0 160 31 188 53v177h-153v71h229z" />
    <glyph glyph-name="gbreve" unicode="&#x11f;" horiz-adv-x="601" 
d="M289 572c-65 0 -127 37 -127 113v15h67v-13c0 -41 29 -59 60 -59s61 18 61 60v12h66v-15c0 -76 -61 -113 -127 -113zM445 500h74v-486c0 -159 -124 -227 -247 -227c-71 0 -142 25 -163 34v82c19 -9 95 -46 161 -46c93 0 173 51 173 157l1 55l-2 1
c-14 -18 -73 -78 -166 -78c-130 0 -229 98 -229 259c0 147 92 261 229 261c97 0 156 -67 167 -83l2 1v70zM287 441c-99 0 -160 -86 -160 -189c0 -111 64 -189 160 -189c104 0 152 88 156 95v186c-2 4 -51 97 -156 97z" />
    <glyph glyph-name="Gdotaccent" unicode="&#x120;" horiz-adv-x="777" 
d="M381 749v93h74v-93h-74zM694 363v-289c-28 -23 -124 -86 -265 -86c-214 0 -361 161 -361 367c0 207 157 358 363 358c73 0 160 -18 223 -59v-90c-29 26 -119 75 -220 75c-166 0 -285 -121 -285 -284c0 -162 113 -293 281 -293c94 0 160 31 188 53v177h-153v71h229z" />
    <glyph glyph-name="gdotaccent" unicode="&#x121;" horiz-adv-x="601" 
d="M258 607v93h73v-93h-73zM445 500h74v-486c0 -159 -124 -227 -247 -227c-71 0 -142 25 -163 34v82c19 -9 95 -46 161 -46c93 0 173 51 173 157l1 55l-2 1c-14 -18 -73 -78 -166 -78c-130 0 -229 98 -229 259c0 147 92 261 229 261c97 0 156 -67 167 -83l2 1v70zM287 441
c-99 0 -160 -86 -160 -189c0 -111 64 -189 160 -189c104 0 152 88 156 95v186c-2 4 -51 97 -156 97z" />
    <glyph glyph-name="Gcommaaccent" unicode="&#x122;" horiz-adv-x="777" 
d="M383 -58h76c4 -20 7 -37 7 -53c0 -31 -9 -59 -25 -94h-64c12 32 20 58 20 85c0 16 -4 37 -14 62zM694 363v-289c-28 -23 -124 -86 -265 -86c-214 0 -361 161 -361 367c0 207 157 358 363 358c73 0 160 -18 223 -59v-90c-29 26 -119 75 -220 75
c-166 0 -285 -121 -285 -284c0 -162 113 -293 281 -293c94 0 160 31 188 53v177h-153v71h229z" />
    <glyph glyph-name="gcommaaccent" unicode="&#x123;" horiz-adv-x="601" 
d="M327 560h-75c-4 20 -7 37 -7 52c0 31 9 53 25 88h63c-12 -32 -20 -52 -20 -78c0 -17 4 -37 14 -62zM445 500h74v-486c0 -159 -124 -227 -247 -227c-71 0 -142 25 -163 34v82c19 -9 95 -46 161 -46c93 0 173 51 173 157l1 55l-2 1c-14 -18 -73 -78 -166 -78
c-130 0 -229 98 -229 259c0 147 92 261 229 261c97 0 156 -67 167 -83l2 1v70zM287 63c104 0 152 88 156 95v186c-2 4 -51 97 -156 97c-99 0 -160 -86 -160 -189c0 -111 64 -189 160 -189z" />
    <glyph glyph-name="Hcircumflex" unicode="&#x124;" horiz-adv-x="778" 
d="M256 750l89 126h79l90 -126h-76l-54 80l-51 -80h-77zM114 0v700h78v-309h392v309h78v-700h-78v320h-392v-320h-78z" />
    <glyph glyph-name="hcircumflex" unicode="&#x125;" horiz-adv-x="594" 
d="M-11 780l89 126h79l89 -126h-76l-53 80l-52 -80h-76zM517 320v-320h-76v301c0 79 -25 139 -116 139c-102 0 -169 -98 -169 -98v-342h-77v749h75v-240l-2 -87h2c4 4 80 90 186 90c121 0 177 -64 177 -192z" />
    <glyph glyph-name="Hbar" unicode="&#x126;" horiz-adv-x="792" 
d="M120 0v506h-65v61h65v133h79v-133h388v133h79v-133h64v-61h-64v-506h-79v311h-388v-311h-79zM199 382h388v124h-388v-124z" />
    <glyph glyph-name="hbar" unicode="&#x127;" horiz-adv-x="594" 
d="M517 320v-320h-76v301c0 79 -25 139 -116 139c-102 0 -169 -98 -169 -98v-342h-77v571h-72v59h72v119h75v-119h135v-59h-135v-62l-2 -87h2c4 4 80 90 186 90c121 0 177 -64 177 -192z" />
    <glyph glyph-name="Itilde" unicode="&#x128;" horiz-adv-x="306" 
d="M112 0v700h79v-700h-79zM56 751h-63c0 80 27 125 91 125s82 -65 129 -65c29 0 35 36 35 62h63c0 -82 -29 -125 -91 -125c-64 0 -82 65 -129 65c-29 0 -35 -36 -35 -62z" />
    <glyph glyph-name="itilde" unicode="&#x129;" horiz-adv-x="231" 
d="M76 0v500h77v-500h-77zM20 577h-63c0 79 27 124 91 124s82 -65 129 -65c29 0 35 37 35 62h63c0 -81 -29 -124 -91 -124c-64 0 -82 65 -129 65c-29 0 -35 -36 -35 -62z" />
    <glyph glyph-name="Imacron" unicode="&#x12a;" horiz-adv-x="306" 
d="M112 0v700h79v-700h-79zM27 757v64h252v-64h-252z" />
    <glyph glyph-name="imacron" unicode="&#x12b;" horiz-adv-x="231" 
d="M76 0v500h77v-500h-77zM-10 619v63h251v-63h-251z" />
    <glyph glyph-name="Ibreve" unicode="&#x12c;" horiz-adv-x="306" 
d="M112 0v700h79v-700h-79zM153 743c-65 0 -127 37 -127 113v20h67v-18c0 -41 29 -59 60 -59s61 18 61 60v17h66v-20c0 -76 -61 -113 -127 -113z" />
    <glyph glyph-name="ibreve" unicode="&#x12d;" horiz-adv-x="231" 
d="M76 0v500h77v-500h-77zM115 567c-66 0 -127 37 -127 113v20h67v-18c0 -41 28 -59 60 -59c31 0 61 18 61 60v17h66v-20c0 -76 -61 -113 -127 -113z" />
    <glyph glyph-name="Iogonek" unicode="&#x12e;" horiz-adv-x="306" 
d="M43 -112c0 51 41 93 69 116v696h78v-695c-11 -9 -75 -61 -75 -104c0 -45 66 -43 66 -43v-67s-138 -1 -138 97z" />
    <glyph glyph-name="iogonek" unicode="&#x12f;" horiz-adv-x="232" 
d="M6 -112c0 52 44 93 70 115v497h77v-498c-20 -17 -75 -58 -75 -99c0 -50 62 -45 62 -45v-68s-134 -9 -134 98zM73 607v93h82v-93h-82z" />
    <glyph glyph-name="Idotaccent" unicode="&#x130;" horiz-adv-x="306" 
d="M112 0v700h79v-700h-79zM115 769v93h74v-93h-74z" />
    <glyph glyph-name="dotlessi" unicode="&#x131;" horiz-adv-x="231" 
d="M76 0v500h77v-500h-77z" />
    <glyph glyph-name="IJ" unicode="&#x132;" horiz-adv-x="617" 
d="M282 -5v74c63 0 144 22 144 161v470h80v-470c0 -197 -122 -235 -224 -235zM113 0v700h79v-700h-79z" />
    <glyph glyph-name="ij" unicode="&#x133;" horiz-adv-x="462" 
d="M74 607v93h82v-93h-82zM77 0v500h77v-500h-77zM301 607v93h82v-93h-82zM304 -27v527h76v-538c0 -148 -95 -166 -149 -166c-12 0 -24 2 -33 3v69c5 -1 13 -2 20 -2c36 0 86 15 86 107z" />
    <glyph glyph-name="Jcircumflex" unicode="&#x134;" horiz-adv-x="499" 
d="M195 750l89 126h79l90 -126h-76l-54 80l-51 -80h-77zM309 700h79v-469c0 -158 -87 -243 -217 -243c-36 0 -82 10 -119 32v87c16 -5 73 -41 112 -41c103 0 145 59 145 178v456z" />
    <glyph glyph-name="jcircumflex" unicode="&#x135;" horiz-adv-x="231" 
d="M-15 574l89 126h79l89 -126h-76l-53 80l-52 -80h-76zM76 -35v535h76v-546c0 -149 -95 -158 -149 -158c-12 0 -24 2 -33 3v69c5 -1 13 -2 20 -2c36 0 86 6 86 99z" />
    <glyph glyph-name="Kcommaaccent" unicode="&#x136;" horiz-adv-x="642" 
d="M283 -53h75c5 -20 8 -37 8 -53c0 -31 -9 -59 -25 -94h-64c12 32 19 58 19 85c0 16 -3 37 -13 62zM192 700v-302h4l299 302h96l-331 -328l346 -372h-100l-310 334h-4v-334h-79v700h79z" />
    <glyph glyph-name="kcommaaccent" unicode="&#x137;" horiz-adv-x="502" 
d="M218 -53h75c4 -20 7 -37 7 -52c0 -31 -9 -59 -25 -94h-64c12 32 20 58 20 84c0 17 -3 37 -13 62zM154 750v-452h4l219 202h93l-249 -226l266 -274h-94l-235 244h-4v-244h-76v750h76z" />
    <glyph glyph-name="kgreenlandic" unicode="&#x138;" horiz-adv-x="501" 
d="M154 499v-211h4l216 212h96l-252 -234l269 -266h-98l-231 234h-4v-234h-76v499h76z" />
    <glyph glyph-name="Lacute" unicode="&#x139;" horiz-adv-x="552" 
d="M113 0v700h79v-630h321v-70h-400zM114 749l73 126h90l-93 -126h-70z" />
    <glyph glyph-name="lacute" unicode="&#x13a;" horiz-adv-x="258" 
d="M76 122v627h76v-613c0 -61 28 -70 52 -70c3 0 8 0 20 2l-1 -70c-6 -1 -17 -3 -28 -3c-43 0 -119 14 -119 127zM77 800l73 125h89l-92 -125h-70z" />
    <glyph glyph-name="Lcommaaccent" unicode="&#x13b;" horiz-adv-x="552" 
d="M113 0v700h79v-630h321v-70h-400zM279 -58h75c5 -20 8 -37 8 -53c0 -31 -9 -59 -25 -94h-64c11 32 19 58 19 85c0 16 -3 37 -13 62z" />
    <glyph glyph-name="lcommaaccent" unicode="&#x13c;" horiz-adv-x="247" 
d="M76 122v627h77v-613c0 -61 28 -70 51 -70c4 0 9 0 20 2v-70c-6 -1 -17 -3 -29 -3c-43 0 -119 14 -119 127zM108 -58h75c5 -20 7 -37 7 -52c0 -31 -8 -59 -24 -94h-64c12 32 20 58 20 84c0 17 -4 37 -14 62z" />
    <glyph glyph-name="Lcaron" unicode="&#x13d;" horiz-adv-x="552" 
d="M270 700h76c4 -21 7 -37 7 -53c0 -31 -9 -59 -25 -94h-64c12 32 20 58 20 85c0 16 -4 37 -14 62zM113 0v700h79v-630h321v-70h-400z" />
    <glyph glyph-name="lcaron" unicode="&#x13e;" horiz-adv-x="284" 
d="M204 699h74c5 -20 8 -37 8 -53c0 -31 -9 -59 -25 -93h-64c12 32 20 58 20 84c0 17 -3 37 -13 62zM76 122v627h76v-613c0 -61 28 -70 52 -70c3 0 8 0 20 2v-70c-6 -1 -17 -3 -29 -3c-43 0 -119 14 -119 127z" />
    <glyph glyph-name="Ldot" unicode="&#x13f;" horiz-adv-x="552" 
d="M113 0v700h79v-630h321v-70h-400zM306 326v91h88v-91h-88z" />
    <glyph glyph-name="ldot" unicode="&#x140;" horiz-adv-x="298" 
d="M76 122v627h76v-613c0 -61 29 -70 52 -70c4 0 8 0 20 2v-70c-6 -1 -17 -3 -29 -3c-43 0 -119 14 -119 127zM211 324v91h88v-91h-88z" />
    <glyph glyph-name="Lslash" unicode="&#x141;" horiz-adv-x="583" 
d="M145 0v329l-61 -36v81l61 35v291h78v-245c36 20 77 44 111 63v-82l-111 -63v-303h321v-70h-399z" />
    <glyph glyph-name="lslash" unicode="&#x142;" horiz-adv-x="268" 
d="M12 296v81l80 45v327h76v-283c28 16 60 35 86 49v-81l-86 -49v-249c0 -61 28 -70 51 -70c9 0 21 2 21 2v-70s-14 -3 -29 -3c-43 0 -119 14 -119 127v219z" />
    <glyph glyph-name="Nacute" unicode="&#x143;" horiz-adv-x="792" 
d="M114 0v700h74l347 -479l64 -99h4c-1 21 -4 61 -5 97v481h78v-700h-74l-344 472l-68 105h-3l5 -103v-474h-78zM350 750l73 126h91l-93 -126h-71z" />
    <glyph glyph-name="nacute" unicode="&#x144;" horiz-adv-x="594" 
d="M236 574l74 126h89l-92 -126h-71zM518 321v-321h-77v302c0 84 -30 137 -118 137c-100 0 -167 -103 -167 -103v-336h-77v500h76v-82h2c4 4 70 93 180 93c118 0 181 -64 181 -190z" />
    <glyph glyph-name="Ncommaaccent" unicode="&#x145;" horiz-adv-x="792" 
d="M114 0v700h74l347 -479l64 -99h4c-1 21 -4 61 -5 97v481h78v-700h-74l-344 472l-68 105h-3l5 -103v-474h-78zM349 -53h75c5 -20 7 -37 7 -53c0 -31 -9 -59 -24 -94h-65c12 32 20 58 20 85c0 16 -4 37 -13 62z" />
    <glyph glyph-name="ncommaaccent" unicode="&#x146;" horiz-adv-x="594" 
d="M256 -53h74c5 -20 8 -37 8 -52c0 -31 -9 -59 -25 -94h-64c12 32 20 58 20 84c0 17 -4 37 -13 62zM518 321v-321h-77v302c0 84 -30 137 -118 137c-100 0 -167 -103 -167 -103v-336h-77v500h76v-82h2c4 4 70 93 180 93c118 0 181 -64 181 -190z" />
    <glyph glyph-name="Ncaron" unicode="&#x147;" horiz-adv-x="792" 
d="M114 0v700h74l347 -479l64 -99h4c-1 21 -4 61 -5 97v481h78v-700h-74l-344 472l-68 105h-3l5 -103v-474h-78zM353 749l-89 126h76l53 -81l52 81h76l-89 -126h-79z" />
    <glyph glyph-name="ncaron" unicode="&#x148;" horiz-adv-x="594" 
d="M260 574l-89 126h76l53 -81l52 81h77l-90 -126h-79zM518 321v-321h-77v302c0 84 -30 137 -118 137c-100 0 -167 -103 -167 -103v-336h-77v500h76v-82h2c4 4 70 93 180 93c118 0 181 -64 181 -190z" />
    <glyph glyph-name="napostrophe" unicode="&#x149;" horiz-adv-x="594" 
d="M13 700h74c5 -20 8 -37 8 -53c0 -31 -9 -59 -25 -93h-64c12 32 20 58 20 84c0 17 -4 37 -13 62zM518 321v-321h-77v302c0 84 -30 137 -118 137c-100 0 -167 -103 -167 -103v-336h-77v500h76v-82h2c4 4 70 93 180 93c118 0 181 -64 181 -190z" />
    <glyph glyph-name="Eng" unicode="&#x14a;" horiz-adv-x="792" 
d="M114 0v700h74l347 -479l64 -99h4c-1 21 -4 61 -5 97v481h78v-701c0 -157 -109 -210 -206 -210v77c68 0 127 36 127 141l-339 465l-68 105h-3l5 -103v-474h-78z" />
    <glyph glyph-name="eng" unicode="&#x14b;" horiz-adv-x="594" 
d="M441 -35v337c0 84 -30 137 -118 137c-100 0 -167 -103 -167 -103v-336h-77v500h76v-82h2c4 4 70 93 180 93c118 0 181 -64 181 -190v-367c0 -149 -96 -158 -150 -158c-11 0 -23 2 -32 3v69c4 -1 12 -2 20 -2c35 0 85 6 85 99z" />
    <glyph glyph-name="Omacron" unicode="&#x14c;" horiz-adv-x="859" 
d="M71 355c0 202 153 357 358 357s358 -155 358 -357c0 -207 -153 -367 -358 -367s-358 160 -358 367zM152 355c0 -166 117 -293 277 -293c159 0 277 127 277 293c0 162 -118 283 -277 283c-160 0 -277 -121 -277 -283zM303 767v64h252v-64h-252z" />
    <glyph glyph-name="omacron" unicode="&#x14d;" horiz-adv-x="624" 
d="M46 252c0 149 119 260 266 260c146 0 265 -111 265 -260c0 -152 -119 -264 -265 -264c-147 0 -266 112 -266 264zM125 253c0 -118 84 -196 187 -196s187 80 187 196c0 115 -84 191 -187 191s-187 -81 -187 -191zM184 619v63h251v-63h-251z" />
    <glyph glyph-name="Obreve" unicode="&#x14e;" horiz-adv-x="859" 
d="M71 354c0 202 153 359 358 359s358 -157 358 -359c0 -207 -153 -366 -358 -366s-358 159 -358 366zM152 354c0 -167 118 -293 277 -293c160 0 277 126 277 293c0 161 -117 286 -277 286c-159 0 -277 -125 -277 -286zM428 743c-66 0 -127 37 -127 113v20h67v-18
c0 -41 28 -59 60 -59c31 0 61 18 61 60v17h66v-20c0 -76 -61 -113 -127 -113z" />
    <glyph glyph-name="obreve" unicode="&#x14f;" horiz-adv-x="624" 
d="M46 252c0 149 119 260 266 260c146 0 265 -111 265 -260c0 -152 -119 -264 -265 -264c-147 0 -266 112 -266 264zM125 253c0 -118 84 -196 187 -196s187 80 187 196c0 115 -84 191 -187 191s-187 -81 -187 -191zM312 572c-65 0 -127 37 -127 113v15h67v-13
c0 -41 29 -59 60 -59s61 18 61 60v12h66v-15c0 -76 -61 -113 -127 -113z" />
    <glyph glyph-name="Ohungarumlaut" unicode="&#x150;" horiz-adv-x="859" 
d="M71 354c0 202 153 359 358 359s358 -157 358 -359c0 -207 -153 -366 -358 -366s-358 159 -358 366zM152 354c0 -167 118 -293 277 -293c160 0 277 126 277 293c0 161 -117 286 -277 286c-159 0 -277 -125 -277 -286zM434 749l73 126h89l-93 -126h-69zM301 749l71 126h85
l-86 -126h-70z" />
    <glyph glyph-name="ohungarumlaut" unicode="&#x151;" horiz-adv-x="624" 
d="M46 252c0 149 119 260 266 260c146 0 265 -111 265 -260c0 -152 -119 -264 -265 -264c-147 0 -266 112 -266 264zM125 253c0 -118 84 -196 187 -196s187 80 187 196c0 115 -84 191 -187 191s-187 -81 -187 -191zM320 574l73 126h89l-93 -126h-69zM187 574l71 126h85
l-86 -126h-70z" />
    <glyph glyph-name="OE" unicode="&#x152;" horiz-adv-x="978" 
d="M70 350c0 203 150 359 358 359c39 0 84 -9 118 -9h347v-71h-322v-241h264v-71h-264v-247h340v-70h-364c-35 -1 -80 -10 -119 -10c-208 0 -358 157 -358 360zM151 350c0 -164 111 -288 277 -288c31 0 65 6 65 6v563c-4 1 -31 7 -65 7c-166 0 -277 -125 -277 -288z" />
    <glyph glyph-name="oe" unicode="&#x153;" horiz-adv-x="1023" 
d="M955 237h-382c3 -126 94 -177 182 -177c72 0 149 35 173 54v-81c-26 -16 -102 -45 -173 -45c-96 0 -182 43 -228 125h-2c-43 -76 -123 -125 -218 -125c-147 0 -261 112 -261 264c0 149 114 260 261 260c95 0 175 -50 219 -125h2c43 79 121 125 212 125
c141 0 217 -107 217 -242c0 -10 -1 -22 -2 -33zM125 253c0 -118 79 -196 182 -196s182 80 182 196c0 115 -79 191 -182 191s-182 -81 -182 -191zM738 447c-74 0 -147 -45 -164 -148h305c-5 98 -65 148 -141 148z" />
    <glyph glyph-name="Racute" unicode="&#x154;" horiz-adv-x="662" 
d="M271 749l74 126h90l-93 -126h-71zM113 0v700h241c127 0 224 -73 224 -201c0 -111 -74 -182 -173 -200c61 -89 141 -205 207 -299h-98l-194 293h-128v-293h-79zM192 363h154c89 0 152 46 152 135c0 88 -63 131 -152 131h-154v-266z" />
    <glyph glyph-name="racute" unicode="&#x155;" horiz-adv-x="358" 
d="M162 574l73 126h90l-92 -126h-71zM335 507v-82c-9 3 -19 4 -29 4c-76 0 -132 -84 -152 -113v-316h-77v500h76v-94l2 -1c19 30 72 104 154 104c7 0 18 -1 26 -2z" />
    <glyph glyph-name="Rcommaaccent" unicode="&#x156;" horiz-adv-x="663" 
d="M295 -53h75c5 -20 8 -37 8 -53c0 -31 -9 -59 -25 -94h-64c12 32 19 58 19 85c0 16 -3 37 -13 62zM113 0v700h241c127 0 224 -73 224 -201c0 -111 -74 -182 -173 -200c61 -89 141 -205 207 -299h-98l-194 293h-128v-293h-79zM192 363h154c89 0 152 46 152 135
c0 88 -63 131 -152 131h-154v-266z" />
    <glyph glyph-name="rcommaaccent" unicode="&#x157;" horiz-adv-x="360" 
d="M79 -53h75c4 -20 7 -37 7 -52c0 -31 -9 -59 -25 -94h-63c11 32 19 58 19 84c0 17 -3 37 -13 62zM337 507v-82c-8 3 -18 4 -27 4c-76 0 -133 -84 -154 -113v-316h-77v500h76v-94l2 -1c19 30 71 104 154 104c7 0 18 -1 26 -2z" />
    <glyph glyph-name="Rcaron" unicode="&#x158;" horiz-adv-x="662" 
d="M284 749l-89 126h76l53 -81l52 81h76l-89 -126h-79zM113 0v700h241c127 0 224 -73 224 -201c0 -111 -74 -182 -173 -200c61 -89 141 -205 207 -299h-98l-194 293h-128v-293h-79zM192 363h154c89 0 152 46 152 135c0 88 -63 131 -152 131h-154v-266z" />
    <glyph glyph-name="rcaron" unicode="&#x159;" horiz-adv-x="366" 
d="M172 574l-89 126h76l53 -81l52 81h77l-90 -126h-79zM339 507v-82c-7 2 -17 3 -25 3c-76 0 -134 -82 -155 -112v-316h-77v500h75v-94l3 -1c18 30 69 104 153 104c7 0 18 -1 26 -2z" />
    <glyph glyph-name="Sacute" unicode="&#x15a;" horiz-adv-x="599" 
d="M244 749l74 126h90l-93 -126h-71zM159 537c0 -151 375 -137 375 -355c0 -112 -98 -194 -247 -194c-76 0 -165 28 -215 59v93c32 -28 136 -77 220 -77c90 0 160 44 160 113c0 172 -376 147 -376 358c0 122 104 181 237 181c73 0 157 -32 181 -46v-88
c-23 17 -112 62 -190 62c-75 0 -145 -33 -145 -106z" />
    <glyph glyph-name="sacute" unicode="&#x15b;" horiz-adv-x="460" 
d="M174 574l73 126h90l-92 -126h-71zM130 379c0 -114 292 -65 292 -247c0 -88 -86 -144 -196 -144c-100 0 -173 43 -173 43v83s83 -57 182 -57c57 0 107 25 107 73c0 124 -289 75 -289 245c0 95 83 139 185 139c85 0 152 -33 152 -33v-80s-75 45 -160 45
c-55 0 -100 -17 -100 -67z" />
    <glyph glyph-name="Scircumflex" unicode="&#x15c;" horiz-adv-x="599" 
d="M165 750l89 126h79l90 -126h-76l-54 80l-51 -80h-77zM159 537c0 -151 375 -137 375 -355c0 -112 -98 -194 -247 -194c-76 0 -165 28 -215 59v93c32 -28 136 -77 220 -77c90 0 160 44 160 113c0 172 -376 147 -376 358c0 122 104 181 237 181c73 0 157 -32 181 -46v-88
c-23 17 -112 62 -190 62c-75 0 -145 -33 -145 -106z" />
    <glyph glyph-name="scircumflex" unicode="&#x15d;" horiz-adv-x="460" 
d="M102 574l89 126h79l89 -126h-76l-53 80l-52 -80h-76zM130 379c0 -114 292 -65 292 -247c0 -88 -86 -144 -196 -144c-100 0 -173 43 -173 43v83s83 -57 182 -57c57 0 107 25 107 73c0 124 -289 75 -289 245c0 95 83 139 185 139c85 0 152 -33 152 -33v-80s-75 45 -160 45
c-55 0 -100 -17 -100 -67z" />
    <glyph glyph-name="Scedilla" unicode="&#x15e;" horiz-adv-x="599" 
d="M262 -11c-70 5 -146 29 -190 58v93c32 -28 136 -77 220 -77c90 0 160 44 160 113c0 172 -376 147 -376 358c0 122 104 181 237 181c73 0 157 -32 181 -46v-88c-23 17 -112 62 -190 62c-75 0 -145 -33 -145 -106c0 -151 375 -137 375 -355c0 -106 -88 -184 -221 -193
l-8 -36c43 -6 73 -38 73 -78c0 -61 -47 -88 -97 -88c-17 0 -37 2 -56 6v56c13 -5 30 -8 47 -8c27 0 47 12 47 35c0 18 -18 34 -52 34h-23z" />
    <glyph glyph-name="scedilla" unicode="&#x15f;" horiz-adv-x="446" 
d="M238 514c85 0 152 -33 152 -33v-80s-75 45 -160 45c-55 0 -100 -17 -100 -67c0 -114 292 -65 292 -247c0 -82 -75 -137 -175 -143l-7 -36c44 -6 74 -38 74 -78c0 -61 -47 -88 -98 -88c-16 0 -37 2 -55 6v56c13 -5 30 -8 47 -8c27 0 46 12 46 35c0 18 -18 34 -52 34h-22
l17 79c-85 7 -144 42 -144 42v83s83 -57 182 -57c57 0 107 25 107 73c0 124 -289 75 -289 245c0 95 83 139 185 139z" />
    <glyph glyph-name="Scaron" unicode="&#x160;" horiz-adv-x="599" 
d="M259 749l-89 126h76l53 -81l52 81h77l-90 -126h-79zM159 537c0 -151 375 -137 375 -355c0 -112 -98 -194 -247 -194c-76 0 -165 28 -215 59v93c32 -28 136 -77 220 -77c90 0 160 44 160 113c0 172 -376 147 -376 358c0 122 104 181 237 181c73 0 157 -32 181 -46v-88
c-23 17 -112 62 -190 62c-75 0 -145 -33 -145 -106z" />
    <glyph glyph-name="scaron" unicode="&#x161;" horiz-adv-x="460" 
d="M190 574l-89 126h76l53 -81l52 81h76l-89 -126h-79zM130 379c0 -114 292 -65 292 -247c0 -88 -86 -144 -196 -144c-100 0 -173 43 -173 43v83s83 -57 182 -57c57 0 107 25 107 73c0 124 -289 75 -289 245c0 95 83 139 185 139c85 0 152 -33 152 -33v-80s-75 45 -160 45
c-55 0 -100 -17 -100 -67z" />
    <glyph glyph-name="Tcommaaccent" unicode="&#x162;" horiz-adv-x="630" 
d="M275 1v628h-242v71h563v-71h-243v-629h-27l-10 -47c43 -6 73 -38 73 -78c0 -61 -47 -88 -97 -88c-17 0 -37 2 -56 6v56c13 -5 30 -8 47 -8c27 0 47 12 47 35c0 18 -18 34 -52 34h-23z" />
    <glyph glyph-name="tcommaaccent" unicode="&#x163;" horiz-adv-x="326" 
d="M94 163v270h-65v66h66v140h76v-140h124v-66h-124v-266c0 -96 54 -103 92 -103c18 0 34 4 38 5v-70c-2 -1 -26 -7 -50 -7c-14 0 -31 0 -48 3l-8 -42c43 -6 73 -38 73 -78c0 -61 -47 -88 -97 -88c-17 0 -37 2 -56 6v56c13 -5 30 -8 47 -8c27 0 47 12 47 35
c0 18 -18 34 -52 34h-23l23 100c-35 20 -63 63 -63 153z" />
    <glyph glyph-name="Tcaron" unicode="&#x164;" horiz-adv-x="630" 
d="M275 0v629h-242v71h563v-71h-243v-629h-78zM275 749l-89 126h76l53 -81l52 81h77l-90 -126h-79z" />
    <glyph glyph-name="tcaron" unicode="&#x165;" horiz-adv-x="351" 
d="M236 700h75c5 -20 7 -37 7 -52c0 -31 -9 -59 -24 -93h-64c12 32 19 58 19 83c0 17 -3 37 -13 62zM94 163v270h-65v66h66v140h76v-140h124v-66h-124v-266c0 -96 54 -103 92 -103c18 0 34 4 38 5v-70c-2 -1 -26 -7 -50 -7c-59 0 -157 2 -157 171z" />
    <glyph glyph-name="Tbar" unicode="&#x166;" horiz-adv-x="635" 
d="M278 0v319h-164v66h164v244h-243v71h563v-71h-242v-244h159v-66h-159v-319h-78z" />
    <glyph glyph-name="tbar" unicode="&#x167;" horiz-adv-x="330" 
d="M30 272v62h66v99h-65v66h66v140h76v-140h124v-66h-124v-99h123v-62h-123v-103c0 -96 54 -105 92 -105c22 0 38 5 38 5v-70s-24 -7 -50 -7c-59 0 -157 4 -157 173v107h-66z" />
    <glyph glyph-name="Utilde" unicode="&#x168;" horiz-adv-x="753" 
d="M106 246v454h78v-449c0 -116 75 -189 191 -189s193 73 193 191v447h78v-454c0 -156 -111 -258 -271 -258s-269 102 -269 258zM224 751c0 80 27 125 91 125s82 -65 129 -65c29 0 35 36 35 62h63c0 -82 -29 -125 -91 -125c-64 0 -82 65 -129 65c-29 0 -35 -36 -35 -62h-63z
" />
    <glyph glyph-name="utilde" unicode="&#x169;" horiz-adv-x="588" 
d="M135 577c0 79 27 124 91 124s81 -65 129 -65c29 0 35 37 35 62h62c0 -81 -29 -124 -90 -124c-65 0 -82 65 -130 65c-28 0 -34 -36 -34 -62h-63zM75 182v318h77v-299c0 -84 31 -140 118 -140c100 0 165 103 165 103v336h77v-500h-76v81h-3c-5 -6 -68 -93 -177 -93
c-118 0 -181 68 -181 194z" />
    <glyph glyph-name="Umacron" unicode="&#x16a;" horiz-adv-x="753" 
d="M106 246v454h78v-449c0 -116 75 -189 191 -189s193 73 193 191v447h78v-454c0 -156 -111 -258 -271 -258s-269 102 -269 258zM250 757v64h252v-64h-252z" />
    <glyph glyph-name="umacron" unicode="&#x16b;" horiz-adv-x="588" 
d="M168 637v63h250v-63h-250zM75 182v318h77v-299c0 -84 31 -140 118 -140c100 0 165 103 165 103v336h77v-500h-76v81h-3c-5 -6 -68 -93 -177 -93c-118 0 -181 68 -181 194z" />
    <glyph glyph-name="Ubreve" unicode="&#x16c;" horiz-adv-x="753" 
d="M106 246v454h78v-449c0 -116 75 -189 191 -189s193 73 193 191v447h78v-454c0 -156 -111 -258 -271 -258s-269 102 -269 258zM378 743c-65 0 -127 37 -127 113v20h67v-18c0 -41 29 -59 60 -59s61 18 61 60v17h66v-20c0 -76 -61 -113 -127 -113z" />
    <glyph glyph-name="ubreve" unicode="&#x16d;" horiz-adv-x="588" 
d="M293 572c-65 0 -127 37 -127 113v15h67v-13c0 -41 29 -59 60 -59s61 18 61 60v12h66v-15c0 -76 -61 -113 -127 -113zM75 182v318h77v-299c0 -84 31 -140 118 -140c100 0 165 103 165 103v336h77v-500h-76v81h-3c-5 -6 -68 -93 -177 -93c-118 0 -181 68 -181 194z" />
    <glyph glyph-name="Uring" unicode="&#x16e;" horiz-adv-x="753" 
d="M106 246v454h78v-449c0 -116 75 -189 191 -189s193 73 193 191v447h78v-454c0 -156 -111 -258 -271 -258s-269 102 -269 258zM376 737c-43 0 -79 30 -79 74c0 45 36 74 79 74s79 -29 79 -74c0 -44 -36 -74 -79 -74zM376 778c20 0 33 14 33 33c0 21 -13 35 -33 35
s-33 -14 -33 -35c0 -19 13 -33 33 -33z" />
    <glyph glyph-name="uring" unicode="&#x16f;" horiz-adv-x="588" 
d="M291 563c-43 0 -79 30 -79 74c0 45 36 74 79 74s79 -29 79 -74c0 -44 -36 -74 -79 -74zM291 604c20 0 33 14 33 33c0 21 -13 35 -33 35s-33 -14 -33 -35c0 -19 13 -33 33 -33zM75 182v318h77v-299c0 -84 31 -140 118 -140c100 0 165 103 165 103v336h77v-500h-76v81h-3
c-5 -6 -68 -93 -177 -93c-118 0 -181 68 -181 194z" />
    <glyph glyph-name="Uhungarumlaut" unicode="&#x170;" horiz-adv-x="753" 
d="M392 749l74 126h88l-93 -126h-69zM259 749l71 126h86l-86 -126h-71zM106 246v454h78v-449c0 -116 75 -189 191 -189s193 73 193 191v447h78v-454c0 -156 -111 -258 -271 -258s-269 102 -269 258z" />
    <glyph glyph-name="uhungarumlaut" unicode="&#x171;" horiz-adv-x="588" 
d="M75 182v318h77v-299c0 -84 31 -140 118 -140c100 0 165 103 165 103v336h77v-500h-76v81h-3c-5 -6 -68 -93 -177 -93c-118 0 -181 68 -181 194zM308 574l74 126h88l-93 -126h-69zM175 574l71 126h86l-86 -126h-71z" />
    <glyph glyph-name="Uogonek" unicode="&#x172;" horiz-adv-x="753" 
d="M106 246v454h78v-449c0 -116 75 -189 191 -189s193 73 193 191v447h78v-454c0 -131 -80 -211 -177 -243c-42 -29 -82 -62 -82 -102c0 -45 66 -45 66 -45v-65s-138 -4 -138 97c0 42 27 77 54 102c-148 3 -263 98 -263 256z" />
    <glyph glyph-name="uogonek" unicode="&#x173;" horiz-adv-x="588" 
d="M75 182v318h77v-299c0 -84 31 -140 118 -140c100 0 165 103 165 103v336h77v-500c-19 -14 -80 -58 -80 -99c0 -49 66 -44 66 -44v-66s-138 -6 -138 97c0 53 45 94 76 116v77h-3c-5 -6 -68 -93 -177 -93c-118 0 -181 68 -181 194z" />
    <glyph glyph-name="Wcircumflex" unicode="&#x174;" horiz-adv-x="967" 
d="M354 750l89 126h79l90 -126h-76l-54 80l-51 -80h-77zM228 0l-180 700h83l121 -477l25 -126h3l29 128l134 475h73l132 -476l28 -127h4c6 25 14 77 27 126l127 477h81l-190 -700h-89l-124 445l-31 138h-4c-8 -31 -18 -87 -32 -138l-125 -445h-92z" />
    <glyph glyph-name="wcircumflex" unicode="&#x175;" horiz-adv-x="830" 
d="M201 0l-172 500h82l109 -332c11 -40 24 -90 24 -90h2s13 50 24 90l108 331h74l110 -335c11 -38 23 -85 23 -85h2s12 45 23 85l109 336h81l-171 -500h-82l-110 319c-10 36 -22 81 -22 81h-2s-12 -45 -22 -81l-109 -319h-81zM284 574l89 126h79l89 -126h-76l-53 80l-52 -80
h-76z" />
    <glyph glyph-name="Ycircumflex" unicode="&#x176;" horiz-adv-x="627" 
d="M185 750l89 126h79l89 -126h-76l-53 80l-52 -80h-76zM274 0v298l-243 402h93l143 -238l48 -93h3l49 93l142 238h86l-243 -402v-298h-78z" />
    <glyph glyph-name="ycircumflex" unicode="&#x177;" horiz-adv-x="526" 
d="M131 574l89 126h79l90 -126h-76l-54 80l-51 -80h-77zM20 500h85l127 -312c19 -50 35 -98 35 -98h2s15 49 33 100l122 310h80c-43 -103 -171 -420 -243 -596c-34 -84 -89 -110 -144 -110c-17 0 -33 5 -38 6v72c5 -1 18 -4 32 -4c44 0 73 27 94 82c8 22 16 44 22 58z" />
    <glyph glyph-name="Ydieresis" unicode="&#x178;" horiz-adv-x="627" 
d="M359 750v94h70v-94h-70zM209 750v94h70v-94h-70zM274 0v298l-243 402h93l143 -238l48 -93h3l49 93l142 238h86l-243 -402v-298h-78z" />
    <glyph glyph-name="Zacute" unicode="&#x179;" horiz-adv-x="619" 
d="M260 750l74 126h90l-93 -126h-71zM49 0v54l356 505l57 71l-1 3l-81 -4h-312v71h488v-54l-354 -503l-59 -73l2 -3l79 3h335v-70h-510z" />
    <glyph glyph-name="zacute" unicode="&#x17a;" horiz-adv-x="499" 
d="M36 0v50l260 323c26 29 55 59 55 59l-1 2s-27 -1 -76 -3h-226v69h403v-51l-256 -317c-27 -32 -59 -66 -59 -66l1 -1s29 2 79 3h245v-68h-425zM200 574l73 126h89l-92 -126h-70z" />
    <glyph glyph-name="Zdotaccent" unicode="&#x17b;" horiz-adv-x="619" 
d="M274 750v93h74v-93h-74zM49 0v54l356 505l57 71l-1 3l-81 -4h-312v71h488v-54l-354 -503l-59 -73l2 -3l79 3h335v-70h-510z" />
    <glyph glyph-name="zdotaccent" unicode="&#x17c;" horiz-adv-x="499" 
d="M36 0v50l260 323c26 29 55 59 55 59l-1 2s-27 -1 -76 -3h-226v69h403v-51l-256 -317c-27 -32 -59 -66 -59 -66l1 -1s29 2 79 3h245v-68h-425zM210 607v93h74v-93h-74z" />
    <glyph glyph-name="Zcaron" unicode="&#x17d;" horiz-adv-x="619" 
d="M271 749l-89 126h76l53 -81l52 81h77l-90 -126h-79zM49 0v54l356 505l57 71l-1 3l-81 -4h-312v71h488v-54l-354 -503l-59 -73l2 -3l79 3h335v-70h-510z" />
    <glyph glyph-name="zcaron" unicode="&#x17e;" horiz-adv-x="499" 
d="M36 0v50l260 323c26 29 55 59 55 59l-1 2s-27 -1 -76 -3h-226v69h403v-51l-256 -317c-27 -32 -59 -66 -59 -66l1 -1s29 2 79 3h245v-68h-425zM211 574l-89 126h76l53 -81l52 81h77l-90 -126h-79z" />
    <glyph glyph-name="longs" unicode="&#x17f;" horiz-adv-x="295" 
d="M95 0v433h-62v66h62v77c0 166 118 180 175 180c13 0 23 -1 35 -3v-69c-6 1 -18 3 -27 3c-37 0 -107 -5 -107 -111v-576h-76z" />
    <glyph glyph-name="florin" unicode="&#x192;" horiz-adv-x="568" 
d="M32 -27c0 0 37 -6 67 -6c36 0 106 11 115 120l24 271h-87v65h92l10 101c15 166 135 187 193 187c40 0 85 -7 85 -7v-69s-48 7 -84 7c-37 0 -107 -14 -116 -122l-10 -97h123v-65h-129c-8 -91 -15 -185 -24 -276c-15 -167 -134 -186 -191 -186c-36 0 -68 6 -68 6v71z" />
    <glyph glyph-name="Scommaaccent" unicode="&#x218;" horiz-adv-x="599" 
d="M260 -58h75c5 -20 8 -37 8 -53c0 -31 -9 -59 -25 -94h-64c12 32 20 58 20 85c0 16 -4 37 -14 62zM159 537c0 -151 375 -137 375 -355c0 -112 -98 -194 -247 -194c-76 0 -165 28 -215 59v93c32 -28 136 -77 220 -77c90 0 160 44 160 113c0 172 -376 147 -376 358
c0 122 104 181 237 181c73 0 157 -32 181 -46v-88c-23 17 -112 62 -190 62c-75 0 -145 -33 -145 -106z" />
    <glyph glyph-name="scommaaccent" unicode="&#x219;" horiz-adv-x="460" 
d="M188 -58h75c5 -20 7 -37 7 -52c0 -31 -9 -59 -24 -94h-64c12 32 20 58 20 84c0 17 -4 37 -14 62zM130 379c0 -114 292 -65 292 -247c0 -88 -86 -144 -196 -144c-100 0 -173 43 -173 43v83s83 -57 182 -57c57 0 107 25 107 73c0 124 -289 75 -289 245c0 95 83 139 185 139
c85 0 152 -33 152 -33v-80s-75 45 -160 45c-55 0 -100 -17 -100 -67z" />
    <glyph glyph-name="uni021A" unicode="&#x21a;" horiz-adv-x="630" 
d="M275 0v629h-242v71h563v-71h-243v-629h-78zM275 -53h75c5 -20 7 -37 7 -53c0 -31 -9 -59 -25 -94h-64c12 32 20 58 20 85c0 16 -4 37 -13 62z" />
    <glyph glyph-name="uni021B" unicode="&#x21b;" horiz-adv-x="326" 
d="M161 -58h75c5 -20 7 -37 7 -52c0 -31 -9 -59 -24 -94h-64c12 32 19 58 19 84c0 17 -3 37 -13 62zM94 163v270h-65v66h66v140h76v-140h124v-66h-124v-266c0 -96 54 -103 92 -103c18 0 34 4 38 5v-70c-2 -1 -26 -7 -50 -7c-59 0 -157 2 -157 171z" />
    <glyph glyph-name="circumflex" unicode="&#x2c6;" horiz-adv-x="503" 
d="M121 750l89 126h79l90 -126h-76l-54 80l-51 -80h-77z" />
    <glyph glyph-name="caron" unicode="&#x2c7;" horiz-adv-x="503" 
d="M210 749l-89 126h76l53 -81l52 81h77l-90 -126h-79z" />
    <glyph glyph-name="breve" unicode="&#x2d8;" horiz-adv-x="504" 
d="M251 743c-66 0 -127 37 -127 113v20h67v-18c0 -41 28 -59 60 -59c31 0 61 18 61 60v17h66v-20c0 -76 -61 -113 -127 -113z" />
    <glyph glyph-name="dotaccent" unicode="&#x2d9;" horiz-adv-x="505" 
d="M214 750v93h74v-93h-74z" />
    <glyph glyph-name="ring" unicode="&#x2da;" horiz-adv-x="505" 
d="M251 737c-44 0 -80 30 -80 74c0 45 36 74 80 74c43 0 79 -29 79 -74c0 -44 -36 -74 -79 -74zM251 778c20 0 32 14 32 33c0 21 -12 35 -32 35s-33 -14 -33 -35c0 -19 13 -33 33 -33z" />
    <glyph glyph-name="ogonek" unicode="&#x2db;" horiz-adv-x="504" 
d="M173 -112c0 82 105 137 105 137l56 -15s-89 -60 -89 -109c0 -51 66 -44 66 -44v-66s-138 -10 -138 97z" />
    <glyph glyph-name="tilde" unicode="&#x2dc;" horiz-adv-x="504" 
d="M154 751h-63c0 80 27 125 91 125s82 -65 129 -65c29 0 35 36 35 62h63c0 -82 -29 -125 -91 -125c-64 0 -82 65 -129 65c-29 0 -35 -36 -35 -62z" />
    <glyph glyph-name="hungarumlaut" unicode="&#x2dd;" horiz-adv-x="504" 
d="M237 749l73 126h89l-93 -126h-69zM104 749l71 126h85l-86 -126h-70z" />
    <glyph glyph-name="uni1E9E" unicode="&#x1e9e;" horiz-adv-x="666" 
d="M91 0v510c0 107 82 190 190 190h305v-54l-142 -200c-23 -30 -34 -44 -34 -44v-3h23c104 -4 182 -94 182 -197c0 -111 -90 -202 -202 -202h-153v70h148c75 0 127 61 127 132s-52 130 -125 130h-94v56l128 181c32 44 45 58 45 58l-1 3s-7 -1 -47 -1h-155
c-68 0 -116 -52 -116 -118v-511h-79z" />
    <glyph glyph-name="endash" unicode="&#x2013;" horiz-adv-x="650" 
d="M72 251v67h502v-67h-502z" />
    <glyph glyph-name="emdash" unicode="&#x2014;" horiz-adv-x="850" 
d="M72 251v67h700v-67h-700z" />
    <glyph glyph-name="quoteleft" unicode="&#x2018;" horiz-adv-x="239" 
d="M60 529l65 220h63l-46 -220h-82z" />
    <glyph glyph-name="quoteright" unicode="&#x2019;" horiz-adv-x="234" 
d="M64 528l46 221h82l-65 -221h-63z" />
    <glyph glyph-name="quotesinglbase" unicode="&#x201a;" horiz-adv-x="251" 
d="M52 -89l45 221h82l-64 -221h-63z" />
    <glyph glyph-name="quotedblleft" unicode="&#x201c;" horiz-adv-x="359" 
d="M180 528l63 221h63l-45 -221h-81zM56 528l63 221h63l-45 -221h-81z" />
    <glyph glyph-name="quotedblright" unicode="&#x201d;" horiz-adv-x="355" 
d="M184 528l45 221h82l-64 -221h-63zM60 528l45 221h82l-64 -221h-63z" />
    <glyph glyph-name="quotedblbase" unicode="&#x201e;" horiz-adv-x="370" 
d="M176 -89l46 221h82l-65 -221h-63zM52 -89l46 221h82l-64 -221h-64z" />
    <glyph glyph-name="dagger" unicode="&#x2020;" horiz-adv-x="402" 
d="M160 -100v533h-116v67h116v200h76v-200h119v-67h-119v-533h-76z" />
    <glyph glyph-name="daggerdbl" unicode="&#x2021;" horiz-adv-x="428" 
d="M57 191v67h116v175h-116v67h116v200h75v-200h120v-67h-120v-175h120v-67h-120v-291h-75v291h-116z" />
    <glyph glyph-name="bullet" unicode="&#x2022;" horiz-adv-x="460" 
d="M230 147c-79 0 -143 65 -143 144s64 143 143 143s143 -64 143 -143s-64 -144 -143 -144z" />
    <glyph glyph-name="ellipsis" unicode="&#x2026;" horiz-adv-x="702" 
d="M537 0v91h89v-91h-89zM304 0v91h89v-91h-89zM71 0v91h88v-91h-88z" />
    <glyph glyph-name="perthousand" unicode="&#x2030;" horiz-adv-x="1050" 
d="M197 426c-79 0 -143 64 -143 142s64 142 143 142c80 0 144 -64 144 -142s-64 -142 -144 -142zM56 0l535 700h83l-535 -700h-83zM197 491c43 0 76 34 76 77s-33 78 -76 78s-75 -35 -75 -78s32 -77 75 -77zM721 129c0 78 64 142 143 142c80 0 145 -64 145 -142
s-65 -141 -145 -141c-79 0 -143 63 -143 141zM389 129c0 78 63 142 143 142c79 0 144 -64 144 -142s-65 -141 -144 -141c-80 0 -143 63 -143 141zM790 129c0 -42 32 -76 74 -76c43 0 76 34 76 76c0 43 -33 78 -76 78c-42 0 -74 -35 -74 -78zM457 129c0 -42 32 -76 75 -76
s75 34 75 76c0 43 -32 78 -75 78s-75 -35 -75 -78z" />
    <glyph glyph-name="guilsinglleft" unicode="&#x2039;" horiz-adv-x="346" 
d="M210 79l-166 207l166 208h85l-165 -208c53 -67 112 -141 165 -207h-85z" />
    <glyph glyph-name="guilsinglright" unicode="&#x203a;" horiz-adv-x="346" 
d="M48 79l166 207l-166 208h86l165 -208l-165 -207h-86z" />
    <glyph glyph-name="fraction" unicode="&#x2044;" horiz-adv-x="159" 
d="M-54 0h-68l336 700h67z" />
    <glyph glyph-name="Euro" unicode="&#x20ac;" horiz-adv-x="568" 
d="M23 262v60h54c-3 18 -2 49 0 70h-54v60h65c40 152 172 263 335 263c33 0 66 -4 99 -13l-18 -74c-27 8 -56 12 -82 12c-122 0 -216 -76 -250 -188h300l-12 -60h-301c-4 -22 -4 -48 -2 -70h290l-11 -60h-265c31 -118 124 -199 249 -199c26 0 74 5 105 14v-74
c-31 -10 -74 -15 -105 -15c-170 0 -298 114 -334 274h-63z" />
    <glyph glyph-name="trademark" unicode="&#x2122;" horiz-adv-x="981" 
d="M474 299v401h64l115 -196l34 -61h2l32 60l122 197h62v-401h-64v229l3 69h-2l-38 -64l-103 -169h-27l-102 173l-35 57h-2l3 -87v-208h-64zM220 299v342h-154v59h371v-59h-153v-342h-64z" />
    <glyph glyph-name="minus" unicode="&#x2212;" horiz-adv-x="568" 
d="M28 251v67h509v-67h-509z" />
    <glyph glyph-name="infinity" unicode="&#x221e;" horiz-adv-x="471" 
d="M235 175c-95 0 -173 78 -173 174s78 172 173 172c96 0 173 -76 173 -172s-77 -174 -173 -174z" />
    <glyph glyph-name="approxequal" unicode="&#x2248;" horiz-adv-x="568" 
d="M72 315l-37 50c34 35 89 73 149 73c90 0 123 -69 196 -69c41 0 84 27 112 57l37 -51c-33 -35 -89 -73 -149 -73c-91 0 -123 70 -196 70c-41 0 -83 -28 -112 -57zM72 143l-37 51c34 34 89 71 149 71c91 0 123 -69 196 -69c41 0 84 28 112 58l37 -51
c-33 -35 -89 -72 -149 -72c-91 0 -123 69 -196 69c-41 0 -83 -28 -112 -57z" />
    <glyph glyph-name="notequal" unicode="&#x2260;" horiz-adv-x="568" 
d="M100 84l60 81h-113v67h159l79 105h-238v67h284l86 116l48 -33l-61 -83h112v-67h-159l-78 -105h237v-67h-283l-83 -114z" />
    <glyph glyph-name="lessequal" unicode="&#x2264;" horiz-adv-x="568" 
d="M48 257v56l455 203v-77l-356 -155l356 -155v-76zM48 -94h455v-67h-455v67z" />
    <glyph glyph-name="greaterequal" unicode="&#x2265;" horiz-adv-x="568" 
d="M61 53v77l356 156l-356 154v76l456 -203v-56zM60 -94h455v-67h-455v67z" />
    <glyph glyph-name="commaaccent" unicode="&#xf6c3;" horiz-adv-x="335" 
d="M127 -60h75c5 -20 7 -37 7 -52c0 -32 -8 -60 -24 -94h-65c12 32 20 58 20 84c0 17 -3 37 -13 62z" />
    <glyph glyph-name="apple" unicode="&#xf8ff;" horiz-adv-x="1036" 
d="M522 750c238 0 431 -193 431 -431s-193 -432 -431 -432s-432 194 -432 432s194 431 432 431zM859 319c0 79 -28 153 -75 212v-1l-32 -23c20 -57 26 -121 17 -172c-6 -38 -21 -74 -34 -101c-13 -20 -22 -37 -31 -49l9 -9c36 29 68 64 91 99l51 2c2 14 4 28 4 42zM430 104
l9 21c53 -19 117 -24 181 -2c27 9 53 24 79 43l-18 17c34 42 59 104 59 170c0 28 -7 58 -17 88l-20 -11c-32 44 -82 89 -147 107c-25 8 -56 13 -86 13l4 -24c-53 -15 -109 -50 -148 -105c-16 -23 -29 -51 -38 -80l23 -4c-2 -53 13 -118 55 -171c16 -23 39 -44 64 -62z
M521 656c-40 0 -81 -8 -117 -22l11 -37c61 2 123 -13 168 -36c35 -17 64 -42 84 -65c18 -18 31 -33 40 -44l11 5c-15 44 -40 86 -66 117l14 49c-44 22 -93 33 -145 33zM277 551c-57 -60 -93 -142 -93 -232v-14l42 -1c16 58 50 114 86 149c28 29 61 47 88 61
c22 11 39 18 53 23l-2 12c-45 -2 -92 -12 -130 -26zM225 159c43 -79 116 -141 206 -165l13 39c-48 35 -92 83 -114 129c-17 34 -26 72 -30 102c-4 24 -5 44 -5 58l-12 2c-13 -44 -18 -92 -16 -132zM583 -12c92 17 171 71 221 145l-34 26c-48 -38 -107 -63 -157 -70
c-39 -6 -77 -2 -106 3c-24 4 -44 9 -58 13l-6 -11c39 -26 82 -47 122 -57z" />
    <glyph glyph-name="hyphen.case" horiz-adv-x="432" 
d="M72 311v71h288v-71h-288z" />
    <glyph glyph-name="parenleft.case" horiz-adv-x="278" 
d="M239 -64h-74c-69 118 -112 272 -112 429c0 143 41 270 113 387h73c-73 -123 -114 -250 -114 -388c0 -146 38 -293 114 -428z" />
    <glyph glyph-name="parenright.case" horiz-adv-x="278" 
d="M40 -64c74 131 110 282 110 428c0 138 -41 265 -114 388h73c72 -117 113 -244 113 -387c0 -157 -43 -310 -112 -429h-70z" />
    <glyph glyph-name="bracketleft.case" horiz-adv-x="283" 
d="M87 -64v816h143v-64h-71v-688h71v-64h-143z" />
    <glyph glyph-name="bracketright.case" horiz-adv-x="283" 
d="M50 0h71v688h-71v64h143v-816h-143v64z" />
    <glyph glyph-name="braceleft.case" horiz-adv-x="340" 
d="M124 115v93c0 55 -28 97 -84 108v70c53 10 84 50 84 109v81c0 165 110 180 150 180c9 0 19 -1 20 -1v-64h-13c-23 0 -86 -9 -86 -118v-96c0 -53 -27 -102 -73 -127c43 -20 73 -61 73 -124v-109c0 -109 63 -118 86 -118h13v-63s-10 -2 -20 -2c-40 0 -150 15 -150 181z" />
    <glyph glyph-name="braceright.case" horiz-adv-x="340" 
d="M43 -1h14c22 0 85 9 85 118v109c0 57 26 103 73 126c-41 20 -73 65 -73 125v96c0 109 -63 118 -85 118h-14v64c1 0 11 1 20 1c40 0 150 -15 150 -180v-81c0 -55 28 -99 84 -109v-70c-55 -9 -84 -54 -84 -108v-93c0 -166 -110 -181 -150 -181c-10 0 -20 2 -20 2v63z" />
    <glyph glyph-name="guillemotleft.case" horiz-adv-x="528" 
d="M388 134l-165 206l165 207h85l-165 -207l165 -206h-85zM210 134l-164 206l164 207h85l-164 -207c53 -66 111 -140 164 -206h-85z" />
    <glyph glyph-name="guillemotright.case" horiz-adv-x="528" 
d="M228 134l164 206l-164 207h84l165 -207l-165 -206h-84zM50 134l165 206l-165 207h85l165 -207l-165 -206h-85z" />
    <glyph glyph-name="guilsinglleft.case" horiz-adv-x="347" 
d="M209 134l-164 206l164 207h85l-164 -207c53 -66 112 -140 164 -206h-85z" />
    <glyph glyph-name="guilsinglright.case" horiz-adv-x="347" 
d="M49 134l165 206l-165 207h85l165 -207l-165 -206h-85z" />
    <glyph glyph-name="endash.case" horiz-adv-x="649" 
d="M74 309v66h500v-66h-500z" />
    <glyph glyph-name="emdash.case" horiz-adv-x="849" 
d="M76 309v66h697v-66h-697z" />
    <glyph glyph-name="periodcentered.case" horiz-adv-x="226" 
d="M69 300v88h85v-88h-85z" />
    <glyph glyph-name="questiondown.case" horiz-adv-x="451" 
d="M296 518v-59c0 -157 -172 -185 -172 -304c0 -61 54 -104 131 -104c65 0 132 36 150 48v-82c-18 -10 -82 -40 -158 -40c-122 0 -205 70 -205 172c0 148 178 179 178 313v56h76zM301 700v-88h-87v88h87z" />
    <glyph glyph-name="exclamdown.case" horiz-adv-x="260" 
d="M165 518l6 -533h-84l6 533h72zM172 700v-87h-87v87h87z" />
    <glyph glyph-name="bullet.case" horiz-adv-x="458" 
d="M229 208c-79 0 -143 64 -143 143s64 144 143 144s143 -65 143 -144s-64 -143 -143 -143z" />
    <glyph glyph-name="zero.p_osf" horiz-adv-x="584" 
d="M57 269c0 142 76 285 235 285s235 -142 235 -285c0 -141 -75 -281 -235 -281s-235 140 -235 281zM135 271c0 -106 50 -213 157 -213s157 107 157 213s-50 213 -157 213s-157 -107 -157 -213z" />
    <glyph glyph-name="one.p_osf" horiz-adv-x="469" 
d="M77 0v69h140v316c1 38 2 75 2 75l-3 1l-45 -30l-97 -61v82l150 90h69v-473h136v-69h-352z" />
    <glyph glyph-name="two.p_osf" horiz-adv-x="535" 
d="M70 406v85c41 32 113 63 187 63c130 0 198 -83 198 -168c0 -113 -94 -207 -270 -322v-2s29 3 82 6h213v-68h-419v55c203 136 315 229 315 322c0 74 -59 105 -127 105c-64 0 -138 -36 -179 -76z" />
    <glyph glyph-name="three.p_osf" horiz-adv-x="530" 
d="M63 -72v88c32 -34 107 -72 180 -72c78 0 153 53 153 137c0 91 -84 135 -168 135h-51l-19 46l149 162c29 27 56 50 56 50v3s-30 -2 -85 -4h-200v69h386v-48l-143 -153l-64 -57l1 -4c90 -4 216 -53 216 -196c0 -122 -100 -210 -231 -210c-67 0 -135 22 -180 54z" />
    <glyph glyph-name="four.p_osf" horiz-adv-x="586" 
d="M30 30v50l334 461h77v-442h103v-69h-103v-157h-74v157h-337zM198 99h169v269c1 34 3 76 3 76h-2s-24 -39 -46 -72l-142 -196l-62 -76l1 -4z" />
    <glyph glyph-name="five.p_osf" horiz-adv-x="535" 
d="M61 -66v87c49 -46 123 -68 179 -68c84 0 168 53 168 148c0 94 -78 143 -163 143c-71 0 -126 -35 -126 -35l-47 16l38 317h332v-69h-266l-16 -127c-5 -35 -9 -57 -9 -57l2 -1c8 3 51 23 103 23c128 0 230 -73 230 -207c0 -135 -108 -222 -242 -222c-65 0 -140 20 -183 52z
" />
    <glyph glyph-name="six.p_osf" horiz-adv-x="588" 
d="M465 660v-79c-14 7 -70 32 -126 32c-137 0 -195 -132 -203 -257l3 -1c35 42 112 82 175 82c124 0 218 -86 218 -218c0 -139 -109 -231 -229 -231c-153 0 -246 121 -246 304c0 169 61 393 286 393c38 0 84 -8 122 -25zM305 58c84 0 150 70 150 160c0 93 -62 151 -151 151
c-83 0 -151 -62 -167 -93c-6 -104 49 -220 168 -218z" />
    <glyph glyph-name="seven.p_osf" horiz-adv-x="507" 
d="M92 -114l252 489c30 54 58 100 58 100v3s-31 -2 -84 -4h-281v68h445v-50l-306 -606h-84z" />
    <glyph glyph-name="eight.p_osf" horiz-adv-x="584" 
d="M64 175c0 115 129 170 144 178v3c-26 16 -117 54 -117 145c0 95 72 168 209 168c128 0 203 -69 203 -165c0 -97 -111 -144 -128 -154v-3c30 -17 149 -64 149 -172s-94 -188 -228 -188c-128 0 -232 63 -232 188zM141 181c0 -87 76 -123 153 -123c78 0 151 39 151 115
c0 84 -112 120 -167 146c-39 -17 -137 -59 -137 -138zM298 599c-83 0 -128 -40 -128 -96c0 -59 60 -86 138 -125c13 9 119 42 119 118c0 67 -49 103 -129 103z" />
    <glyph glyph-name="nine.p_osf" horiz-adv-x="571" 
d="M275 554c153 0 243 -117 243 -300c0 -170 -57 -389 -293 -389c-37 0 -84 7 -121 24v79c14 -7 67 -31 126 -31c142 0 201 127 209 252l-3 1c-35 -42 -108 -77 -171 -77c-125 0 -219 82 -219 214c0 139 104 227 229 227zM123 327c0 -93 63 -147 152 -147
c83 0 146 58 162 89c6 105 -44 214 -164 214c-88 0 -150 -65 -150 -156z" />
    <glyph glyph-name="zerosuperior" unicode="&#x2070;" 
d="M191 329c-117 0 -155 99 -155 229c0 129 38 229 155 229s155 -100 155 -229c0 -130 -38 -229 -155 -229zM191 389c69 0 90 74 90 169c0 94 -21 169 -90 169c-70 0 -90 -75 -90 -169c0 -95 20 -169 90 -169z" />
    <glyph glyph-name="foursuperior" unicode="&#x2074;" 
d="M232 337v115h-210v40l212 286h60v-269h63v-57h-63v-115h-62zM159 509h73v124c1 26 4 60 4 60h-1s-15 -24 -30 -46l-78 -104l-32 -36l1 -2z" />
    <glyph glyph-name="fivesuperior" unicode="&#x2075;" 
d="M177 329c-51 0 -94 18 -121 37v73c20 -21 65 -50 118 -50c57 0 97 42 97 93c0 50 -41 91 -96 91c-25 0 -54 -9 -76 -24l-39 13l25 216h224v-60h-171l-9 -70c-4 -20 -8 -33 -8 -33l2 -1c17 9 43 14 65 14c88 0 149 -64 149 -145s-70 -154 -160 -154z" />
    <glyph glyph-name="sixsuperior" unicode="&#x2076;" 
d="M208 627c83 0 138 -56 138 -142c0 -95 -66 -158 -147 -158c-101 0 -159 79 -159 199c0 112 45 263 188 263c24 0 51 -6 78 -18v-69c-9 4 -47 27 -80 27c-70 0 -114 -69 -120 -143l2 -1c23 24 68 42 100 42zM198 387c53 0 84 45 84 97c0 54 -35 85 -86 85
c-48 0 -85 -36 -92 -47c-3 -74 34 -135 94 -135z" />
    <glyph glyph-name="sevensuperior" unicode="&#x2077;" 
d="M57 339l166 309c22 38 44 71 44 71l-2 2s-22 -1 -60 -2h-161v59h295v-43l-210 -396h-72z" />
    <glyph glyph-name="eightsuperior" unicode="&#x2078;" 
d="M37 460c0 62 66 100 92 114v3c-27 15 -73 46 -73 97c0 64 47 113 137 113c83 0 132 -47 132 -111c0 -52 -52 -87 -75 -102v-2c29 -16 87 -52 87 -112c0 -71 -60 -127 -148 -127c-85 0 -152 45 -152 127zM99 464c0 -49 44 -73 89 -73c44 0 87 26 87 68c0 45 -65 73 -96 88
c-30 -13 -80 -41 -80 -83zM192 730c-47 0 -73 -24 -73 -54c0 -31 34 -55 78 -78c20 11 67 35 67 73c0 37 -27 59 -72 59z" />
    <glyph glyph-name="ninesuperior" unicode="&#x2079;" 
d="M154 388c83 0 115 71 121 142l-2 1c-23 -25 -69 -41 -100 -41c-84 0 -139 55 -139 141c0 95 66 158 147 158c101 0 159 -79 159 -199c0 -112 -30 -262 -188 -262c-25 0 -58 6 -84 17v69c9 -4 52 -26 86 -26zM98 632c0 -53 35 -85 86 -85c49 0 85 36 91 47
c4 74 -33 135 -93 135c-53 0 -84 -45 -84 -97z" />
    <glyph glyph-name="zeroinferior" unicode="&#x2080;" 
d="M189 -165c-117 0 -155 100 -155 229s38 229 155 229s155 -100 155 -229s-38 -229 -155 -229zM189 -105c69 0 90 74 90 169c0 94 -21 169 -90 169c-70 0 -90 -75 -90 -169c0 -95 20 -169 90 -169z" />
    <glyph glyph-name="oneinferior" unicode="&#x2081;" 
d="M79 144v70l94 73h57v-384h91v-58h-248v58h95v258c1 27 3 54 3 54l-2 1s-5 -3 -31 -26z" />
    <glyph glyph-name="twoinferior" unicode="&#x2082;" 
d="M44 -158v48c78 75 216 207 216 274c0 38 -31 67 -78 67c-48 0 -105 -42 -120 -56v71c15 10 61 44 124 44c85 0 136 -46 136 -119c0 -71 -74 -155 -160 -241l-35 -30l1 -3l46 1h156v-56h-286z" />
    <glyph glyph-name="threeinferior" unicode="&#x2083;" 
d="M54 -62c14 -14 65 -45 123 -45c44 0 94 33 94 81c0 54 -49 80 -97 80h-35l-15 36l94 110c11 12 24 24 24 24l-1 2c-4 0 -17 -2 -31 -2h-150v58h267v-43l-85 -95l-35 -35v-3c59 -3 129 -43 129 -127c0 -82 -73 -146 -159 -146c-53 0 -106 20 -123 31v74z" />
    <glyph glyph-name="fourinferior" unicode="&#x2084;" 
d="M20 -41v41l212 286h60v-270h63v-57h-63v-114h-62v114h-210zM154 16h76v124c1 26 4 61 4 61h-1s-15 -25 -30 -46l-76 -102l-34 -39l1 -1z" />
    <glyph glyph-name="fiveinferior" unicode="&#x2085;" 
d="M177 -167c-51 0 -94 18 -121 37v73c20 -21 65 -50 118 -50c57 0 97 42 97 93c0 50 -41 91 -96 91c-25 0 -54 -9 -76 -24l-39 13l25 216h224v-60h-171l-9 -70c-4 -20 -8 -33 -8 -33l2 -1c17 9 43 14 65 14c88 0 149 -64 149 -145s-70 -154 -160 -154z" />
    <glyph glyph-name="sixinferior" unicode="&#x2086;" 
d="M199 -166c-101 0 -159 79 -159 199c0 112 45 263 188 263c24 0 51 -6 78 -18v-69c-9 4 -47 27 -80 27c-70 0 -114 -69 -120 -143l2 -1c23 24 68 42 100 42c83 0 138 -56 138 -142c0 -95 -66 -158 -147 -158zM198 -106c53 0 84 45 84 97c0 54 -35 85 -86 85
c-48 0 -85 -36 -92 -47c-3 -74 34 -135 94 -135z" />
    <glyph glyph-name="seveninferior" unicode="&#x2087;" 
d="M61 -156l165 309c23 38 44 71 44 71l-2 2s-21 -1 -59 -2h-162v59h295v-43l-209 -396h-72z" />
    <glyph glyph-name="eightinferior" unicode="&#x2088;" 
d="M327 180c0 -52 -52 -87 -75 -102v-2c29 -16 87 -52 87 -112c0 -71 -60 -127 -148 -127c-85 0 -152 45 -152 127c0 62 66 100 92 114v3c-27 15 -73 46 -73 97c0 64 47 113 137 113c83 0 132 -47 132 -111zM190 -105c44 0 87 26 87 68c0 45 -65 73 -96 88
c-30 -13 -80 -41 -80 -83c0 -49 44 -73 89 -73zM194 234c-47 0 -73 -24 -73 -54c0 -31 34 -55 78 -78c20 11 67 35 67 73c0 37 -27 59 -72 59z" />
    <glyph glyph-name="nineinferior" unicode="&#x2089;" 
d="M154 -107c83 0 115 70 121 142h-2c-23 -25 -69 -41 -100 -41c-84 0 -139 56 -139 141c0 96 66 158 147 158c101 0 159 -78 159 -199c0 -111 -30 -261 -188 -261c-25 0 -58 6 -84 17v68c9 -4 52 -25 86 -25zM98 137c0 -54 35 -85 86 -85c49 0 85 36 91 47
c4 73 -33 135 -93 135c-53 0 -84 -45 -84 -97z" />
    <glyph glyph-name="thinspace" unicode="&#x2009;" horiz-adv-x="12" 
 />
    <glyph glyph-name="uni00A0" unicode="&#xa0;" horiz-adv-x="250" 
 />
    <glyph glyph-name="uni00AD" unicode="&#xad;" horiz-adv-x="432" 
d="M70 249v71h289v-71h-289z" />
    <glyph glyph-name="cyrbreve" unicode="&#xf6d4;" horiz-adv-x="306" 
d="M152 736c-70 0 -135 41 -135 119v20h68v-18c0 -42 32 -64 67 -64s69 22 69 65v17h67v-20c0 -78 -65 -119 -136 -119z" />
    <glyph glyph-name="uni0410" unicode="&#x410;" horiz-adv-x="695" 
d="M576 0l-84 221h-292l-84 -221h-81l272 700h80l272 -700h-83zM319 536l-94 -246h240l-93 246l-26 85h-2z" />
    <glyph glyph-name="uni0411" unicode="&#x411;" horiz-adv-x="654" 
d="M113 0v700h418v-71h-339v-207h182c121 0 213 -76 213 -213c0 -129 -88 -209 -210 -209h-264zM192 71h176c85 0 139 49 139 138s-57 142 -140 142h-175v-280z" />
    <glyph glyph-name="uni0412" unicode="&#x412;" horiz-adv-x="672" 
d="M113 0v700h265c112 0 193 -66 193 -178c0 -67 -37 -120 -87 -147v-3c70 -23 115 -92 115 -173c0 -127 -94 -199 -213 -199h-273zM192 70h194c82 0 132 51 132 132c0 79 -54 131 -132 131h-194v-263zM192 402h186c67 0 112 46 112 115s-44 112 -115 112h-183v-227z" />
    <glyph glyph-name="uni0413" unicode="&#x413;" horiz-adv-x="531" 
d="M113 0v700h385v-71h-306v-629h-79z" />
    <glyph glyph-name="uni0414" unicode="&#x414;" horiz-adv-x="736" 
d="M48 70c14 1 28 2 40 6c87 28 103 174 103 425v199h425v-630h83v-213h-73v143h-504v-143h-74v213zM266 459c0 -198 -11 -320 -71 -386l1 -3h342v559h-272v-170z" />
    <glyph glyph-name="uni0415" unicode="&#x415;" horiz-adv-x="597" 
d="M113 0v700h410v-71h-331v-231h279v-71h-279v-257h342v-70h-421z" />
    <glyph glyph-name="uni0416" unicode="&#x416;" horiz-adv-x="937" 
d="M507 700v-300h5l278 300h97l-314 -329l329 -371h-100l-290 333h-5v-333h-78v333h-5l-290 -333h-99l329 372l-314 328h96l279 -300h4v300h78z" />
    <glyph glyph-name="uni0417" unicode="&#x417;" horiz-adv-x="592" 
d="M500 533c0 -83 -56 -137 -108 -159v-2c75 -22 133 -86 133 -178c0 -129 -117 -207 -262 -207c-80 0 -177 33 -199 49v94c24 -22 119 -68 202 -68c95 0 177 48 177 135c0 82 -67 133 -158 133h-98v67h80c85 0 151 53 151 127c0 65 -55 116 -156 116
c-78 0 -156 -37 -183 -56v88c34 17 115 42 191 42c139 0 230 -69 230 -181z" />
    <glyph glyph-name="uni0418" unicode="&#x418;" horiz-adv-x="780" 
d="M114 0v700h78v-453c-1 -52 -5 -130 -5 -130h2s44 70 70 108l340 475h66v-700h-78v456c1 48 5 121 5 121h-2s-41 -65 -66 -103l-344 -474h-66z" />
    <glyph glyph-name="uni0419" unicode="&#x419;" horiz-adv-x="780" 
d="M392 729c-70 0 -136 41 -136 119v21h68v-19c0 -42 33 -64 68 -64c34 0 69 22 69 65v18h66v-21c0 -78 -65 -119 -135 -119zM114 0v700h78v-453c-1 -52 -5 -130 -5 -130h2s44 70 70 108l340 475h66v-700h-78v456c1 48 5 121 5 121h-2s-41 -65 -66 -103l-344 -474h-66z" />
    <glyph glyph-name="uni041A" unicode="&#x41a;" horiz-adv-x="641" 
d="M192 700v-302h4l299 302h96l-331 -328l346 -372h-100l-310 334h-4v-334h-79v700h79z" />
    <glyph glyph-name="uni041B" unicode="&#x41b;" horiz-adv-x="700" 
d="M33 -9v78c110 6 130 140 130 400v231h421v-700h-79v629h-266v-160c0 -307 -28 -469 -206 -478z" />
    <glyph glyph-name="uni041C" unicode="&#x41c;" horiz-adv-x="895" 
d="M114 0v700h90l201 -371l43 -89h3l43 90l201 370h85v-700h-80v474l3 99h-3l-44 -91l-191 -351h-41l-193 355l-41 82h-3l5 -103v-465h-78z" />
    <glyph glyph-name="uni041D" unicode="&#x41d;" horiz-adv-x="777" 
d="M114 0v700h78v-309h392v309h78v-700h-78v320h-392v-320h-78z" />
    <glyph glyph-name="uni041E" unicode="&#x41e;" horiz-adv-x="859" 
d="M71 354c0 202 156 359 358 359s358 -157 358 -359c0 -207 -156 -366 -358 -366s-358 159 -358 366zM152 354c0 -167 121 -293 277 -293c157 0 277 126 277 293c0 161 -120 286 -277 286c-156 0 -277 -125 -277 -286z" />
    <glyph glyph-name="uni041F" unicode="&#x41f;" horiz-adv-x="773" 
d="M114 0v700h543v-700h-78v629h-387v-629h-78z" />
    <glyph glyph-name="uni0420" unicode="&#x420;" horiz-adv-x="632" 
d="M113 0v700h246c126 0 219 -80 219 -211c0 -132 -93 -217 -219 -217h-167v-272h-79zM192 343h158c89 0 148 55 148 146c0 90 -58 140 -147 140h-159v-286z" />
    <glyph glyph-name="uni0421" unicode="&#x421;" horiz-adv-x="729" 
d="M436 60c92 0 188 48 219 74v-86c-53 -36 -134 -61 -221 -61c-214 0 -366 160 -366 365c0 207 158 360 364 360c72 0 155 -18 217 -59v-88c-28 25 -117 74 -215 74c-171 0 -284 -123 -284 -287c0 -162 116 -292 286 -292z" />
    <glyph glyph-name="uni0422" unicode="&#x422;" horiz-adv-x="629" 
d="M275 0v629h-242v71h563v-71h-243v-629h-78z" />
    <glyph glyph-name="uni0423" unicode="&#x423;" horiz-adv-x="626" 
d="M122 9l-1 84c24 -16 59 -33 89 -33c44 0 72 32 92 88l-279 552h87l169 -338c28 -60 61 -133 61 -133h2s25 73 45 131l126 340h81l-230 -587c-26 -67 -67 -125 -150 -125c-27 0 -68 9 -92 21z" />
    <glyph glyph-name="uni0424" unicode="&#x424;" horiz-adv-x="855" 
d="M61 378c0 179 133 287 327 289v82h78v-82c194 -2 327 -110 327 -289s-133 -288 -327 -290v-100h-78v100c-195 1 -327 111 -327 290zM466 156c150 2 247 80 247 222c0 141 -96 219 -247 220v-442zM141 378c0 -142 96 -221 247 -222v442c-151 -1 -247 -79 -247 -220z" />
    <glyph glyph-name="uni0425" unicode="&#x425;" horiz-adv-x="632" 
d="M30 0l234 364l-214 336h93l122 -193l52 -90h3l49 88l122 195h90l-217 -336l236 -364h-92l-138 212l-58 96h-3l-60 -105l-128 -203h-91z" />
    <glyph glyph-name="uni0426" unicode="&#x426;" horiz-adv-x="779" 
d="M114 0v700h78v-630h369v630h78v-630h79v-213h-73v143h-531z" />
    <glyph glyph-name="uni0427" unicode="&#x427;" horiz-adv-x="667" 
d="M287 265c-145 0 -218 74 -218 202v233h79v-220c0 -92 48 -142 150 -142c68 0 144 31 175 51v311h79v-700h-79v258c1 24 2 56 2 56l-2 1c-36 -19 -114 -50 -186 -50z" />
    <glyph glyph-name="uni0428" unicode="&#x428;" horiz-adv-x="1022" 
d="M549 700l1 -629h279v629h78v-700h-793v700h78v-629h279v629h78z" />
    <glyph glyph-name="uni0429" unicode="&#x429;" horiz-adv-x="1055" 
d="M114 0v700h78v-630h279v630h78v-630h279v630h78v-630h85v-213h-74v143h-803z" />
    <glyph glyph-name="uni042A" unicode="&#x42a;" horiz-adv-x="722" 
d="M201 0v629h-174v71h252v-278h169c121 0 213 -76 213 -213c0 -129 -88 -209 -210 -209h-250zM279 71h163c85 0 139 49 139 138s-57 142 -140 142h-162v-280z" />
    <glyph glyph-name="uni042B" unicode="&#x42b;" horiz-adv-x="849" 
d="M656 0v700h79v-700h-79zM113 0v700h79v-278h163c122 0 214 -76 214 -213c0 -129 -89 -209 -210 -209h-246zM192 71h158c85 0 139 49 139 138s-57 142 -140 142h-157v-280z" />
    <glyph glyph-name="uni042C" unicode="&#x42c;" horiz-adv-x="635" 
d="M113 0v700h79v-278h168c122 0 214 -76 214 -213c0 -129 -89 -209 -210 -209h-251zM192 71h163c85 0 139 49 139 138s-57 142 -140 142h-162v-280z" />
    <glyph glyph-name="uni042D" unicode="&#x42d;" horiz-adv-x="728" 
d="M70 48v86c31 -26 127 -74 219 -74c156 0 267 110 283 255h-385v69h386c-13 148 -123 255 -282 255c-98 0 -187 -49 -215 -74v88c62 41 147 59 219 59c206 0 362 -153 362 -360c0 -205 -152 -365 -366 -365c-87 0 -168 25 -221 61z" />
    <glyph glyph-name="uni042E" unicode="&#x42e;" horiz-adv-x="1061" 
d="M113 0v700h79v-309h120c16 183 150 322 336 322c200 0 341 -157 341 -359c0 -207 -141 -366 -341 -366c-188 0 -322 141 -336 332h-120v-320h-79zM386 354c0 -166 109 -293 262 -293c154 0 260 127 260 293c0 161 -106 286 -260 286c-153 0 -262 -125 -262 -286z" />
    <glyph glyph-name="uni042F" unicode="&#x42f;" horiz-adv-x="657" 
d="M542 700v-700h-79v292h-138l-190 -292h-97c66 94 144 211 204 299c-97 20 -170 90 -170 199c0 128 97 202 224 202h246zM304 363h159v266h-159c-89 0 -152 -43 -152 -131c0 -89 63 -135 152 -135z" />
    <glyph glyph-name="uni0430" unicode="&#x430;" horiz-adv-x="532" 
d="M90 399v79c37 16 99 34 163 34c131 0 204 -70 204 -196v-316h-73v71l-3 1c-6 -6 -65 -84 -175 -84c-89 0 -166 58 -166 154c0 115 94 169 225 169c51 0 96 -8 115 -10c0 7 1 14 0 21c-3 88 -55 118 -131 118c-66 0 -127 -22 -159 -41zM120 147c0 -47 33 -93 102 -93
c100 0 158 96 158 96v90c-17 3 -56 10 -102 10c-95 0 -158 -32 -158 -103z" />
    <glyph glyph-name="uni0431" unicode="&#x431;" horiz-adv-x="572" 
d="M54 289c0 169 29 309 202 370c120 38 182 62 215 83v-83c-30 -19 -102 -37 -194 -68c-122 -48 -141 -133 -147 -228h3c44 60 112 94 182 94c123 0 208 -86 208 -232c0 -138 -95 -237 -231 -237c-165 0 -238 132 -238 301zM303 387c-94 0 -155 -72 -167 -106
c-1 -106 42 -224 154 -224c85 0 154 60 154 165c0 106 -61 165 -141 165z" />
    <glyph glyph-name="uni0432" unicode="&#x432;" horiz-adv-x="513" 
d="M78 0v500h198c103 0 168 -44 168 -129c0 -49 -28 -90 -74 -107v-2c62 -15 99 -64 99 -120c0 -89 -67 -142 -180 -142h-211zM154 288h114c63 0 97 27 97 78c0 49 -32 74 -99 74h-112v-152zM154 61h123c79 0 114 32 114 83c0 55 -41 85 -115 85h-122v-168z" />
    <glyph glyph-name="uni0433" unicode="&#x433;" horiz-adv-x="404" 
d="M77 0v500h304v-68h-227v-432h-77z" />
    <glyph glyph-name="uni0434" unicode="&#x434;" horiz-adv-x="576" 
d="M82 0v-123h-73v190c10 0 19 1 28 3c60 10 84 81 84 237v193h349v-433h76v-190h-73v123h-391zM195 302c0 -119 -18 -193 -52 -232l2 -3h248v366h-198v-131z" />
    <glyph glyph-name="uni0435" unicode="&#x435;" horiz-adv-x="558" 
d="M510 237h-382c3 -126 94 -177 182 -177c72 0 149 35 173 54v-81c-26 -16 -102 -45 -173 -45c-139 0 -264 86 -264 261c0 164 111 263 247 263c141 0 219 -107 219 -242c0 -10 -1 -22 -2 -33zM291 447c-74 0 -145 -45 -162 -148h305c-5 98 -66 148 -143 148z" />
    <glyph glyph-name="uni0436" unicode="&#x436;" horiz-adv-x="755" 
d="M415 500v-209h4l209 209h92l-239 -236l257 -264h-95l-225 233h-3v-233h-77v232h-3l-224 -232h-95l257 265l-239 235h92l208 -210h4v210h77z" />
    <glyph glyph-name="uni0437" unicode="&#x437;" horiz-adv-x="449" 
d="M390 379c0 -59 -46 -97 -90 -114v-2c55 -14 105 -55 105 -119c0 -104 -104 -156 -210 -156c-56 0 -122 17 -160 38v82c29 -24 96 -52 158 -52s133 29 133 91c0 53 -52 83 -132 83h-74v61h69c67 0 122 23 122 77c0 52 -59 76 -117 76c-48 0 -111 -14 -153 -40v79
c38 18 104 31 163 31c100 0 186 -43 186 -135z" />
    <glyph glyph-name="uni0438" unicode="&#x438;" horiz-adv-x="588" 
d="M78 0v500h74v-290c0 -44 -2 -104 -2 -104h2s38 58 62 95l223 299h72v-500h-75v300c1 40 3 92 3 92h-2s-37 -53 -60 -88l-226 -304h-71z" />
    <glyph glyph-name="uni0439" unicode="&#x439;" horiz-adv-x="588" 
d="M295 563c-70 0 -135 43 -135 121v16h67v-14c0 -42 33 -64 68 -64c34 0 68 22 68 65v13h66v-16c0 -78 -64 -121 -134 -121zM78 0v500h74v-290c0 -44 -2 -104 -2 -104h2s38 58 62 95l223 299h72v-500h-75v300c1 40 3 92 3 92h-2s-37 -53 -60 -88l-226 -304h-71z" />
    <glyph glyph-name="uni043A" unicode="&#x43a;" horiz-adv-x="501" 
d="M154 499v-211h4l216 212h96l-250 -234l267 -266h-98l-231 234h-4v-234h-76v499h76z" />
    <glyph glyph-name="uni043B" unicode="&#x43b;" horiz-adv-x="534" 
d="M17 -6v72c73 2 99 68 99 241v193h339v-500h-77v433h-188v-131c0 -227 -48 -308 -173 -308z" />
    <glyph glyph-name="uni043C" unicode="&#x43c;" horiz-adv-x="693" 
d="M79 0v500h95l128 -251l44 -94h2l44 92l131 253h90v-500h-76v295l3 106h-2l-48 -102l-112 -216h-67l-111 216l-48 101h-2l4 -114v-286h-75z" />
    <glyph glyph-name="uni043D" unicode="&#x43d;" horiz-adv-x="592" 
d="M80 0v500h77v-208h278v208h77v-500h-77v223h-278v-223h-77z" />
    <glyph glyph-name="uni043E" unicode="&#x43e;" horiz-adv-x="624" 
d="M46 252c0 149 119 260 266 260c146 0 265 -111 265 -260c0 -152 -119 -264 -265 -264c-147 0 -266 112 -266 264zM125 253c0 -118 84 -196 187 -196s187 80 187 196c0 115 -84 191 -187 191s-187 -81 -187 -191z" />
    <glyph glyph-name="uni043F" unicode="&#x43f;" horiz-adv-x="583" 
d="M80 0v500h423v-500h-77v432h-269v-432h-77z" />
    <glyph glyph-name="uni0440" unicode="&#x440;" horiz-adv-x="597" 
d="M551 252c0 -161 -99 -265 -230 -265c-92 0 -152 61 -166 79h-2l2 -73v-190h-77v697h74v-70l2 -1c11 16 71 83 167 83c137 0 230 -113 230 -260zM310 441c-104 0 -153 -93 -156 -97v-190c4 -7 53 -97 156 -97c97 0 161 85 161 196c0 103 -61 188 -161 188z" />
    <glyph glyph-name="uni0441" unicode="&#x441;" horiz-adv-x="530" 
d="M316 60c73 0 143 39 163 61v-82c-21 -19 -90 -50 -165 -50c-149 0 -268 105 -268 261s121 262 268 262c64 0 131 -24 153 -39v-85c-18 18 -79 55 -153 55c-105 0 -189 -77 -189 -191c0 -116 85 -192 191 -192z" />
    <glyph glyph-name="uni0442" unicode="&#x442;" horiz-adv-x="481" 
d="M202 0v432h-180v68h436v-68h-180v-432h-76z" />
    <glyph glyph-name="uni0443" unicode="&#x443;" horiz-adv-x="526" 
d="M424 500h80c-43 -103 -171 -420 -243 -596c-34 -84 -89 -110 -144 -110c-17 0 -33 5 -38 6v72c5 -1 18 -4 32 -4c44 0 73 27 94 82c8 22 16 44 22 58l-207 492h85l127 -312c19 -50 35 -98 35 -98h2s15 49 33 100z" />
    <glyph glyph-name="uni0444" unicode="&#x444;" horiz-adv-x="698" 
d="M47 253c0 151 113 249 266 258v189h75v-189c153 -9 265 -107 265 -258c0 -153 -112 -254 -265 -264v-186h-75v186c-153 10 -266 111 -266 264zM388 55c111 9 189 83 189 198c0 114 -78 184 -189 192v-390zM124 253c0 -117 77 -189 189 -198v390
c-112 -8 -189 -78 -189 -192z" />
    <glyph glyph-name="uni0445" unicode="&#x445;" horiz-adv-x="499" 
d="M15 0l186 260l-172 240h90l93 -133l37 -60h2l39 63l90 130h90l-172 -240l187 -260h-90l-98 140l-46 71h-3l-47 -76l-96 -135h-90z" />
    <glyph glyph-name="uni0446" unicode="&#x446;" horiz-adv-x="597" 
d="M80 0v500h77v-432h263v432h77v-432h69v-191h-72v123h-414z" />
    <glyph glyph-name="uni0447" unicode="&#x447;" horiz-adv-x="512" 
d="M212 178c-118 0 -168 69 -168 168v154h75v-152c0 -49 18 -100 110 -100c51 0 104 24 125 39v213h77v-500h-77v150c1 33 3 69 3 69l-3 1c-34 -22 -97 -42 -142 -42z" />
    <glyph glyph-name="uni0448" unicode="&#x448;" horiz-adv-x="792" 
d="M82 0v500h75v-432h201v432h75v-432h202v432h74v-500h-627z" />
    <glyph glyph-name="uni0449" unicode="&#x449;" horiz-adv-x="812" 
d="M80 0v500h75v-432h202v432h75v-432h201v432h75v-432h69v-191h-72v123h-625z" />
    <glyph glyph-name="uni044A" unicode="&#x44a;" horiz-adv-x="538" 
d="M145 0v432h-131v68h208v-183h100c92 0 180 -40 180 -160c0 -92 -59 -157 -182 -157h-175zM222 62h92c76 0 109 40 109 96c0 57 -33 97 -108 97h-93v-193z" />
    <glyph glyph-name="uni044B" unicode="&#x44b;" horiz-adv-x="666" 
d="M508 0v500h77v-500h-77zM81 0v500h76v-183h103c91 0 179 -40 179 -160c0 -92 -59 -157 -181 -157h-177zM157 62h95c76 0 109 40 109 96c0 57 -34 97 -108 97h-96v-193z" />
    <glyph glyph-name="uni044C" unicode="&#x44c;" horiz-adv-x="474" 
d="M81 0v500h76v-182h101c91 0 179 -41 179 -161c0 -92 -59 -157 -181 -157h-175zM157 62h93c76 0 109 40 109 96c0 57 -34 98 -108 98h-94v-194z" />
    <glyph glyph-name="uni044D" unicode="&#x44d;" horiz-adv-x="525" 
d="M481 250c0 -156 -116 -261 -265 -261c-75 0 -144 31 -165 50v82c20 -22 90 -63 163 -63c95 0 172 64 186 162h-251v62h251c-13 97 -90 161 -186 161c-73 0 -136 -38 -154 -56v84c22 15 90 41 154 41c147 0 267 -106 267 -262z" />
    <glyph glyph-name="uni044E" unicode="&#x44e;" horiz-adv-x="787" 
d="M79 0v500h76v-216h90c15 137 121 228 246 228c142 0 248 -110 248 -259c0 -152 -106 -265 -248 -265c-126 0 -232 94 -245 230h-91v-218h-76zM317 253c0 -113 73 -196 171 -196s173 83 173 196c0 110 -75 190 -173 190s-171 -80 -171 -190z" />
    <glyph glyph-name="uni044F" unicode="&#x44f;" horiz-adv-x="498" 
d="M23 0l104 145c20 26 42 53 42 53v2c-61 13 -121 61 -121 142c0 103 86 158 191 158h179v-500h-77v189l-99 -1c-44 -62 -83 -126 -126 -188h-93zM245 246h96v193h-90c-70 0 -122 -30 -122 -98c0 -63 54 -95 116 -95z" />
    <glyph glyph-name="uni0409" unicode="&#x409;" horiz-adv-x="1004" 
d="M33 -9v78c110 6 130 140 130 400v231h411v-283h152c127 0 218 -80 218 -210c0 -129 -94 -207 -215 -207h-234v629h-256v-160c0 -307 -28 -469 -206 -478zM719 346h-145v-275h146c85 0 144 47 144 136c0 88 -60 139 -145 139z" />
    <glyph glyph-name="uni040A" unicode="&#x40a;" horiz-adv-x="1055" 
d="M113 0v700h79v-294h356v294h79v-286h152c124 0 215 -77 215 -207c0 -129 -94 -207 -215 -207h-231v334h-356v-334h-79zM627 71h143c85 0 144 47 144 136c0 88 -60 136 -145 136h-142v-272z" />
    <glyph glyph-name="uni040B" unicode="&#x40b;" horiz-adv-x="758" 
d="M227 0v629h-197v71h510v-71h-234v-197c0 -11 -4 -49 -5 -55l3 -1c35 18 107 52 188 52c135 0 195 -77 195 -203v-225h-79v215c0 91 -37 141 -129 141c-74 0 -142 -30 -173 -52v-304h-79z" />
    <glyph glyph-name="uni04BA" unicode="&#x4ba;" horiz-adv-x="651" 
d="M116 0v725h79v-271c0 -12 -4 -50 -5 -56l3 -1c35 19 107 53 188 53c135 0 195 -78 195 -204v-246h-79v236c0 91 -37 141 -129 141c-74 0 -142 -30 -173 -51v-326h-79z" />
    <glyph glyph-name="uni048C" unicode="&#x48c;" horiz-adv-x="715" 
d="M202 0v548h-174v66h175v110h77v-110h191v-66h-191v-131h169c121 0 214 -77 214 -206c0 -130 -95 -211 -213 -211h-248zM280 70h160c83 0 143 51 143 141c0 86 -61 135 -144 135h-159v-276z" />
    <glyph glyph-name="uni0402" unicode="&#x402;" horiz-adv-x="762" 
d="M228 0v629h-198v71h511v-71h-235v-183c0 -11 -2 -54 -4 -63l3 -1c68 36 135 46 178 46c145 0 222 -89 222 -213c0 -156 -104 -227 -222 -227c-15 0 -34 1 -51 3v71c11 -1 25 -2 44 -2c70 0 150 33 150 152c0 83 -46 144 -152 144c-86 0 -168 -44 -168 -44v-312h-78z" />
    <glyph glyph-name="uni0452" unicode="&#x452;" horiz-adv-x="629" 
d="M458 -35v321c0 79 -23 139 -114 139c-102 0 -171 -98 -171 -98v-327h-77v574h-65v59h65v116h75v-116h188v-59h-188v-86l-2 -81h2c4 4 82 90 188 90c121 0 175 -64 175 -192v-351c0 -149 -95 -158 -149 -158c-12 0 -24 2 -33 3v69c5 -1 13 -2 20 -2c36 0 86 6 86 99z" />
    <glyph glyph-name="uni04BB" unicode="&#x4bb;" horiz-adv-x="594" 
d="M517 320v-320h-76v301c0 79 -25 139 -116 139c-102 0 -169 -99 -169 -99v-341h-77v749h75v-240l-2 -87h2c4 4 80 90 186 90c121 0 177 -64 177 -192z" />
    <glyph glyph-name="uni045B" unicode="&#x45b;" horiz-adv-x="594" 
d="M517 305v-305h-76v286c0 79 -25 139 -116 139c-102 0 -169 -98 -169 -98v-327h-77v574h-65v59h65v116h75v-116h188v-59h-188v-80l-2 -87h2c4 4 80 90 186 90c121 0 177 -64 177 -192z" />
    <glyph glyph-name="uni0459" unicode="&#x459;" horiz-adv-x="747" 
d="M17 -6v72c73 2 99 68 99 241v193h314v-186h100c92 0 180 -39 180 -158c0 -92 -59 -156 -182 -156h-175v433h-163v-131c0 -227 -48 -308 -173 -308zM430 62h92c76 0 109 39 109 94c0 58 -33 96 -108 96h-93v-190z" />
    <glyph glyph-name="uni045A" unicode="&#x45a;" horiz-adv-x="798" 
d="M81 0v500h76v-200h249v200h76v-189h98c91 0 182 -39 182 -154c0 -92 -59 -157 -181 -157h-175v232h-249v-232h-76zM482 62h93c76 0 109 37 109 95c0 57 -37 92 -111 92h-91v-187z" />
    <glyph glyph-name="uni0463" unicode="&#x463;" horiz-adv-x="512" 
d="M119 0v521h-113v62h113v166h77v-166h165v-62h-165v-207h104c91 0 177 -39 177 -158c0 -92 -57 -156 -179 -156h-179zM196 62h96c76 0 107 39 107 94c0 58 -32 96 -106 96h-97v-190z" />
    <glyph glyph-name="uni048D" unicode="&#x48d;" horiz-adv-x="519" 
d="M124 0v521h-113v62h113v166h77v-166h165v-62h-165v-207h104c91 0 177 -39 177 -158c0 -92 -57 -156 -179 -156h-179zM201 62h96c76 0 107 39 107 94c0 58 -32 96 -106 96h-97v-190z" />
    <glyph glyph-name="uni04A4" unicode="&#x4a4;" horiz-adv-x="957" 
d="M114 0v700h79v-313h353v313h374v-71h-296v-629h-78v316h-353v-316h-79z" />
    <glyph glyph-name="uni04A0" unicode="&#x4a0;" horiz-adv-x="779" 
d="M330 700v-302h4l299 302h96l-331 -328l346 -372h-100l-310 334h-4v-334h-79v629h-218v71h297z" />
    <glyph glyph-name="uni04B4" unicode="&#x4b4;" horiz-adv-x="936" 
d="M252 0v629h-219v71h516v-71h-219v-559h372v630h78v-630h92v-213h-73v143h-547z" />
    <glyph glyph-name="uni0495" unicode="&#x495;" horiz-adv-x="488" 
d="M77 0v500h307v-66h-230v-173c34 16 74 26 112 26c143 0 183 -126 183 -228c0 -136 -56 -264 -170 -264c-5 0 -10 1 -15 1v71c73 1 110 77 110 189c0 77 -26 163 -117 163c-47 0 -85 -17 -103 -28v-191h-77z" />
    <glyph glyph-name="uni04C8" unicode="&#x4c8;" horiz-adv-x="588" 
d="M510 500v-546c0 -149 -96 -158 -150 -158c-11 0 -23 2 -32 3v69c4 -1 12 -2 20 -2c35 0 85 6 85 99v258h-279v-223h-76v500h76v-208h279v208h77z" />
    <glyph glyph-name="uni04C4" unicode="&#x4c4;" horiz-adv-x="506" 
d="M154 499v-205h5l217 206h94l-245 -221c139 -87 245 -185 245 -307c0 -110 -70 -178 -167 -178c-5 0 -9 1 -14 1v73c39 1 59 18 60 58c19 62 -28 125 -93 196c0 37 -39 74 -102 121v-243h-76v499h76z" />
    <glyph glyph-name="uni04A1" unicode="&#x4a1;" horiz-adv-x="569" 
d="M222 499v-211h4l216 212h96l-251 -234l268 -266h-98l-231 234h-4v-234h-76v432h-134v67h210z" />
    <glyph glyph-name="uni04A5" unicode="&#x4a5;" horiz-adv-x="716" 
d="M78 0v500h77v-208h247v208h287v-68h-210v-432h-77v223h-247v-223h-77z" />
    <glyph glyph-name="uni04B5" unicode="&#x4b5;" horiz-adv-x="712" 
d="M188 0v431h-166v69h408v-69h-166v-363h272v432h77v-432h69v-191h-73v123h-421z" />
    <glyph glyph-name="uni0401" unicode="&#x401;" horiz-adv-x="597" 
d="M360 749v95h70v-95h-70zM209 749v95h71v-95h-71zM113 0v700h410v-71h-331v-231h279v-71h-279v-257h342v-70h-421z" />
    <glyph glyph-name="uni0407" unicode="&#x407;" horiz-adv-x="306" 
d="M112 0v700h79v-700h-79zM193 749v95h70v-95h-70zM43 749v95h70v-95h-70z" />
    <glyph glyph-name="uni04D2" unicode="&#x4d2;" horiz-adv-x="695" 
d="M384 768v95h71v-95h-71zM234 768v95h71v-95h-71zM576 0l-84 221h-292l-84 -221h-81l272 700h80l272 -700h-83zM319 536l-94 -246h240l-93 246l-26 85h-2z" />
    <glyph glyph-name="uni04DA" unicode="&#x4da;" horiz-adv-x="755" 
d="M405 750v94h70v-94h-70zM255 750v94h71v-94h-71zM679 355c-1 -210 -120 -367 -315 -367c-174 0 -295 111 -295 353c0 17 2 43 2 43h525c-5 147 -93 255 -251 255c-113 0 -215 -65 -228 -75v87c50 31 142 61 231 61c207 0 331 -145 331 -357zM595 316h-445
c0 -160 67 -255 221 -255c130 0 222 99 224 255z" />
    <glyph glyph-name="uni04DC" unicode="&#x4dc;" horiz-adv-x="937" 
d="M511 749v95h71v-95h-71zM361 749v95h71v-95h-71zM507 700v-300h5l278 300h97l-314 -329l329 -371h-100l-290 333h-5v-333h-78v333h-5l-290 -333h-99l329 372l-314 328h96l279 -300h4v300h78z" />
    <glyph glyph-name="uni04DE" unicode="&#x4de;" horiz-adv-x="592" 
d="M315 750v94h70v-94h-70zM165 750v94h71v-94h-71zM500 533c0 -83 -56 -137 -108 -159v-2c75 -22 133 -86 133 -178c0 -129 -117 -207 -262 -207c-80 0 -177 33 -199 49v94c24 -22 119 -68 202 -68c95 0 177 48 177 135c0 82 -67 133 -158 133h-98v67h80
c85 0 151 53 151 127c0 65 -55 116 -156 116c-78 0 -156 -37 -183 -56v88c34 17 115 42 191 42c139 0 230 -69 230 -181z" />
    <glyph glyph-name="uni04E4" unicode="&#x4e4;" horiz-adv-x="780" 
d="M439 749v95h70v-95h-70zM289 749v95h70v-95h-70zM114 0v700h78v-453c-1 -52 -5 -130 -5 -130h2s44 70 70 108l340 475h66v-700h-78v456c1 48 5 121 5 121h-2s-41 -65 -66 -103l-344 -474h-66z" />
    <glyph glyph-name="uni04E6" unicode="&#x4e6;" horiz-adv-x="859" 
d="M71 354c0 202 153 359 358 359s358 -157 358 -359c0 -207 -153 -366 -358 -366s-358 159 -358 366zM152 354c0 -167 118 -293 277 -293c160 0 277 126 277 293c0 161 -117 286 -277 286c-159 0 -277 -125 -277 -286zM466 750v94h71v-94h-71zM316 750v94h71v-94h-71z" />
    <glyph glyph-name="uni04EA" unicode="&#x4ea;" horiz-adv-x="859" 
d="M316 750v94h71v-94h-71zM467 750v94h70v-94h-70zM71 354c0 202 153 359 358 359s358 -157 358 -359c0 -207 -153 -366 -358 -366s-358 159 -358 366zM429 61c149 0 262 110 275 261h-551c14 -151 127 -261 276 -261zM429 640c-148 0 -259 -107 -275 -251h549
c-15 144 -127 251 -274 251z" />
    <glyph glyph-name="uni04EC" unicode="&#x4ec;" horiz-adv-x="728" 
d="M361 750v94h71v-94h-71zM211 750v94h71v-94h-71zM70 48v86c31 -26 127 -74 219 -74c156 0 267 110 283 255h-385v69h386c-13 148 -123 255 -282 255c-98 0 -187 -49 -215 -74v88c62 41 147 59 219 59c206 0 362 -153 362 -360c0 -205 -152 -365 -366 -365
c-87 0 -168 25 -221 61z" />
    <glyph glyph-name="uni04F0" unicode="&#x4f0;" horiz-adv-x="626" 
d="M351 750v94h71v-94h-71zM201 750v94h71v-94h-71zM122 9l-1 84c24 -16 59 -33 89 -33c44 0 72 32 92 88l-279 552h87l169 -338c28 -60 61 -133 61 -133h2s25 73 45 131l126 340h81l-230 -587c-26 -67 -67 -125 -150 -125c-27 0 -68 9 -92 21z" />
    <glyph glyph-name="uni04F4" unicode="&#x4f4;" horiz-adv-x="667" 
d="M351 749v95h71v-95h-71zM201 749v95h71v-95h-71zM287 265c-145 0 -218 74 -218 202v233h79v-220c0 -92 48 -142 150 -142c68 0 144 31 175 51v311h79v-700h-79v246c1 28 3 67 3 67l-3 2c-36 -19 -114 -50 -186 -50z" />
    <glyph glyph-name="uni04F8" unicode="&#x4f8;" horiz-adv-x="849" 
d="M467 749v95h70v-95h-70zM316 749v95h71v-95h-71zM113 0v700h79v-278h163c122 0 214 -76 214 -213c0 -129 -89 -209 -210 -209h-246zM192 71h158c85 0 139 49 139 138s-57 142 -140 142h-157v-280zM735 700v-700h-79v700h79z" />
    <glyph glyph-name="uni0451" unicode="&#x451;" horiz-adv-x="558" 
d="M482 33c-26 -16 -102 -45 -174 -45c-138 0 -264 86 -264 261c0 164 113 263 249 263c141 0 218 -107 218 -242c0 -10 -1 -22 -2 -33h-383c3 -126 95 -177 183 -177c71 0 149 35 173 54v-81zM128 299h305c-6 98 -65 148 -142 148c-74 0 -147 -45 -163 -148zM327 605v95h71
v-95h-71zM177 605v95h71v-95h-71z" />
    <glyph glyph-name="uni0457" unicode="&#x457;" horiz-adv-x="231" 
d="M155 606v94h70v-94h-70zM5 606v94h71v-94h-71zM76 0v500h77v-500h-77z" />
    <glyph glyph-name="uni04D3" unicode="&#x4d3;" horiz-adv-x="534" 
d="M305 606v94h70v-94h-70zM156 606v94h70v-94h-70zM92 399l-1 79c37 16 99 34 163 34c131 0 204 -70 204 -196v-316h-73v71l-3 1c-6 -6 -65 -84 -175 -84c-89 0 -166 58 -166 154c0 115 94 169 225 169c51 0 96 -8 115 -10v18c-2 90 -54 121 -131 121
c-66 0 -127 -22 -158 -41zM121 147c0 -47 33 -93 102 -93c100 0 158 96 158 96v90c-17 3 -56 10 -102 10c-95 0 -158 -32 -158 -103z" />
    <glyph glyph-name="uni04DB" unicode="&#x4db;" horiz-adv-x="562" 
d="M310 606v94h70v-94h-70zM161 606v94h70v-94h-70zM515 250c0 -164 -111 -262 -247 -262c-141 0 -225 105 -225 240c0 11 2 34 4 53h386c-9 111 -95 159 -177 159c-76 0 -159 -36 -183 -55v82c26 16 106 45 183 45c139 0 259 -84 259 -262zM270 53c81 0 154 53 163 166
h-311c-7 -102 67 -166 148 -166z" />
    <glyph glyph-name="uni04DD" unicode="&#x4dd;" horiz-adv-x="754" 
d="M415 606v94h70v-94h-70zM265 606v94h71v-94h-71zM415 500v-209h4l209 209h92l-239 -236l257 -264h-95l-225 233h-3v-233h-77v232h-3l-224 -232h-95l257 265l-239 235h92l208 -210h4v210h77z" />
    <glyph glyph-name="uni04DF" unicode="&#x4df;" horiz-adv-x="449" 
d="M249 606v94h70v-94h-70zM100 606v94h70v-94h-70zM390 379c0 -59 -46 -97 -90 -114v-2c55 -14 105 -55 105 -119c0 -104 -104 -156 -210 -156c-56 0 -122 17 -160 38v82c29 -24 96 -52 158 -52s133 29 133 91c0 53 -52 83 -132 83h-74v61h69c67 0 122 23 122 77
c0 52 -59 76 -117 76c-48 0 -111 -14 -153 -40v79c38 18 104 31 163 31c100 0 186 -43 186 -135z" />
    <glyph glyph-name="uni04E5" unicode="&#x4e5;" horiz-adv-x="591" 
d="M337 606v94h70v-94h-70zM187 606v94h71v-94h-71zM80 0v500h74v-290c0 -44 -2 -104 -2 -104h2s38 58 62 95l223 299h72v-500h-75v300c1 40 3 92 3 92h-2s-37 -53 -60 -88l-226 -304h-71z" />
    <glyph glyph-name="uni04E7" unicode="&#x4e7;" horiz-adv-x="624" 
d="M46 252c0 149 119 260 266 260c146 0 265 -111 265 -260c0 -152 -119 -264 -265 -264c-147 0 -266 112 -266 264zM125 253c0 -118 84 -196 187 -196s187 80 187 196c0 115 -84 191 -187 191s-187 -81 -187 -191zM350 606v94h70v-94h-70zM201 606v94h70v-94h-70z" />
    <glyph glyph-name="uni04EB" unicode="&#x4eb;" horiz-adv-x="624" 
d="M46 252c0 149 119 260 266 260c146 0 265 -111 265 -260c0 -152 -119 -264 -265 -264c-147 0 -266 112 -266 264zM312 57c94 0 173 68 185 168h-371c12 -102 91 -168 186 -168zM312 444c-94 0 -172 -67 -185 -161h370c-13 97 -91 161 -185 161zM198 606v94h71v-94h-71z
M348 606v94h70v-94h-70z" />
    <glyph glyph-name="uni04ED" unicode="&#x4ed;" horiz-adv-x="525" 
d="M280 606v94h70v-94h-70zM130 606v94h71v-94h-71zM51 39v82c20 -22 90 -63 163 -63c95 0 172 64 186 162h-251v62h251c-13 97 -90 161 -186 161c-73 0 -136 -38 -154 -56v84c22 15 90 41 154 41c147 0 267 -106 267 -262s-116 -261 -265 -261c-75 0 -144 31 -165 50z" />
    <glyph glyph-name="uni04F1" unicode="&#x4f1;" horiz-adv-x="526" 
d="M300 606v94h70v-94h-70zM151 606v94h70v-94h-70zM261 -96c-34 -84 -89 -110 -144 -110c-17 0 -33 5 -38 6v72c5 -1 18 -4 32 -4c44 0 73 27 94 82c8 22 16 44 22 58l-207 492h85l127 -312c19 -50 35 -98 35 -98h2s15 49 33 100l122 310h80c-43 -103 -171 -420 -243 -596z
" />
    <glyph glyph-name="uni04F5" unicode="&#x4f5;" horiz-adv-x="512" 
d="M280 606v94h70v-94h-70zM130 606v94h71v-94h-71zM212 178c-118 0 -168 69 -168 168v154h75v-152c0 -49 18 -100 110 -100c51 0 104 24 125 39v213h77v-500h-77v162c1 27 2 57 2 57l-2 1c-34 -22 -97 -42 -142 -42z" />
    <glyph glyph-name="uni04F9" unicode="&#x4f9;" horiz-adv-x="669" 
d="M372 606v94h69v-94h-69zM222 606v94h70v-94h-70zM511 0v500h76v-500h-76zM83 0v500h77v-183h102c92 0 180 -40 180 -160c0 -92 -59 -157 -182 -157h-177zM160 62h94c76 0 109 40 109 96c0 57 -33 97 -108 97h-95v-193z" />
    <glyph glyph-name="uni0472" unicode="&#x472;" horiz-adv-x="859" 
d="M71 354c0 202 153 359 358 359s358 -157 358 -359c0 -207 -153 -366 -358 -366s-358 159 -358 366zM429 61c149 0 262 110 275 261h-551c14 -151 127 -261 276 -261zM429 640c-148 0 -259 -107 -275 -251h549c-15 144 -127 251 -274 251z" />
    <glyph glyph-name="uni04E8" unicode="&#x4e8;" horiz-adv-x="859" 
d="M71 354c0 202 153 359 358 359s358 -157 358 -359c0 -207 -153 -366 -358 -366s-358 159 -358 366zM429 61c149 0 262 110 275 261h-551c14 -151 127 -261 276 -261zM429 640c-148 0 -259 -107 -275 -251h549c-15 144 -127 251 -274 251z" />
    <glyph glyph-name="uni0473" unicode="&#x473;" horiz-adv-x="624" 
d="M46 252c0 149 119 260 266 260c146 0 265 -111 265 -260c0 -152 -119 -264 -265 -264c-147 0 -266 112 -266 264zM312 57c94 0 173 68 185 168h-371c12 -102 91 -168 186 -168zM312 444c-94 0 -172 -67 -185 -161h370c-13 97 -91 161 -185 161z" />
    <glyph glyph-name="uni04E9" unicode="&#x4e9;" horiz-adv-x="624" 
d="M46 252c0 149 119 260 266 260c146 0 265 -111 265 -260c0 -152 -119 -264 -265 -264c-147 0 -266 112 -266 264zM312 57c94 0 173 68 185 168h-371c12 -102 91 -168 186 -168zM312 444c-94 0 -172 -67 -185 -161h370c-13 97 -91 161 -185 161z" />
    <glyph glyph-name="uni0496" unicode="&#x496;" horiz-adv-x="969" 
d="M507 700v-300h5l278 300h97l-314 -329l267 -301h80v-213h-73v143h-46l-289 333h-5v-333h-78v333h-5l-290 -333h-99l329 372l-314 328h96l279 -300h4v300h78z" />
    <glyph glyph-name="uni049A" unicode="&#x49a;" horiz-adv-x="685" 
d="M192 700v-302h4l299 302h96l-331 -327l283 -303h90v-213h-73v143h-54l-310 334h-4v-334h-79v700h79z" />
    <glyph glyph-name="uni04B2" unicode="&#x4b2;" horiz-adv-x="673" 
d="M30 0l234 364l-214 336h93l122 -193l52 -90h3l49 88l122 195h90l-217 -336l190 -294h71v-213h-73v143h-44l-138 212l-58 96h-3l-60 -105l-128 -203h-91z" />
    <glyph glyph-name="uni04F6" unicode="&#x4f6;" horiz-adv-x="523" 
d="M113 0v700h375v-71h-296v-559h90v-213h-73v143h-96z" />
    <glyph glyph-name="uni04A2" unicode="&#x4a2;" horiz-adv-x="820" 
d="M114 0v700h78v-309h392v309h78v-630h95v-213h-73v143h-100v320h-392v-320h-78z" />
    <glyph glyph-name="uni04AC" unicode="&#x4ac;" horiz-adv-x="629" 
d="M274 0v629h-242v71h563v-71h-243v-559h94v-213h-73v143h-99z" />
    <glyph glyph-name="uni04B6" unicode="&#x4b6;" horiz-adv-x="690" 
d="M287 265c-145 0 -218 74 -218 202v233h79v-220c0 -92 48 -142 150 -142c68 0 144 31 175 51v311h79v-630h75v-213h-73v143h-81v238c1 31 3 75 3 75l-3 2c-36 -19 -114 -50 -186 -50z" />
    <glyph glyph-name="uni04CB" unicode="&#x4cb;" horiz-adv-x="654" 
d="M287 265c-145 0 -218 74 -218 202v233h79v-220c0 -92 48 -142 150 -142c68 0 144 31 175 51v311h79v-700h-95v-143h-73v213h89v193c1 21 3 50 3 50l-3 2c-36 -19 -114 -50 -186 -50z" />
    <glyph glyph-name="uni0497" unicode="&#x497;" horiz-adv-x="780" 
d="M415 500v-209h4l209 209h92l-239 -236l192 -196h78v-191h-73v123h-35l-225 233h-3v-233h-77v232h-3l-224 -232h-95l257 265l-239 235h92l208 -210h4v210h77z" />
    <glyph glyph-name="uni049B" unicode="&#x49b;" horiz-adv-x="536" 
d="M158 499v-211h4l215 212h96l-250 -234l200 -198h86v-191h-73v123h-43l-231 234h-4v-234h-77v499h77z" />
    <glyph glyph-name="uni04B3" unicode="&#x4b3;" horiz-adv-x="546" 
d="M15 0l186 260l-172 240h90l93 -133l37 -60h2l39 63l90 130h90l-172 -240l138 -192h81v-191h-73v123h-49l-98 140l-46 71h-3l-47 -76l-96 -135h-90z" />
    <glyph glyph-name="uni04F7" unicode="&#x4f7;" horiz-adv-x="407" 
d="M77 0v500h304v-68h-227v-364h78v-191h-72v123h-83z" />
    <glyph glyph-name="uni04A3" unicode="&#x4a3;" horiz-adv-x="620" 
d="M78 0v500h77v-208h278v208h76v-432h79v-191h-73v123h-82v223h-278v-223h-77z" />
    <glyph glyph-name="uni04AD" unicode="&#x4ad;" horiz-adv-x="482" 
d="M202 0v432h-180v68h436v-68h-180v-364h78v-186h-72v118h-82z" />
    <glyph glyph-name="uni04B7" unicode="&#x4b7;" horiz-adv-x="541" 
d="M212 178c-118 0 -168 69 -168 168v154h75v-152c0 -49 18 -100 110 -100c51 0 104 24 125 39v213h77v-432h80v-191h-73v123h-84v147c1 33 2 71 2 71l-2 2c-34 -22 -97 -42 -142 -42z" />
    <glyph glyph-name="uni04CC" unicode="&#x4cc;" horiz-adv-x="516" 
d="M208 178c-114 0 -164 70 -164 168v154h75v-152c0 -49 19 -100 107 -100c53 0 110 24 132 39v213h77v-500h-82v-123h-73v191h78v101c1 23 2 49 2 49l-2 2c-36 -23 -104 -42 -150 -42z" />
    <glyph glyph-name="uni048A" unicode="&#x48a;" horiz-adv-x="822" 
d="M587 0v456c1 48 5 121 5 121h-2s-41 -65 -66 -103l-344 -474h-66v700h78v-453c-1 -52 -5 -130 -5 -130h2s44 70 70 108l340 475h66l1 -631h97v-49l-67 -164h-79l59 144h-89zM392 729c-70 0 -135 41 -135 119v21h68v-19c0 -42 32 -64 67 -64s69 22 69 65v18h67v-21
c0 -78 -65 -119 -136 -119z" />
    <glyph glyph-name="uni04C5" unicode="&#x4c5;" horiz-adv-x="735" 
d="M33 -9v78c110 6 130 140 130 400v231h421v-630h91v-50l-67 -164h-79l59 144h-83v629h-266v-160c0 -307 -28 -469 -206 -478z" />
    <glyph glyph-name="uni04C9" unicode="&#x4c9;" horiz-adv-x="821" 
d="M114 0v700h78v-313h393v313h78v-630h98v-49l-67 -164h-80l61 143h-90v316h-393v-316h-78z" />
    <glyph glyph-name="uni04CD" unicode="&#x4cd;" horiz-adv-x="919" 
d="M700 0v474l3 99h-3l-44 -91l-191 -351h-41l-193 355l-41 82h-3l5 -103v-465h-78v700h90l201 -371l43 -89h3l43 90l201 370h85v-631h90v-49l-67 -164h-79l60 144h-84z" />
    <glyph glyph-name="uni048B" unicode="&#x48b;" horiz-adv-x="621" 
d="M80 0v500h74v-290c0 -44 -2 -104 -2 -104h2s38 58 62 95l223 299h72v-432h79v-49l-62 -153h-78l56 134h-70v300c1 40 3 92 3 92h-2s-37 -53 -60 -88l-226 -304h-71zM298 563c-69 0 -135 43 -135 121v16h68v-14c0 -42 32 -64 67 -64s69 22 69 65v13h66v-16
c0 -78 -65 -121 -135 -121z" />
    <glyph glyph-name="uni04C6" unicode="&#x4c6;" horiz-adv-x="557" 
d="M17 -6v72c73 2 99 68 99 241v193h339v-432h79v-49l-62 -153h-78l56 134h-72v433h-188v-131c0 -227 -48 -308 -173 -308z" />
    <glyph glyph-name="uni04CA" unicode="&#x4ca;" horiz-adv-x="619" 
d="M80 0v500h77v-208h278v208h77v-432h77v-49l-63 -153h-78l56 134h-69v223h-278v-223h-77z" />
    <glyph glyph-name="uni04CE" unicode="&#x4ce;" horiz-adv-x="714" 
d="M80 0v500h95l129 -251l43 -94h3l43 92l132 253h90v-432h75v-49l-63 -153h-77l55 134h-66v295l3 106h-3l-48 -102l-112 -216h-66l-111 216l-48 101h-3l4 -114v-286h-75z" />
    <glyph glyph-name="uni0498" unicode="&#x498;" horiz-adv-x="593" 
d="M500 533c0 -83 -56 -137 -108 -159v-2c75 -22 133 -86 133 -178c0 -115 -93 -190 -216 -204v-128h-73v126c-73 6 -150 33 -172 48v94c24 -22 119 -68 202 -68c95 0 177 48 177 135c0 82 -67 133 -158 133h-98v67h80c85 0 151 53 151 127c0 65 -55 116 -156 116
c-78 0 -156 -37 -183 -56v88c34 17 115 42 191 42c139 0 230 -69 230 -181z" />
    <glyph glyph-name="uni04AA" unicode="&#x4aa;" horiz-adv-x="729" 
d="M393 -138v127c-193 19 -325 171 -325 363c0 207 158 360 364 360c72 0 155 -18 217 -59v-88c-28 25 -117 74 -215 74c-171 0 -284 -123 -284 -287c0 -162 116 -292 286 -292c92 0 188 48 219 74v-86c-47 -32 -113 -55 -188 -60v-126h-74z" />
    <glyph glyph-name="uni04BE" unicode="&#x4be;" horiz-adv-x="896" 
d="M571 -138h-74v129c-168 20 -282 148 -287 345c-92 1 -151 53 -151 156c0 26 2 57 6 80c3 14 7 31 9 45h76l-10 -47c-5 -24 -7 -44 -7 -73c0 -52 27 -95 80 -94c22 175 138 309 316 309c172 0 288 -116 288 -334c0 -13 -2 -38 -2 -43h-523c2 -171 110 -274 256 -274
c122 0 221 68 231 77v-88c-44 -29 -122 -58 -208 -61v-127zM294 403h442c0 131 -64 236 -209 236c-132 0 -220 -98 -233 -236z" />
    <glyph glyph-name="uni0499" unicode="&#x499;" horiz-adv-x="449" 
d="M390 379c0 -59 -46 -97 -90 -114v-2c55 -14 105 -55 105 -119c0 -88 -74 -138 -159 -152v-110h-72v107c-49 3 -106 18 -139 37v82c29 -24 96 -52 158 -52s133 29 133 91c0 53 -52 83 -132 83h-74v61h69c67 0 122 23 122 77c0 52 -59 76 -117 76c-48 0 -111 -14 -153 -40
v79c38 18 104 31 163 31c100 0 186 -43 186 -135z" />
    <glyph glyph-name="uni04AB" unicode="&#x4ab;" horiz-adv-x="529" 
d="M270 -120v112c-130 17 -227 116 -227 258c0 156 121 262 268 262c64 0 126 -24 147 -39v-85c-18 18 -74 55 -147 55c-106 0 -190 -77 -190 -191c0 -116 86 -192 192 -192c73 0 143 39 163 61v-82c-20 -18 -77 -43 -142 -49v-110h-64z" />
    <glyph glyph-name="uni04BF" unicode="&#x4bf;" horiz-adv-x="668" 
d="M368 -120v112c-118 16 -215 102 -216 252c-78 3 -117 50 -117 136c0 22 7 58 14 80h69c-10 -24 -15 -57 -15 -76c0 -42 14 -73 55 -76c24 129 124 204 243 204c141 0 218 -107 218 -242c0 -10 -1 -22 -2 -33h-383c3 -126 95 -177 183 -177c71 0 149 35 173 54v-81
c-25 -15 -92 -40 -157 -44v-109h-65zM236 299h305c-6 98 -65 148 -142 148c-74 0 -147 -45 -163 -148z" />
    <glyph glyph-name="uni040F" unicode="&#x40f;" horiz-adv-x="764" 
d="M114 0v700h78v-629h378v629h79v-700h-234v-138h-74v138h-227z" />
    <glyph glyph-name="uni045F" unicode="&#x45f;" horiz-adv-x="571" 
d="M80 0v500h77v-432h257v432h76v-500h-166v-118h-73v118h-171z" />
    <glyph glyph-name="uni040E" unicode="&#x40e;" horiz-adv-x="626" 
d="M122 9l-1 84c24 -16 59 -33 89 -33c44 0 72 32 92 88l-279 552h87l169 -338c28 -60 61 -133 61 -133h2s25 73 45 131l126 340h81l-230 -587c-26 -67 -67 -125 -150 -125c-27 0 -68 9 -92 21zM313 736c-70 0 -135 41 -135 119v21h68v-19c0 -42 32 -64 67 -64s69 22 69 65
v18h67v-21c0 -78 -65 -119 -136 -119z" />
    <glyph glyph-name="uni04C1" unicode="&#x4c1;" horiz-adv-x="937" 
d="M466 736c-70 0 -136 41 -136 119v21h68v-19c0 -42 33 -64 68 -64c34 0 69 22 69 65v18h66v-21c0 -78 -65 -119 -135 -119zM507 700v-300h5l278 300h97l-314 -329l329 -371h-100l-290 333h-5v-333h-78v333h-5l-290 -333h-99l329 372l-314 328h96l279 -300h4v300h78z" />
    <glyph glyph-name="uni04D0" unicode="&#x4d0;" horiz-adv-x="695" 
d="M345 736c-70 0 -136 41 -136 119v21h68v-19c0 -42 33 -64 68 -64c34 0 69 22 69 65v18h66v-21c0 -78 -65 -119 -135 -119zM576 0l-84 221h-292l-84 -221h-81l272 700h80l272 -700h-83zM319 536l-94 -246h240l-93 246l-26 85h-2z" />
    <glyph glyph-name="uni04D6" unicode="&#x4d6;" horiz-adv-x="597" 
d="M314 736c-70 0 -136 41 -136 119v21h68v-19c0 -42 33 -64 68 -64c34 0 69 22 69 65v18h66v-21c0 -78 -65 -119 -135 -119zM113 0v700h410v-71h-331v-231h279v-71h-279v-257h342v-70h-421z" />
    <glyph glyph-name="uni045E" unicode="&#x45e;" horiz-adv-x="526" 
d="M261 563c-70 0 -135 41 -135 119v18h68v-16c0 -42 32 -64 67 -64s69 22 69 65v15h67v-18c0 -78 -65 -119 -136 -119zM261 -96c-34 -84 -89 -110 -144 -110c-17 0 -33 5 -38 6v72c5 -1 18 -4 32 -4c44 0 73 27 94 82c8 22 16 44 22 58l-207 492h85l127 -312
c19 -50 35 -98 35 -98h2s15 49 33 100l122 310h80c-43 -103 -171 -420 -243 -596z" />
    <glyph glyph-name="uni04C2" unicode="&#x4c2;" horiz-adv-x="755" 
d="M376 563c-70 0 -135 41 -135 119v18h68v-16c0 -42 32 -64 67 -64s69 22 69 65v15h67v-18c0 -78 -65 -119 -136 -119zM415 500v-209h4l209 209h92l-239 -236l257 -264h-95l-225 233h-3v-233h-77v232h-3l-224 -232h-95l257 265l-239 235h92l208 -210h4v210h77z" />
    <glyph glyph-name="uni04D1" unicode="&#x4d1;" horiz-adv-x="534" 
d="M264 563c-70 0 -136 41 -136 119v18h68v-16c0 -42 33 -64 68 -64c34 0 69 22 69 65v15h66v-18c0 -78 -65 -119 -135 -119zM91 399v79c37 16 99 34 163 34c131 0 204 -70 204 -196v-316h-73v71l-3 1c-6 -6 -65 -84 -175 -84c-89 0 -166 58 -166 154c0 115 94 169 225 169
c51 0 96 -8 115 -10v23c-4 86 -56 116 -131 116c-66 0 -127 -22 -159 -41zM121 147c0 -47 33 -93 102 -93c100 0 158 96 158 96v90c-17 3 -56 10 -102 10c-95 0 -158 -32 -158 -103z" />
    <glyph glyph-name="uni04D7" unicode="&#x4d7;" horiz-adv-x="558" 
d="M289 563c-70 0 -136 41 -136 119v18h68v-16c0 -42 33 -64 68 -64c34 0 69 22 69 65v15h66v-18c0 -78 -65 -119 -135 -119zM511 270c0 -10 -1 -22 -2 -33h-383c3 -126 95 -177 183 -177c71 0 149 35 173 54v-81c-26 -16 -102 -45 -174 -45c-138 0 -264 86 -264 261
c0 164 113 263 249 263c141 0 218 -107 218 -242zM128 299h305c-6 98 -65 148 -142 148c-74 0 -147 -45 -163 -148z" />
    <glyph glyph-name="uni0400" unicode="&#x400;" horiz-adv-x="597" 
d="M306 750l-91 125h88l74 -125h-71zM113 0v700h410v-71h-331v-231h279v-71h-279v-257h342v-70h-421z" />
    <glyph glyph-name="uni040D" unicode="&#x40d;" horiz-adv-x="780" 
d="M114 0v700h78v-453c-1 -52 -5 -130 -5 -130h2s44 70 70 108l340 475h66v-700h-78v456c1 48 5 121 5 121h-2s-41 -65 -66 -103l-344 -474h-66zM365 749l-93 126h90l74 -126h-71z" />
    <glyph glyph-name="uni0450" unicode="&#x450;" horiz-adv-x="558" 
d="M275 574l-91 126h88l74 -126h-71zM509 237h-383c3 -126 95 -177 183 -177c71 0 149 35 173 54v-81c-26 -16 -102 -45 -174 -45c-138 0 -264 86 -264 261c0 164 113 263 249 263c141 0 218 -107 218 -242c0 -10 -1 -22 -2 -33zM291 447c-74 0 -147 -45 -163 -148h305
c-6 98 -65 148 -142 148z" />
    <glyph glyph-name="uni045D" unicode="&#x45d;" horiz-adv-x="591" 
d="M284 574l-92 126h89l73 -126h-70zM80 0v500h74v-290c0 -44 -2 -104 -2 -104h2s38 58 62 95l223 299h72v-500h-75v300c1 40 3 92 3 92h-2s-37 -53 -60 -88l-226 -304h-71z" />
    <glyph glyph-name="uni0403" unicode="&#x403;" horiz-adv-x="521" 
d="M113 0v700h375v-71h-296v-629h-79zM249 750l73 126h91l-93 -126h-71z" />
    <glyph glyph-name="uni040C" unicode="&#x40c;" horiz-adv-x="606" 
d="M265 750l73 126h91l-94 -126h-70zM175 700v-302h4l299 302h96l-331 -327l346 -373h-100l-310 334h-4v-334h-79v700h79z" />
    <glyph glyph-name="uni04F2" unicode="&#x4f2;" horiz-adv-x="626" 
d="M335 750l74 126h88l-93 -126h-69zM203 750l69 126h77l-72 -126h-74zM122 9l-1 84c24 -16 59 -33 89 -33c44 0 72 32 92 88l-279 552h87l169 -338c28 -60 61 -133 61 -133h2s25 73 45 131l126 340h81l-230 -587c-26 -67 -67 -125 -150 -125c-27 0 -68 9 -92 21z" />
    <glyph glyph-name="uni04E2" unicode="&#x4e2;" horiz-adv-x="780" 
d="M268 758v64h252v-64h-252zM114 0v700h78v-453c-1 -52 -5 -130 -5 -130h2s44 70 70 108l340 475h66v-700h-78v456c1 48 5 121 5 121h-2s-41 -65 -66 -103l-344 -474h-66z" />
    <glyph glyph-name="uni04EE" unicode="&#x4ee;" horiz-adv-x="626" 
d="M189 758v63h252v-63h-252zM122 9l-1 84c24 -16 59 -33 89 -33c44 0 72 32 92 88l-279 552h87l169 -338c28 -60 61 -133 61 -133h2s25 73 45 131l126 340h81l-230 -587c-26 -67 -67 -125 -150 -125c-27 0 -68 9 -92 21z" />
    <glyph glyph-name="uni0453" unicode="&#x453;" horiz-adv-x="404" 
d="M173 574l73 126h89l-92 -126h-70zM77 0v500h304v-68h-227v-432h-77z" />
    <glyph glyph-name="uni045C" unicode="&#x45c;" horiz-adv-x="501" 
d="M207 574l73 126h90l-93 -126h-70zM154 499v-211h4l216 212h96l-251 -234l268 -266h-98l-231 234h-4v-234h-76v499h76z" />
    <glyph glyph-name="uni04F3" unicode="&#x4f3;" horiz-adv-x="526" 
d="M282 574l73 126h89l-93 -126h-69zM149 574l71 126h85l-86 -126h-70zM261 -96c-34 -84 -89 -110 -144 -110c-17 0 -33 5 -38 6v72c5 -1 18 -4 32 -4c44 0 73 27 94 82c8 22 16 44 22 58l-207 492h85l127 -312c19 -50 35 -98 35 -98h2s15 49 33 100l122 310h80
c-43 -103 -171 -420 -243 -596z" />
    <glyph glyph-name="uni04E3" unicode="&#x4e3;" horiz-adv-x="591" 
d="M170 619v63h251v-63h-251zM80 0v500h74v-290c0 -44 -2 -104 -2 -104h2s38 58 62 95l223 299h72v-500h-75v300c1 40 3 92 3 92h-2s-37 -53 -60 -88l-226 -304h-71z" />
    <glyph glyph-name="uni04EF" unicode="&#x4ef;" horiz-adv-x="526" 
d="M135 619v63h251v-63h-251zM79 -200v72c5 -1 18 -4 32 -4c44 0 73 27 94 82c8 22 16 44 22 58l-207 492h85l127 -312c19 -50 35 -98 35 -98h2s15 49 33 100l122 310h80c-43 -103 -171 -420 -243 -596c-34 -84 -89 -110 -144 -110c-17 0 -33 5 -38 6z" />
    <glyph glyph-name="uni0405" unicode="&#x405;" horiz-adv-x="599" 
d="M159 537c0 -151 375 -137 375 -355c0 -112 -98 -194 -247 -194c-76 0 -165 28 -215 59v93c32 -28 136 -77 220 -77c90 0 160 44 160 113c0 172 -376 147 -376 358c0 122 104 181 237 181c73 0 157 -32 181 -46v-88c-23 17 -112 62 -190 62c-75 0 -145 -33 -145 -106z" />
    <glyph glyph-name="uni0406" unicode="&#x406;" horiz-adv-x="306" 
d="M112 0v700h79v-700h-79z" />
    <glyph glyph-name="uni0408" unicode="&#x408;" horiz-adv-x="462" 
d="M371 231c0 -158 -87 -243 -217 -243c-36 0 -82 10 -119 32v87c16 -5 73 -41 112 -41c103 0 145 59 145 178v456h79v-469z" />
    <glyph glyph-name="uni04C0" unicode="&#x4c0;" horiz-adv-x="306" 
d="M112 0v700h78v-700h-78z" />
    <glyph glyph-name="uni04D4" unicode="&#x4d4;" horiz-adv-x="884" 
d="M27 0l290 700h484v-71h-323v-239h263v-71h-263v-249h340v-70h-418v319h-161l-129 -319h-83zM266 388h134v241h-33z" />
    <glyph glyph-name="uni0455" unicode="&#x455;" horiz-adv-x="460" 
d="M130 379c0 -114 292 -65 292 -247c0 -88 -86 -144 -196 -144c-100 0 -173 43 -173 43v83s83 -57 182 -57c57 0 107 25 107 73c0 124 -289 75 -289 245c0 95 83 139 185 139c85 0 152 -33 152 -33v-80s-75 45 -160 45c-55 0 -100 -17 -100 -67z" />
    <glyph glyph-name="uni0456" unicode="&#x456;" horiz-adv-x="231" 
d="M73 607v93h82v-93h-82zM76 0v500h77v-500h-77z" />
    <glyph glyph-name="uni0458" unicode="&#x458;" horiz-adv-x="231" 
d="M73 607v93h82v-93h-82zM152 500v-538c0 -148 -95 -166 -149 -166c-12 0 -24 2 -33 3v69c5 -1 13 -2 20 -2c36 0 86 15 86 107v527h76z" />
    <glyph glyph-name="uni04CF" unicode="&#x4cf;" horiz-adv-x="266" 
d="M93 0v700h77v-700h-77z" />
    <glyph glyph-name="uni04D5" unicode="&#x4d5;" horiz-adv-x="884" 
d="M90 399v79c37 16 99 34 163 34c86 0 146 -33 176 -93h4c43 59 110 93 188 93c141 0 217 -107 217 -242c0 -10 -1 -22 -2 -33h-377c3 -126 89 -177 177 -177c72 0 149 35 173 54v-81c-26 -16 -102 -45 -173 -45c-92 0 -173 37 -218 112h-2c-28 -40 -99 -112 -210 -112
c-89 0 -166 58 -166 154c0 115 94 169 225 169c51 0 96 -8 115 -10v19c-3 89 -54 120 -131 120c-66 0 -127 -22 -159 -41zM120 147c0 -47 33 -91 102 -91c100 0 158 97 158 97v87c-17 3 -56 10 -102 10c-95 0 -158 -32 -158 -103zM619 447c-74 0 -142 -45 -159 -148h300
c-5 98 -65 148 -141 148z" />
    <glyph glyph-name="uni0474" unicode="&#x474;" horiz-adv-x="730" 
d="M295 0l-262 700h86l182 -491l38 -120h3l35 119l139 403c30 85 58 92 135 92h48v-72h-26c-48 0 -66 4 -89 -62l-207 -569h-82z" />
    <glyph glyph-name="uni0475" unicode="&#x475;" horiz-adv-x="556" 
d="M219 0l-196 500h84l128 -334c13 -40 27 -88 27 -88h2s15 49 27 88c29 81 57 162 86 243c26 71 55 94 126 94h36v-71h-25c-42 0 -57 -9 -76 -59l-139 -373h-80z" />
    <glyph glyph-name="uni04AF" unicode="&#x4af;" horiz-adv-x="532" 
d="M301 -196h-76v193l-202 503h84l133 -339c13 -39 27 -87 27 -87h3s14 48 27 87l131 339h79l-206 -505v-191z" />
    <glyph glyph-name="uni04AE" unicode="&#x4ae;" horiz-adv-x="621" 
d="M271 0v298l-243 402h93l143 -238l48 -93h3l49 93l142 238h86l-243 -402v-298h-78z" />
    <glyph glyph-name="uni04B1" unicode="&#x4b1;" horiz-adv-x="532" 
d="M112 61h88l-177 439h84l133 -339c13 -39 27 -87 27 -87h3s14 48 27 87l131 339h79l-180 -439h89v-61h-115v-196h-76v196h-113v61z" />
    <glyph glyph-name="uni0492" unicode="&#x492;" horiz-adv-x="532" 
d="M119 0v314h-62v64h62v322h374v-71h-296v-251h159v-64h-159v-314h-78z" />
    <glyph glyph-name="uni04B0" unicode="&#x4b0;" horiz-adv-x="621" 
d="M137 251v64h124l-233 385h93l143 -238l48 -93h3l49 93l142 238h86l-233 -385h119v-64h-129v-251h-78v251h-134z" />
    <glyph glyph-name="uni048E" unicode="&#x48e;" horiz-adv-x="650" 
d="M113 0v700h246c126 0 219 -85 219 -216c0 -70 -26 -128 -67 -166c19 -27 42 -57 61 -83l-49 -39l-64 87c-29 -14 -63 -21 -100 -21h-167v-262h-79zM349 436l49 38l66 -91c21 25 34 59 34 101c0 90 -58 145 -147 145h-159v-296h158c24 0 45 4 63 12c-21 30 -44 61 -64 91z
" />
    <glyph glyph-name="uni049C" unicode="&#x49c;" horiz-adv-x="708" 
d="M113 0v700h79v-301h69v126h65v-126h51l192 301h91l-216 -331l229 -369h-92l-204 334h-51v-127h-65v127h-69v-334h-79z" />
    <glyph glyph-name="uni049E" unicode="&#x49e;" horiz-adv-x="641" 
d="M192 700v-89h105v-64h-105v-149h4l299 302h96l-331 -328l346 -372h-100l-310 334h-4v-334h-79v547h-89v64h89v89h79z" />
    <glyph glyph-name="uni04B8" unicode="&#x4b8;" horiz-adv-x="677" 
d="M291 167v98c-145 0 -222 74 -222 202v233h79v-220c0 -89 48 -138 143 -141v149h65v-144c53 9 104 30 127 45v311h79v-700h-79v246c1 29 3 67 3 67l-3 2c-26 -14 -76 -34 -127 -43v-105h-65z" />
    <glyph glyph-name="uni048F" unicode="&#x48f;" horiz-adv-x="603" 
d="M550 252c0 -80 -25 -146 -66 -192l51 -61l-48 -41l-51 61c-34 -21 -73 -32 -116 -32c-92 0 -152 61 -166 79h-2l2 -73v-190h-77v697h74v-70l2 -1c11 16 71 83 167 83c137 0 230 -113 230 -260zM309 441c-104 0 -153 -93 -156 -97v-190c4 -7 53 -97 156 -97
c28 0 55 8 77 22l-69 83l48 41l67 -80c24 34 38 78 38 130c0 103 -61 188 -161 188z" />
    <glyph glyph-name="uni049D" unicode="&#x49d;" horiz-adv-x="574" 
d="M78 0v500h76v-208h55v104h62v-104h33l147 208h90l-175 -237l194 -263h-92l-162 224h-35v-106h-62v106h-55v-224h-76z" />
    <glyph glyph-name="uni049F" unicode="&#x49f;" horiz-adv-x="502" 
d="M154 750v-149h121v-61h-121v-242h4l219 202h93l-249 -225l266 -275h-94l-235 244h-4v-244h-76v540h-63v61h63v149h76z" />
    <glyph glyph-name="uni04B9" unicode="&#x4b9;" horiz-adv-x="527" 
d="M214 97v81c-118 1 -170 69 -170 168v154h75v-152c0 -45 17 -93 95 -99v123h63v-119c38 7 76 23 92 34v213h77v-500h-77v155c1 30 3 63 3 63l-3 2c-21 -14 -60 -27 -92 -34v-89h-63z" />
    <glyph glyph-name="uni0493" unicode="&#x493;" horiz-adv-x="410" 
d="M78 0v225h-62v59h62v216h305v-68h-228v-148h130v-59h-130v-225h-77z" />
    <glyph glyph-name="uni04E1" unicode="&#x4e1;" horiz-adv-x="480" 
d="M451 8c0 -129 -103 -216 -245 -216c-87 0 -159 35 -183 48v84c22 -16 111 -61 183 -61c100 0 165 57 165 140c0 71 -53 123 -142 130c-21 2 -34 2 -135 2v55c36 38 119 125 184 194c27 26 53 48 53 48l-1 2s-32 -1 -76 -2h-228v68h400v-57c-39 -41 -121 -128 -190 -201
c-20 -17 -46 -40 -46 -40v-2c43 0 65 -1 83 -5c138 -24 178 -121 178 -187z" />
    <glyph glyph-name="uni04E0" unicode="&#x4e0;" horiz-adv-x="556" 
d="M494 210c0 -129 -104 -218 -246 -218c-87 0 -159 34 -183 48v83c22 -16 111 -61 183 -61c100 0 166 60 166 143c0 71 -48 120 -142 127c-20 2 -34 2 -134 2v55c35 39 118 125 184 195c27 25 53 47 53 47l-1 3s-33 -2 -77 -3h-228v69h400v-58c-38 -41 -121 -128 -189 -201
c-20 -17 -47 -40 -47 -40v-2c43 0 65 -1 84 -5c137 -24 177 -118 177 -184z" />
    <glyph glyph-name="uni0490" unicode="&#x490;" horiz-adv-x="490" 
d="M96 0v700h309v92h70v-163h-300v-629h-79z" />
    <glyph glyph-name="uni0491" unicode="&#x491;" horiz-adv-x="399" 
d="M77 0v500h233v84h66v-152h-222v-432h-77z" />
    <glyph glyph-name="uni0524" unicode="&#x524;" horiz-adv-x="815" 
d="M114 0v700h543v-630h95v-213h-73v143h-100v629h-387v-629h-78z" />
    <glyph glyph-name="uni0525" unicode="&#x525;" horiz-adv-x="610" 
d="M80 0v500h423v-432h79v-191h-73v123h-83v432h-269v-432h-77z" />
    <glyph glyph-name="uni0404" unicode="&#x404;" horiz-adv-x="729" 
d="M68 352c0 207 156 360 362 360c72 0 157 -18 219 -59v-88c-28 25 -117 74 -215 74c-159 0 -269 -107 -283 -255h392v-69h-390c16 -145 126 -255 283 -255c92 0 188 48 219 74v-86c-53 -36 -134 -61 -221 -61c-214 0 -366 160 -366 365z" />
    <glyph glyph-name="uni0454" unicode="&#x454;" horiz-adv-x="525" 
d="M43 250c0 156 120 262 267 262c64 0 133 -26 154 -41v-84c-18 18 -80 56 -154 56c-95 0 -172 -63 -185 -160h250v-62h-250c13 -98 90 -163 186 -163c73 0 143 41 163 63v-82c-22 -19 -91 -50 -165 -50c-150 0 -266 105 -266 261z" />
    <glyph glyph-name="uni0462" unicode="&#x462;" horiz-adv-x="723" 
d="M210 0v527h-182v68h183v105h77v-105h201v-68h-201v-112h166c121 0 214 -76 214 -204c0 -130 -94 -211 -213 -211h-245zM288 70h157c83 0 143 51 143 141c0 84 -61 133 -143 133h-157v-274z" />
    <glyph glyph-name="uni04A8" unicode="&#x4a8;" horiz-adv-x="967" 
d="M71 356c0 211 155 331 288 355v-76c-101 -22 -208 -116 -208 -281c0 -160 96 -295 270 -295c40 0 79 8 118 22l1 5c-98 71 -164 188 -164 320c0 202 137 297 258 297c135 0 251 -95 251 -294c0 -131 -76 -247 -183 -323c38 -11 80 -18 127 -18h47v-68h-48
c-73 0 -141 13 -202 38c-65 -33 -136 -50 -206 -50c-207 0 -349 143 -349 368zM457 406c0 -121 58 -227 163 -287c106 63 184 170 184 290c0 160 -85 221 -170 221c-76 0 -177 -66 -177 -224z" />
    <glyph glyph-name="uni04BC" unicode="&#x4bc;" horiz-adv-x="896" 
d="M133 497c0 -49 23 -91 80 -94c22 175 138 309 316 309c172 0 288 -116 288 -334c0 -13 -2 -38 -2 -43h-523c2 -171 110 -274 256 -274c126 0 223 74 229 79v-90c-50 -32 -137 -62 -231 -62c-206 0 -331 145 -336 348c-92 1 -151 53 -151 156c0 26 2 57 6 80
c3 14 7 31 9 45h76l-10 -47c-5 -24 -7 -44 -7 -73zM294 403h442c0 131 -64 236 -209 236c-132 0 -220 -98 -233 -236z" />
    <glyph glyph-name="uni04D8" unicode="&#x4d8;" horiz-adv-x="755" 
d="M679 355c-1 -210 -120 -367 -315 -367c-174 0 -295 111 -295 353c0 17 2 43 2 43h525c-5 147 -93 255 -251 255c-113 0 -220 -66 -233 -76v86c50 31 147 63 236 63c207 0 331 -145 331 -357zM371 61c130 0 222 99 224 255h-445c0 -160 67 -255 221 -255z" />
    <glyph glyph-name="uni0494" unicode="&#x494;" horiz-adv-x="631" 
d="M113 0v700h376v-71h-297v-238c28 13 88 31 137 31c124 0 237 -52 237 -282c0 -226 -109 -312 -248 -312v68c83 0 164 48 164 244c0 157 -53 212 -162 212c-55 0 -102 -19 -128 -32v-320h-79z" />
    <glyph glyph-name="uni04A6" unicode="&#x4a6;" horiz-adv-x="1029" 
d="M114 0v700h477v-300c28 14 88 32 137 32c124 0 236 -54 236 -292c0 -226 -105 -312 -247 -312v68c82 0 165 48 165 244c0 166 -54 223 -163 223c-55 0 -102 -19 -128 -31v-332h-78v629h-320v-629h-79z" />
    <glyph glyph-name="uni04C3" unicode="&#x4c3;" horiz-adv-x="651" 
d="M192 700v-307h4l294 307h93l-317 -320c183 -73 318 -168 318 -318c0 -173 -111 -234 -248 -234v70c76 0 165 17 165 155c0 130 -147 231 -309 278v-331h-79v700h79z" />
    <glyph glyph-name="uni04C7" unicode="&#x4c7;" horiz-adv-x="782" 
d="M114 0v700h78v-313h392v313h78v-664c0 -180 -113 -209 -190 -209v71c42 0 112 15 112 137v281h-392v-316h-78z" />
    <glyph glyph-name="uni04A9" unicode="&#x4a9;" horiz-adv-x="769" 
d="M46 256c0 149 123 242 225 256v-71c-68 -12 -150 -80 -150 -186c0 -108 63 -203 209 -203c38 0 73 5 102 16c-77 51 -136 132 -136 235c0 116 89 211 210 211s202 -83 202 -205c0 -92 -53 -176 -130 -233c26 -7 53 -10 82 -10h51v-66h-49c-53 0 -108 9 -158 29
c-55 -27 -116 -41 -175 -41c-192 0 -283 120 -283 268zM371 304c0 -89 53 -161 130 -201c76 44 132 114 132 203c0 90 -53 142 -128 142c-73 0 -134 -59 -134 -144z" />
    <glyph glyph-name="uni04BD" unicode="&#x4bd;" horiz-adv-x="667" 
d="M416 60c72 0 149 35 173 54v-81c-26 -16 -102 -45 -173 -45c-138 0 -262 86 -264 256c-79 3 -117 50 -117 136c0 22 6 58 13 80h70c-10 -24 -15 -57 -15 -76c0 -42 13 -73 54 -76c24 129 125 204 244 204c141 0 217 -107 217 -242c0 -10 -1 -22 -2 -33h-382
c3 -126 94 -177 182 -177zM399 447c-74 0 -147 -45 -164 -148h305c-5 98 -65 148 -141 148z" />
    <glyph glyph-name="uni04D9" unicode="&#x4d9;" horiz-adv-x="562" 
d="M256 512c139 0 259 -84 259 -262c0 -164 -111 -262 -247 -262c-141 0 -225 105 -225 240c0 11 2 34 4 53h386c-9 111 -95 159 -177 159c-76 0 -159 -36 -183 -55v82c26 16 106 45 183 45zM270 53c81 0 158 55 163 166h-311c-7 -102 67 -166 148 -166z" />
    <glyph glyph-name="uni04A7" unicode="&#x4a7;" horiz-adv-x="798" 
d="M79 0v500h371v-226c33 14 75 23 111 23c143 0 190 -131 190 -233c0 -136 -57 -269 -171 -269c-5 0 -9 1 -14 1v71c72 1 110 82 110 194c0 77 -33 168 -124 168c-43 0 -82 -14 -102 -25v-204h-77v432h-218v-432h-76z" />
    <glyph glyph-name="uni0433.BUL" horiz-adv-x="445" 
d="M324 381c0 47 -43 65 -95 65c-76 0 -147 -38 -154 -44v78c12 8 76 34 147 34c98 0 180 -37 180 -129c0 -174 -277 -143 -277 -260c0 -46 44 -67 98 -67c97 0 177 53 180 57v-83c-14 -10 -86 -44 -172 -44c-105 0 -186 46 -186 133c0 178 279 148 279 260z" />
    <glyph glyph-name="uni0434.BUL" horiz-adv-x="601" 
d="M445 500h74v-486c0 -159 -124 -227 -247 -227c-71 0 -142 25 -163 34v82c19 -9 95 -46 161 -46c93 0 173 51 173 157l1 55l-2 1c-14 -18 -73 -78 -166 -78c-130 0 -229 98 -229 259c0 147 92 261 229 261c97 0 156 -67 167 -83l2 1v70zM287 63c104 0 152 88 156 95v186
c-2 4 -51 97 -156 97c-99 0 -160 -86 -160 -189c0 -111 64 -189 160 -189z" />
    <glyph glyph-name="uni0436.BUL" horiz-adv-x="754" 
d="M415 750v-459h4l209 209h92l-239 -236l257 -264h-95l-225 233h-3v-233h-77v232h-3l-224 -232h-95l257 265l-239 235h92l208 -210h4v460h77z" />
    <glyph glyph-name="uni0438.BUL" horiz-adv-x="588" 
d="M75 182v318h77v-299c0 -84 31 -140 118 -140c100 0 165 103 165 103v336h77v-500h-76v81h-3c-5 -6 -68 -93 -177 -93c-118 0 -181 68 -181 194z" />
    <glyph glyph-name="uni0439.BUL" horiz-adv-x="588" 
d="M294 563c-70 0 -135 41 -135 119v18h68v-16c0 -42 32 -64 67 -64s69 22 69 65v15h67v-18c0 -78 -65 -119 -136 -119zM75 182v318h77v-299c0 -84 31 -140 118 -140c100 0 165 103 165 103v336h77v-500h-76v81h-3c-5 -6 -68 -93 -177 -93c-118 0 -181 68 -181 194z" />
    <glyph glyph-name="uni043A.BUL" horiz-adv-x="502" 
d="M154 750v-452h4l219 202h93l-249 -226l266 -274h-94l-235 244h-4v-244h-76v750h76z" />
    <glyph glyph-name="uni043B.BUL" horiz-adv-x="511" 
d="M19 0l199 500h80l195 -500h-84l-127 334c-13 39 -27 87 -27 87h-3s-14 -48 -27 -87l-127 -334h-79z" />
    <glyph glyph-name="uni043F.BUL" horiz-adv-x="594" 
d="M518 321v-321h-77v302c0 84 -30 137 -118 137c-100 0 -167 -103 -167 -103v-336h-77v500h76v-82h2c4 4 70 93 180 93c118 0 181 -64 181 -190z" />
    <glyph glyph-name="uni0442.BUL" horiz-adv-x="909" 
d="M668 511c118 0 166 -69 166 -195v-316h-76v297c0 84 -18 142 -106 142s-145 -86 -156 -104v-335h-77v294c0 84 -22 145 -105 145c-102 0 -158 -103 -158 -103v-336h-77v500h76v-81l2 -1c4 6 63 93 172 93c84 0 130 -39 153 -103h2c9 10 75 103 184 103z" />
    <glyph glyph-name="uni0446.BUL" horiz-adv-x="615" 
d="M75 182v318h77v-299c0 -84 31 -140 118 -140c100 0 165 103 165 103v336h77v-432h75v-191h-73v123h-78v81h-3c-5 -6 -68 -93 -177 -93c-118 0 -181 68 -181 194z" />
    <glyph glyph-name="uni0448.BUL" horiz-adv-x="915" 
d="M75 184v316h77v-297c0 -84 23 -142 110 -142c88 0 140 86 152 104v335h76v-294c0 -84 27 -145 111 -145c101 0 153 103 153 103v336h77v-500h-76v81l-3 1c-3 -6 -57 -93 -167 -93c-84 0 -135 39 -157 103h-3c-8 -10 -69 -103 -178 -103c-118 0 -172 69 -172 195z" />
    <glyph glyph-name="uni0449.BUL" horiz-adv-x="936" 
d="M75 184v316h76v-297c0 -84 23 -142 111 -142s140 86 151 104v335h77v-294c0 -84 27 -145 110 -145c102 0 153 103 153 103v336h77v-432h78v-191h-73v123h-81v81l-2 1c-4 -6 -58 -93 -167 -93c-84 0 -135 39 -158 103h-2c-9 -10 -70 -103 -179 -103
c-118 0 -171 69 -171 195z" />
    <glyph glyph-name="uni044A.BUL" horiz-adv-x="568" 
d="M133 185v247h-107v68h184v-106c0 -22 -1 -79 -1 -86h2c30 31 83 63 139 63c101 0 178 -60 178 -192c0 -104 -73 -191 -202 -191c-139 0 -193 95 -193 197zM209 192c0 -85 44 -139 117 -139c71 0 124 49 124 125c0 94 -53 126 -113 126c-63 0 -111 -48 -128 -75v-37z" />
    <glyph glyph-name="uni044C.BUL" horiz-adv-x="507" 
d="M72 185v315h76v-110c0 -21 0 -75 -1 -82h2c30 32 84 63 140 63c100 0 180 -59 180 -191c0 -104 -75 -192 -205 -192c-138 0 -192 96 -192 197zM147 193c0 -86 45 -139 117 -139s127 48 127 124c0 95 -55 127 -115 127c-63 0 -111 -49 -128 -76c0 -12 -1 -24 -1 -36z" />
    <glyph glyph-name="uni044E.BUL" horiz-adv-x="787" 
d="M79 0v749h76v-465h90c15 137 121 228 246 228c142 0 248 -110 248 -259c0 -152 -106 -265 -248 -265c-126 0 -232 94 -245 230h-91v-218h-76zM317 253c0 -113 73 -196 171 -196s173 83 173 196c0 110 -75 190 -173 190s-171 -80 -171 -190z" />
    <glyph glyph-name="uni0432.BUL" horiz-adv-x="582" 
d="M69 246v184c0 153 81 280 238 280c93 0 169 -53 169 -132c0 -72 -47 -122 -123 -155v-3c73 -5 180 -54 180 -192c0 -136 -91 -240 -237 -240c-143 0 -227 102 -227 258zM144 356c1 0 1 0 3 -1c18 15 70 43 152 96c65 42 101 76 101 122c0 49 -52 74 -97 74
c-113 0 -159 -98 -159 -203v-88zM314 358c-70 0 -144 -60 -168 -84c-4 -139 52 -218 152 -218c86 0 157 57 157 170c0 98 -70 132 -141 132z" />
    <glyph glyph-name="uni0437.BUL" horiz-adv-x="458" 
d="M396 346c1 -69 -46 -135 -108 -164v-3c85 -26 134 -92 134 -176c0 -129 -96 -212 -240 -212c-50 0 -105 14 -144 33v80c33 -23 87 -43 142 -43c80 0 163 47 163 145c0 88 -74 135 -177 135h-60v66h60c77 0 150 47 150 125c0 68 -55 109 -131 109c-47 0 -105 -15 -146 -46
v79c36 20 96 37 156 37c113 0 200 -57 201 -165z" />
    <glyph glyph-name="currency" unicode="&#xa4;" horiz-adv-x="597" 
d="M124 0v170h-71v63h71v70h-71v68h71v329h217c130 0 218 -76 218 -200s-95 -198 -221 -198h-135v-69h249v-63h-249v-170h-79zM203 371h127c91 0 148 50 148 131c0 82 -57 130 -146 130h-129v-261z" />
    <glyph glyph-name="numero" unicode="&#x2116;" horiz-adv-x="1072" 
d="M109 0v700h67l341 -476l69 -107h2l-5 130v453h78v-700h-67l-344 474l-65 103h-3l5 -121v-456h-78zM727 484c0 75 60 134 135 134s135 -59 135 -134c0 -77 -60 -136 -135 -136s-135 59 -135 136zM792 484c0 -41 31 -74 70 -74c40 0 71 33 71 74s-31 71 -71 71
c-39 0 -70 -30 -70 -71zM736 228v61h251v-61h-251z" />
    <glyph glyph-name="NULL" horiz-adv-x="0" 
 />
    <glyph glyph-name="NULL" horiz-adv-x="0" 
 />
    <glyph glyph-name="CR" unicode="&#xd;" horiz-adv-x="250" 
 />
    </font>
</defs>
</svg>
